<?xml version="1.0" encoding="UTF-8" standalone="no"?>
<!-- Created with Inkscape (http://www.inkscape.org/) -->

<svg
   xmlns:dc="http://purl.org/dc/elements/1.1/"
   xmlns:cc="http://creativecommons.org/ns#"
   xmlns:rdf="http://www.w3.org/1999/02/22-rdf-syntax-ns#"
   xmlns:svg="http://www.w3.org/2000/svg"
   xmlns="http://www.w3.org/2000/svg"
   xmlns:sodipodi="http://sodipodi.sourceforge.net/DTD/sodipodi-0.dtd"
   xmlns:inkscape="http://www.inkscape.org/namespaces/inkscape"
   width="78.113853mm"
   height="29.929241mm"
   viewBox="0 0 276.78136 106.04849"
   id="svg13653"
   version="1.1"
   inkscape:version="0.91 r"
   sodipodi:docname="dijkstra-dimensions.svg">
  <defs
     id="defs13655">
    <marker
       inkscape:isstock="true"
       style="overflow:visible"
       id="marker20256"
       refX="0"
       refY="0"
       orient="auto"
       inkscape:stockid="TriangleOutM">
      <path
         inkscape:connector-curvature="0"
         transform="scale(0.4,0.4)"
         style="fill:#4ecdc4;fill-opacity:1;fill-rule:evenodd;stroke:#4ecdc4;stroke-width:1pt;stroke-opacity:1"
         d="m 5.77,0 -8.65,5 0,-10 8.65,5 z"
         id="path20258" />
    </marker>
    <marker
       inkscape:stockid="TriangleOutM"
       orient="auto"
       refY="0"
       refX="0"
       id="TriangleOutM-9"
       style="overflow:visible"
       inkscape:isstock="true"
       inkscape:collect="always">
      <path
         id="path7509-4"
         d="m 5.77,0 -8.65,5 0,-10 8.65,5 z"
         style="fill:#4ecdc4;fill-opacity:1;fill-rule:evenodd;stroke:#4ecdc4;stroke-width:1pt;stroke-opacity:1"
         transform="scale(0.4,0.4)"
         inkscape:connector-curvature="0" />
    </marker>
    <marker
       inkscape:stockid="TriangleOutM"
       orient="auto"
       refY="0"
       refX="0"
       id="TriangleOutM-9-5"
       style="overflow:visible"
       inkscape:isstock="true">
      <path
         id="path7509-4-5"
         d="m 5.77,0 -8.65,5 0,-10 8.65,5 z"
         style="fill:#4ecdc4;fill-opacity:1;fill-rule:evenodd;stroke:#4ecdc4;stroke-width:1pt;stroke-opacity:1"
         transform="scale(0.4,0.4)"
         inkscape:connector-curvature="0" />
    </marker>
  </defs>
  <sodipodi:namedview
     id="base"
     pagecolor="#ffffff"
     bordercolor="#666666"
     borderopacity="1.0"
     inkscape:pageopacity="0.0"
     inkscape:pageshadow="2"
     inkscape:zoom="2.8"
     inkscape:cx="89.371117"
     inkscape:cy="52.547018"
     inkscape:document-units="px"
     inkscape:current-layer="layer1"
     showgrid="true"
     inkscape:snap-center="false"
     inkscape:snap-object-midpoints="true"
     inkscape:object-nodes="true"
     inkscape:window-width="1918"
     inkscape:window-height="1198"
     inkscape:window-x="1366"
     inkscape:window-y="0"
     inkscape:window-maximized="0"
     inkscape:snap-text-baseline="true"
     showguides="false"
     fit-margin-top="0"
     fit-margin-left="0"
     fit-margin-right="0"
     fit-margin-bottom="0">
    <inkscape:grid
       type="xygrid"
       id="grid14201"
       originx="-174.83849"
       originy="-619.10191" />
    <sodipodi:guide
       position="0.16151024,65.898078"
       orientation="1,0"
       id="guide19898" />
  </sodipodi:namedview>
  <metadata
     id="metadata13658">
    <rdf:RDF>
      <cc:Work
         rdf:about="">
        <dc:format>image/svg+xml</dc:format>
        <dc:type
           rdf:resource="http://purl.org/dc/dcmitype/StillImage" />
        <dc:title></dc:title>
      </cc:Work>
    </rdf:RDF>
  </metadata>
  <g
     inkscape:label="Layer 1"
     inkscape:groupmode="layer"
     id="layer1"
     transform="translate(-174.8385,-327.21179)">
    <path
       style="fill:none;fill-rule:evenodd;stroke:#556270;stroke-width:1.79616702px;stroke-linecap:butt;stroke-linejoin:miter;stroke-opacity:1"
       d="m 255,423.37683 0,-17.96167"
       id="path10642"
       inkscape:connector-curvature="0" />
    <path
       style="fill:none;fill-rule:evenodd;stroke:#556270;stroke-width:1.79616702px;stroke-linecap:butt;stroke-linejoin:miter;stroke-opacity:1"
       d="m 265,423.37683 0,-17.96167"
       id="path10642-2"
       inkscape:connector-curvature="0" />
    <path
       style="fill:none;fill-rule:evenodd;stroke:#556270;stroke-width:1.79616702px;stroke-linecap:butt;stroke-linejoin:miter;stroke-opacity:1"
       d="m 275,423.37683 0,-17.96167"
       id="path10642-6"
       inkscape:connector-curvature="0" />
    <path
       id="path10627"
       style="fill:none;fill-rule:evenodd;stroke:#556270;stroke-width:1.79616702px;stroke-linecap:round;stroke-linejoin:round;stroke-opacity:1"
       d="m 230,405.41969 8.98083,-8.98083 M 230,432.3622 l 0,-26.94251 8.98083,0 0,-8.98083 155.92263,-3e-5 0,35.92333 z"
       inkscape:connector-curvature="0"
       sodipodi:nodetypes="ccccccccc" />
    <path
       style="opacity:1;fill:none;fill-opacity:1;stroke:#556270;stroke-width:1.796;stroke-linejoin:round;stroke-miterlimit:4;stroke-dasharray:none;stroke-dashoffset:0;stroke-opacity:1"
       d="m 213.70802,332.31309 -4.02458,5.88316 a 17.150166,17.150166 0 0 0 -6.36291,-2.65092 l 1.37931,-6.98388 a 24.277704,24.277704 0 0 0 -9.1679,-0.0297 l 1.30835,6.97454 a 17.150166,17.150166 0 0 0 -6.37874,2.60877 l -3.96032,-5.90992 a 24.277704,24.277704 0 0 0 -6.53916,6.4384 l 5.88317,4.02459 a 17.150166,17.150166 0 0 0 -2.65092,6.3629 l -6.99872,-1.38134 a 24.277704,24.277704 0 0 0 -0.0429,9.17518 l 7.00247,-1.3136 a 17.150166,17.150166 0 0 0 2.60878,6.37874 l -5.92429,3.96945 a 24.277704,24.277704 0 0 0 6.45278,6.53003 l 4.02457,-5.88318 a 17.150166,17.150166 0 0 0 6.3629,2.65093 l -1.38318,6.99746 a 24.277704,24.277704 0 0 0 9.17702,0.0442 l -1.31359,-7.00247 a 17.150166,17.150166 0 0 0 6.37875,-2.60877 l 3.96943,5.92427 a 24.277704,24.277704 0 0 0 6.53003,-6.45277 l -5.88318,-4.02457 a 17.150166,17.150166 0 0 0 2.65093,-6.3629 l 6.99748,1.38318 a 24.277704,24.277704 0 0 0 0.0441,-9.17702 l -7.00246,1.31359 a 17.150166,17.150166 0 0 0 -2.60878,-6.37875 l 5.92429,-3.96944 a 24.277704,24.277704 0 0 0 -6.45277,-6.53002 z m -9.63402,14.0831 a 7.2157066,7.2157066 0 0 1 1.8813,10.02882 7.2157066,7.2157066 0 0 1 -10.0288,1.88128 7.2157066,7.2157066 0 0 1 -1.88131,-10.0288 7.2157066,7.2157066 0 0 1 10.02881,-1.8813 z"
       id="path7198"
       inkscape:connector-curvature="0" />
    <path
       style="fill:none;fill-rule:evenodd;stroke:#556270;stroke-width:1.796;stroke-linecap:round;stroke-linejoin:round;stroke-miterlimit:4;stroke-dasharray:none;stroke-opacity:1"
       d="m 250,347.36221 0,9.99999"
       id="path14740"
       inkscape:connector-curvature="0" />
    <path
       style="fill:none;fill-rule:evenodd;stroke:#556270;stroke-width:1.796;stroke-linecap:round;stroke-linejoin:round;stroke-miterlimit:4;stroke-dasharray:none;stroke-opacity:1"
       d="m 265,347.36221 0,9.99999"
       id="path14740-1"
       inkscape:connector-curvature="0" />
    <path
       style="fill:none;fill-rule:evenodd;stroke:#556270;stroke-width:1.796;stroke-linecap:round;stroke-linejoin:round;stroke-miterlimit:4;stroke-dasharray:none;stroke-opacity:1"
       d="m 275,347.3622 0,10"
       id="path14740-1-3"
       inkscape:connector-curvature="0" />
    <path
       style="fill:none;fill-rule:evenodd;stroke:#556270;stroke-width:1.796;stroke-linecap:round;stroke-linejoin:round;stroke-miterlimit:4;stroke-dasharray:none;stroke-opacity:1"
       d="m 290,347.3622 0,10"
       id="path14740-1-6"
       inkscape:connector-curvature="0" />
    <path
       style="fill:none;fill-rule:evenodd;stroke:#556270;stroke-width:1.796;stroke-linecap:round;stroke-linejoin:round;stroke-miterlimit:4;stroke-dasharray:none;stroke-opacity:1"
       d="m 305,347.3622 0,10"
       id="path14740-1-30"
       inkscape:connector-curvature="0" />
    <path
       style="fill:none;fill-rule:evenodd;stroke:#556270;stroke-width:1.796;stroke-linecap:round;stroke-linejoin:round;stroke-miterlimit:4;stroke-dasharray:none;stroke-opacity:1"
       d="m 315,347.3622 0,10"
       id="path14740-1-4"
       inkscape:connector-curvature="0" />
    <path
       style="fill:none;fill-rule:evenodd;stroke:#556270;stroke-width:1.796;stroke-linecap:round;stroke-linejoin:round;stroke-miterlimit:4;stroke-dasharray:none;stroke-opacity:1"
       d="m 325,347.3622 0,10"
       id="path14740-1-31"
       inkscape:connector-curvature="0" />
    <path
       style="fill:none;fill-rule:evenodd;stroke:#556270;stroke-width:1.796;stroke-linecap:round;stroke-linejoin:round;stroke-miterlimit:4;stroke-dasharray:none;stroke-opacity:1"
       d="m 340,347.3622 0,10"
       id="path14740-1-8"
       inkscape:connector-curvature="0" />
    <path
       style="fill:none;fill-rule:evenodd;stroke:#556270;stroke-width:1.796;stroke-linecap:round;stroke-linejoin:round;stroke-miterlimit:4;stroke-dasharray:none;stroke-opacity:1"
       d="m 350,347.3622 0,10"
       id="path14740-1-0"
       inkscape:connector-curvature="0" />
    <path
       style="fill:none;fill-rule:evenodd;stroke:#556270;stroke-width:1.796;stroke-linecap:round;stroke-linejoin:round;stroke-miterlimit:4;stroke-dasharray:none;stroke-opacity:1"
       d="m 360,347.3622 0,10"
       id="path14740-1-1"
       inkscape:connector-curvature="0" />
    <path
       style="fill:none;fill-rule:evenodd;stroke:#556270;stroke-width:1.796;stroke-linecap:round;stroke-linejoin:round;stroke-miterlimit:4;stroke-dasharray:none;stroke-opacity:1"
       d="m 370,347.3622 0,10"
       id="path14740-1-06"
       inkscape:connector-curvature="0" />
    <path
       style="fill:none;fill-rule:evenodd;stroke:#556270;stroke-width:1.796;stroke-linecap:round;stroke-linejoin:round;stroke-miterlimit:4;stroke-dasharray:none;stroke-opacity:1"
       d="m 380,347.3622 0,10"
       id="path14740-1-9"
       inkscape:connector-curvature="0" />
    <text
       xml:space="preserve"
       style="font-style:normal;font-variant:normal;font-weight:normal;font-stretch:normal;font-size:17.50000191px;font-family:Averia;-inkscape-font-specification:Averia;text-align:start;text-anchor:start;opacity:1;fill:#556270;fill-opacity:1;stroke:none;stroke-width:1.796;stroke-linecap:round;stroke-linejoin:round;stroke-miterlimit:4;stroke-dasharray:none;stroke-dashoffset:0;stroke-opacity:1"
       x="400"
       y="357.36221"
       id="text14832"><tspan
         sodipodi:role="line"
         id="tspan14834"
         x="400"
         y="357.36221">temps</tspan></text>
    <path
       style="fill:none;fill-rule:evenodd;stroke:#556270;stroke-width:1.79616702px;stroke-linecap:butt;stroke-linejoin:miter;stroke-opacity:1"
       d="m 285,423.37683 0,-17.96167"
       id="path10642-6-6"
       inkscape:connector-curvature="0" />
    <path
       style="fill:none;fill-rule:evenodd;stroke:#556270;stroke-width:1.79616702px;stroke-linecap:butt;stroke-linejoin:miter;stroke-opacity:1"
       d="m 295,423.37683 0,-17.96167"
       id="path10642-6-7"
       inkscape:connector-curvature="0" />
    <path
       style="fill:none;fill-rule:evenodd;stroke:#556270;stroke-width:1.79616702px;stroke-linecap:butt;stroke-linejoin:miter;stroke-opacity:1"
       d="m 305,423.37683 0,-17.96167"
       id="path10642-6-3"
       inkscape:connector-curvature="0" />
    <path
       style="fill:none;fill-rule:evenodd;stroke:#556270;stroke-width:1.79616702px;stroke-linecap:butt;stroke-linejoin:miter;stroke-opacity:1"
       d="m 315,423.37683 0,-17.96167"
       id="path10642-6-75"
       inkscape:connector-curvature="0" />
    <path
       style="fill:none;fill-rule:evenodd;stroke:#556270;stroke-width:1.79616702px;stroke-linecap:butt;stroke-linejoin:miter;stroke-opacity:1"
       d="m 325,423.37683 0,-17.96167"
       id="path10642-6-30"
       inkscape:connector-curvature="0" />
    <path
       style="fill:none;fill-rule:evenodd;stroke:#556270;stroke-width:1.79616702px;stroke-linecap:butt;stroke-linejoin:miter;stroke-opacity:1"
       d="m 335,423.37683 0,-17.96167"
       id="path10642-6-0"
       inkscape:connector-curvature="0" />
    <path
       style="fill:none;fill-rule:evenodd;stroke:#556270;stroke-width:1.79616702px;stroke-linecap:butt;stroke-linejoin:miter;stroke-opacity:1"
       d="m 345,423.37683 0,-17.96167"
       id="path10642-6-79"
       inkscape:connector-curvature="0" />
    <path
       style="fill:none;fill-rule:evenodd;stroke:#556270;stroke-width:1.79616702px;stroke-linecap:butt;stroke-linejoin:miter;stroke-opacity:1"
       d="m 355,423.37683 0,-17.96167"
       id="path10642-6-8"
       inkscape:connector-curvature="0" />
    <path
       style="fill:none;fill-rule:evenodd;stroke:#556270;stroke-width:1.79616702px;stroke-linecap:butt;stroke-linejoin:miter;stroke-opacity:1"
       d="m 365,423.37683 0,-17.96167"
       id="path10642-6-4"
       inkscape:connector-curvature="0" />
    <path
       style="fill:none;fill-rule:evenodd;stroke:#556270;stroke-width:1.79616702px;stroke-linecap:butt;stroke-linejoin:miter;stroke-opacity:1"
       d="m 375,423.37683 0,-17.96167"
       id="path10642-6-83"
       inkscape:connector-curvature="0" />
    <path
       style="fill:none;fill-rule:evenodd;stroke:#556270;stroke-width:1.79616702px;stroke-linecap:butt;stroke-linejoin:miter;stroke-opacity:1"
       d="m 385,423.37683 0,-17.96167"
       id="path10642-6-1"
       inkscape:connector-curvature="0" />
    <path
       style="fill:none;fill-rule:evenodd;stroke:#4ecdc4;stroke-width:1.796;stroke-linecap:round;stroke-linejoin:round;stroke-miterlimit:4;stroke-dasharray:none;stroke-opacity:1"
       d="m 240,422.3622 15,0 10,0 10,0 23,0 0,-5 -26,0 0,-5 26,0 0,-5 -26,0 0,-5 23,0 7,0 0,15 6,0 2,-5 0,-20 12,0 0,25 16,0 0,-25 24,0 -10e-6,25.00001 6.00001,-1e-5 1.99999,-4.99999 0,-30 -109.99999,-1e-5 0,40"
       id="path7358-7-4"
       inkscape:connector-curvature="0"
       sodipodi:nodetypes="ccccccccccccccccccccccccccccc" />
    <path
       style="fill:none;fill-rule:evenodd;stroke:#4ecdc4;stroke-width:1.796;stroke-linecap:round;stroke-linejoin:round;stroke-miterlimit:4;stroke-dasharray:none;stroke-opacity:1;marker-end:url(#marker20256)"
       d="m 368,417.3622 1.99999,5.00001 20,0"
       id="path19900"
       inkscape:connector-curvature="0"
       sodipodi:nodetypes="ccc" />
    <path
       style="fill:none;fill-rule:evenodd;stroke:#4ecdc4;stroke-width:1.796;stroke-linecap:round;stroke-linejoin:round;stroke-miterlimit:4;stroke-dasharray:none;stroke-opacity:1"
       d="m 308,417.3622 2,5 8,0"
       id="path19900-0"
       inkscape:connector-curvature="0"
       sodipodi:nodetypes="ccc" />
    <path
       style="fill:none;fill-rule:evenodd;stroke:#4ecdc4;stroke-width:1.796;stroke-linecap:round;stroke-linejoin:round;stroke-miterlimit:4;stroke-dasharray:none;stroke-opacity:1;marker-end:url(#TriangleOutM-9)"
       d="m 240,352.3622 150,0"
       id="path7358-7"
       inkscape:connector-curvature="0"
       sodipodi:nodetypes="cc" />
    <text
       xml:space="preserve"
       style="font-style:normal;font-variant:normal;font-weight:normal;font-stretch:normal;font-size:17.50000191px;font-family:Averia;-inkscape-font-specification:Averia;text-align:start;text-anchor:start;opacity:1;fill:#556270;fill-opacity:1;stroke:none;stroke-width:1.796;stroke-linecap:round;stroke-linejoin:round;stroke-miterlimit:4;stroke-dasharray:none;stroke-dashoffset:0;stroke-opacity:1"
       x="400"
       y="417.36221"
       id="text14832-8"><tspan
         sodipodi:role="line"
         id="tspan14834-1"
         x="400"
         y="417.36221">espace</tspan></text>
  </g>
</svg>
