<?xml version="1.0" encoding="UTF-8" standalone="no"?>
<!DOCTYPE svg PUBLIC "-//W3C//DTD SVG 1.1//EN"
 "http://www.w3.org/Graphics/SVG/1.1/DTD/svg11.dtd">
<!-- Generated by graphviz version 2.36.0 (20140111.2315)
 -->
<!-- Title: %3 Pages: 1 -->
<svg width="445pt" height="562pt"
 viewBox="0.00 0.00 445.00 562.00" xmlns="http://www.w3.org/2000/svg" xmlns:xlink="http://www.w3.org/1999/xlink">
<g id="graph0" class="graph" transform="scale(1 1) rotate(0) translate(4 558)">
<title>%3</title>
<polygon fill="white" stroke="none" points="-4,4 -4,-558 441,-558 441,4 -4,4"/>
<!-- o0 -->
<g id="node1" class="node"><title>o0</title>
<polygon fill="none" stroke="black" points="75,-339 75,-385 163,-385 163,-339 75,-339"/>
<text text-anchor="middle" x="104" y="-369.8" font-family="Times,serif" font-size="14.00">object</text>
<polyline fill="none" stroke="black" points="133,-362 133,-385 "/>
<text text-anchor="middle" x="148" y="-369.8" font-family="Times,serif" font-size="14.00">•</text>
<polyline fill="none" stroke="black" points="75,-362 163,-362 "/>
<text text-anchor="middle" x="100" y="-346.8" font-family="Times,serif" font-size="14.00">parent</text>
<polyline fill="none" stroke="black" points="125,-339 125,-362 "/>
<text text-anchor="middle" x="144" y="-346.8" font-family="Times,serif" font-size="14.00">null</text>
</g>
<!-- o1 -->
<g id="node2" class="node"><title>o1</title>
<polygon fill="none" stroke="black" points="130,-265 130,-301 184,-301 184,-265 130,-265"/>
<text text-anchor="middle" x="145" y="-279.3" font-family="Times,serif" font-size="14.00">m</text>
<polyline fill="none" stroke="black" points="160,-265 160,-301 "/>
<text text-anchor="middle" x="172" y="-279.3" font-family="Times,serif" font-size="14.00">•</text>
</g>
<!-- o0&#45;&gt;o1 -->
<g id="edge11" class="edge"><title>o0:object&#45;&gt;o1</title>
<path fill="none" stroke="black" d="M164,-374C189.57,-374 179.704,-337.443 169.184,-310.927"/>
<polygon fill="black" stroke="black" points="172.271,-309.236 165.193,-301.353 165.81,-311.93 172.271,-309.236"/>
</g>
<!-- o9 -->
<g id="node10" class="node"><title>o9</title>
<polygon fill="none" stroke="black" points="56,-1 56,-37 164,-37 164,-1 56,-1"/>
<text text-anchor="middle" x="110" y="-15.3" font-family="Times,serif" font-size="14.00">Object.prototype</text>
</g>
<!-- o0&#45;&gt;o9 -->
<g id="edge1" class="edge"><title>o0&#45;&gt;o9</title>
<path fill="none" stroke="black" stroke-dasharray="5,2" d="M113.688,-338.575C107.752,-312.27 98.514,-267.261 95,-228 89.1905,-163.092 98.966,-86.6305 105.283,-46.9511"/>
<polygon fill="black" stroke="black" points="108.749,-47.4373 106.918,-37.0019 101.842,-46.3018 108.749,-47.4373"/>
</g>
<!-- o2 -->
<g id="node3" class="node"><title>o2</title>
<polygon fill="none" stroke="black" points="228,-175 228,-211 282,-211 282,-175 228,-175"/>
<text text-anchor="middle" x="242" y="-189.3" font-family="Times,serif" font-size="14.00">E</text>
<polyline fill="none" stroke="black" points="256,-175 256,-211 "/>
<text text-anchor="middle" x="269" y="-189.3" font-family="Times,serif" font-size="14.00">•</text>
</g>
<!-- o1&#45;&gt;o2 -->
<g id="edge10" class="edge"><title>o1:m&#45;&gt;o2</title>
<path fill="none" stroke="black" d="M172,-264C172,-238.039 198.204,-244.796 218,-228 221.713,-224.85 225.565,-221.457 229.32,-218.078"/>
<polygon fill="black" stroke="black" points="231.786,-220.566 236.814,-211.24 227.068,-215.395 231.786,-220.566"/>
</g>
<!-- o10 -->
<g id="node11" class="node"><title>o10</title>
<polygon fill="none" stroke="black" points="104,-175 104,-211 210,-211 210,-175 104,-175"/>
<text text-anchor="middle" x="157" y="-189.3" font-family="Times,serif" font-size="14.00">global.prototype</text>
</g>
<!-- o1&#45;&gt;o10 -->
<g id="edge2" class="edge"><title>o1&#45;&gt;o10</title>
<path fill="none" stroke="black" stroke-dasharray="5,2" d="M157,-264.614C157,-252.24 157,-235.369 157,-221.22"/>
<polygon fill="black" stroke="black" points="160.5,-221.05 157,-211.05 153.5,-221.05 160.5,-221.05"/>
</g>
<!-- o7 -->
<g id="node8" class="node"><title>o7</title>
<polygon fill="none" stroke="black" points="276,-80 276,-116 330,-116 330,-80 276,-80"/>
<text text-anchor="middle" x="289.5" y="-94.3" font-family="Times,serif" font-size="14.00">a</text>
<polyline fill="none" stroke="black" points="303,-80 303,-116 "/>
<text text-anchor="middle" x="316.5" y="-94.3" font-family="Times,serif" font-size="14.00">2</text>
</g>
<!-- o2&#45;&gt;o7 -->
<g id="edge9" class="edge"><title>o2:E&#45;&gt;o7</title>
<path fill="none" stroke="black" d="M269,-174C269,-156.526 276.751,-138.641 284.851,-124.721"/>
<polygon fill="black" stroke="black" points="287.846,-126.532 290.146,-116.19 281.898,-122.841 287.846,-126.532"/>
</g>
<!-- o2&#45;&gt;o9 -->
<g id="edge3" class="edge"><title>o2&#45;&gt;o9</title>
<path fill="none" stroke="black" stroke-dasharray="5,2" d="M240.139,-174.797C227.956,-160.662 210.291,-140.093 195,-122 172.8,-95.7335 147.606,-65.4387 130.448,-44.7324"/>
<polygon fill="black" stroke="black" points="133.139,-42.4949 124.066,-37.0252 127.748,-46.9595 133.139,-42.4949"/>
</g>
<!-- o3 -->
<g id="node4" class="node"><title>o3</title>
<polygon fill="none" stroke="black" points="58,-423 58,-469 130,-469 130,-423 58,-423"/>
<text text-anchor="middle" x="83" y="-453.8" font-family="Times,serif" font-size="14.00">object</text>
<polyline fill="none" stroke="black" points="108,-446 108,-469 "/>
<text text-anchor="middle" x="119" y="-453.8" font-family="Times,serif" font-size="14.00">•</text>
<polyline fill="none" stroke="black" points="58,-446 130,-446 "/>
<text text-anchor="middle" x="83" y="-430.8" font-family="Times,serif" font-size="14.00">parent</text>
<polyline fill="none" stroke="black" points="108,-423 108,-446 "/>
<text text-anchor="middle" x="119" y="-430.8" font-family="Times,serif" font-size="14.00">•</text>
</g>
<!-- o3&#45;&gt;o0 -->
<g id="edge16" class="edge"><title>o3:parent&#45;&gt;o0</title>
<path fill="none" stroke="black" d="M119,-422C119,-413.334 119,-403.952 119,-395.274"/>
<polygon fill="black" stroke="black" points="122.5,-395.133 119,-385.133 115.5,-395.134 122.5,-395.133"/>
</g>
<!-- o4 -->
<g id="node5" class="node"><title>o4</title>
<polygon fill="none" stroke="black" points="300,-158.5 300,-227.5 396,-227.5 396,-158.5 300,-158.5"/>
<text text-anchor="middle" x="337" y="-212.3" font-family="Times,serif" font-size="14.00">arguments</text>
<polyline fill="none" stroke="black" points="374,-204.5 374,-227.5 "/>
<text text-anchor="middle" x="385" y="-212.3" font-family="Times,serif" font-size="14.00">•</text>
<polyline fill="none" stroke="black" points="300,-204.5 396,-204.5 "/>
<text text-anchor="middle" x="324.5" y="-189.3" font-family="Times,serif" font-size="14.00">E</text>
<polyline fill="none" stroke="black" points="349,-181.5 349,-204.5 "/>
<text text-anchor="middle" x="372.5" y="-189.3" font-family="Times,serif" font-size="14.00">•</text>
<polyline fill="none" stroke="black" points="300,-181.5 396,-181.5 "/>
<text text-anchor="middle" x="324" y="-166.3" font-family="Times,serif" font-size="14.00">a</text>
<polyline fill="none" stroke="black" points="348,-158.5 348,-181.5 "/>
<text text-anchor="middle" x="372" y="-166.3" font-family="Times,serif" font-size="14.00">1</text>
</g>
<!-- o3&#45;&gt;o4 -->
<g id="edge15" class="edge"><title>o3:object&#45;&gt;o4</title>
<path fill="none" stroke="black" d="M131,-458C243.851,-458 308.801,-312.256 334.731,-237.346"/>
<polygon fill="black" stroke="black" points="338.103,-238.298 337.988,-227.704 331.471,-236.058 338.103,-238.298"/>
</g>
<!-- o3&#45;&gt;o9 -->
<g id="edge4" class="edge"><title>o3&#45;&gt;o9</title>
<path fill="none" stroke="black" stroke-dasharray="5,2" d="M81.0117,-422.918C64.4688,-392.651 38,-336.085 38,-284 38,-284 38,-284 38,-192 38,-136.371 70.4429,-77.923 91.7732,-45.5068"/>
<polygon fill="black" stroke="black" points="94.7681,-47.3256 97.4586,-37.0781 88.9649,-43.4112 94.7681,-47.3256"/>
</g>
<!-- o5 -->
<g id="node6" class="node"><title>o5</title>
<polygon fill="none" stroke="black" points="204,-80 204,-116 258,-116 258,-80 204,-80"/>
<text text-anchor="middle" x="231" y="-94.3" font-family="Times,serif" font-size="14.00"> </text>
</g>
<!-- o4&#45;&gt;o5 -->
<g id="edge5" class="edge"><title>o4&#45;&gt;o5</title>
<path fill="none" stroke="black" stroke-dasharray="5,2" d="M305.76,-158.425C290.8,-146.533 274.298,-133.416 260.612,-122.538"/>
<polygon fill="black" stroke="black" points="262.5,-119.567 252.494,-116.085 258.144,-125.047 262.5,-119.567"/>
</g>
<!-- o6 -->
<g id="node7" class="node"><title>o6</title>
<polygon fill="none" stroke="black" points="348.5,-75 348.5,-121 421.5,-121 421.5,-75 348.5,-75"/>
<text text-anchor="middle" x="373.5" y="-105.8" font-family="Times,serif" font-size="14.00">length</text>
<polyline fill="none" stroke="black" points="398.5,-98 398.5,-121 "/>
<text text-anchor="middle" x="410" y="-105.8" font-family="Times,serif" font-size="14.00">0</text>
<polyline fill="none" stroke="black" points="348.5,-98 421.5,-98 "/>
<text text-anchor="middle" x="373" y="-82.8" font-family="Times,serif" font-size="14.00">callee</text>
<polyline fill="none" stroke="black" points="397.5,-75 397.5,-98 "/>
<text text-anchor="middle" x="409.5" y="-82.8" font-family="Times,serif" font-size="14.00">•</text>
</g>
<!-- o4&#45;&gt;o6 -->
<g id="edge13" class="edge"><title>o4:arguments&#45;&gt;o6</title>
<path fill="none" stroke="black" d="M397,-216C431.529,-216 415.206,-164.949 400.145,-130.291"/>
<polygon fill="black" stroke="black" points="403.265,-128.694 395.974,-121.007 396.879,-131.563 403.265,-128.694"/>
</g>
<!-- o4&#45;&gt;o7 -->
<g id="edge14" class="edge"><title>o4:E&#45;&gt;o7</title>
<path fill="none" stroke="black" d="M397,-193C412.562,-193 403.692,-171.528 396,-158 395.565,-157.235 364.822,-137.805 338.804,-121.45"/>
<polygon fill="black" stroke="black" points="340.542,-118.408 330.212,-116.053 336.818,-124.336 340.542,-118.408"/>
</g>
<!-- o6&#45;&gt;o9 -->
<g id="edge6" class="edge"><title>o6&#45;&gt;o9</title>
<path fill="none" stroke="black" stroke-dasharray="5,2" d="M348.424,-77.7733C345.275,-76.4059 342.106,-75.1254 339,-74 284.795,-54.3601 220.75,-39.962 174.193,-30.9958"/>
<polygon fill="black" stroke="black" points="174.714,-27.5324 164.237,-29.1099 173.411,-34.4101 174.714,-27.5324"/>
</g>
<!-- o11 -->
<g id="node12" class="node"><title>o11</title>
<polygon fill="none" stroke="black" points="383,-1 383,-37 437,-37 437,-1 383,-1"/>
<text text-anchor="middle" x="410" y="-15.3" font-family="Times,serif" font-size="14.00">o11</text>
</g>
<!-- o6&#45;&gt;o11 -->
<g id="edge12" class="edge"><title>o6:callee&#45;&gt;o11</title>
<path fill="none" stroke="black" d="M410,-74C410,-65.2988 410,-55.809 410,-47.2461"/>
<polygon fill="black" stroke="black" points="413.5,-47.0245 410,-37.0246 406.5,-47.0246 413.5,-47.0245"/>
</g>
<!-- o7&#45;&gt;o9 -->
<g id="edge7" class="edge"><title>o7&#45;&gt;o9</title>
<path fill="none" stroke="black" stroke-dasharray="5,2" d="M277.866,-79.8916C274.293,-77.772 270.606,-75.7417 267,-74 237.384,-59.6975 202.979,-47.417 173.938,-38.1974"/>
<polygon fill="black" stroke="black" points="174.898,-34.8306 164.309,-35.1896 172.811,-41.5122 174.898,-34.8306"/>
</g>
<!-- o8 -->
<g id="node9" class="node"><title>o8</title>
<polygon fill="none" stroke="black" points="33,-507 33,-553 105,-553 105,-507 33,-507"/>
<text text-anchor="middle" x="58" y="-537.8" font-family="Times,serif" font-size="14.00">object</text>
<polyline fill="none" stroke="black" points="83,-530 83,-553 "/>
<text text-anchor="middle" x="94" y="-537.8" font-family="Times,serif" font-size="14.00">•</text>
<polyline fill="none" stroke="black" points="33,-530 105,-530 "/>
<text text-anchor="middle" x="58" y="-514.8" font-family="Times,serif" font-size="14.00">parent</text>
<polyline fill="none" stroke="black" points="83,-507 83,-530 "/>
<text text-anchor="middle" x="94" y="-514.8" font-family="Times,serif" font-size="14.00">•</text>
</g>
<!-- o8&#45;&gt;o3 -->
<g id="edge18" class="edge"><title>o8:parent&#45;&gt;o3</title>
<path fill="none" stroke="black" d="M94,-506C94,-497.334 94,-487.952 94,-479.274"/>
<polygon fill="black" stroke="black" points="97.5001,-479.133 94,-469.133 90.5001,-479.134 97.5001,-479.133"/>
</g>
<!-- o8&#45;&gt;o7 -->
<g id="edge17" class="edge"><title>o8:object&#45;&gt;o7</title>
<path fill="none" stroke="black" d="M106,-542C268.186,-542 424,-525.186 424,-363 424,-363 424,-363 424,-282 424,-226.246 436.872,-203.746 405,-158 386.122,-130.904 368.477,-138.722 340,-122 339.707,-121.828 339.412,-121.654 339.116,-121.48"/>
<polygon fill="black" stroke="black" points="340.76,-118.384 330.385,-116.237 337.156,-124.386 340.76,-118.384"/>
</g>
<!-- o8&#45;&gt;o9 -->
<g id="edge8" class="edge"><title>o8&#45;&gt;o9</title>
<path fill="none" stroke="black" stroke-dasharray="5,2" d="M53.17,-506.853C32.7988,-476.121 0,-418.086 0,-363 0,-363 0,-363 0,-192 0,-135.042 16.9336,-120.377 50,-74 57.8961,-62.9252 68.429,-52.4863 78.4644,-43.7928"/>
<polygon fill="black" stroke="black" points="80.9103,-46.3104 86.3461,-37.2163 76.4256,-40.9357 80.9103,-46.3104"/>
</g>
</g>
</svg>
