<?xml version="1.0" encoding="UTF-8" standalone="no"?>
<!-- Created with Inkscape (http://www.inkscape.org/) -->

<svg
   xmlns:dc="http://purl.org/dc/elements/1.1/"
   xmlns:cc="http://creativecommons.org/ns#"
   xmlns:rdf="http://www.w3.org/1999/02/22-rdf-syntax-ns#"
   xmlns:svg="http://www.w3.org/2000/svg"
   xmlns="http://www.w3.org/2000/svg"
   xmlns:sodipodi="http://sodipodi.sourceforge.net/DTD/sodipodi-0.dtd"
   xmlns:inkscape="http://www.inkscape.org/namespaces/inkscape"
   width="44.514511mm"
   height="44.246151mm"
   viewBox="0 0 157.72859 156.7777"
   id="svg5750"
   version="1.1"
   inkscape:version="0.91 r"
   sodipodi:docname="naur-theory.svg">
  <defs
     id="defs5752" />
  <sodipodi:namedview
     id="base"
     pagecolor="#ffffff"
     bordercolor="#666666"
     borderopacity="1.0"
     inkscape:pageopacity="0.0"
     inkscape:pageshadow="2"
     inkscape:zoom="3.959798"
     inkscape:cx="104.15658"
     inkscape:cy="67.791202"
     inkscape:document-units="px"
     inkscape:current-layer="layer1"
     showgrid="true"
     fit-margin-top="0"
     fit-margin-left="0"
     fit-margin-right="0"
     fit-margin-bottom="0"
     inkscape:window-width="1918"
     inkscape:window-height="1198"
     inkscape:window-x="1366"
     inkscape:window-y="0"
     inkscape:window-maximized="0"
     inkscape:snap-object-midpoints="true"
     inkscape:object-nodes="true">
    <inkscape:grid
       type="xygrid"
       id="grid6298"
       originx="-179.10193"
       originy="-699.10195" />
  </sodipodi:namedview>
  <metadata
     id="metadata5755">
    <rdf:RDF>
      <cc:Work
         rdf:about="">
        <dc:format>image/svg+xml</dc:format>
        <dc:type
           rdf:resource="http://purl.org/dc/dcmitype/StillImage" />
        <dc:title></dc:title>
      </cc:Work>
    </rdf:RDF>
  </metadata>
  <g
     inkscape:label="Layer 1"
     inkscape:groupmode="layer"
     id="layer1"
     transform="translate(-179.10193,-196.48258)">
    <path
       style="opacity:1;fill:none;fill-opacity:1;stroke:#556270;stroke-width:1.79616702;stroke-linejoin:round;stroke-miterlimit:4;stroke-dasharray:none;stroke-dashoffset:0;stroke-opacity:1"
       d="m 262.86455,197.38066 a 6.2326893,5.5376877 0 0 0 -4.75626,1.96087 6.2326893,5.5376877 0 0 0 -3.21572,-0.8027 6.2326893,5.5376877 0 0 0 -5.51219,2.95685 6.2326893,5.5376877 0 0 0 -2.89541,-0.63746 6.2326893,5.5376877 0 0 0 -6.17196,4.80922 6.2326893,5.5376877 0 0 0 -1.50856,-0.17421 6.2326893,5.5376877 0 0 0 -6.22321,5.33586 6.2326893,5.5376877 0 0 0 -4.64741,5.35294 6.2326893,5.5376877 0 0 0 0.34271,1.79007 6.2326893,5.5376877 0 0 0 -3.09721,4.77762 6.2326893,5.5376877 0 0 0 1.12105,3.16196 6.2326893,5.5376877 0 0 0 -1.70075,3.79334 6.2326893,5.5376877 0 0 0 3.35985,4.90856 6.2326893,5.5376877 0 0 0 -0.17297,1.2724 6.2326893,5.5376877 0 0 0 3.94915,5.14494 6.2326893,5.5376877 0 0 0 -0.17943,1.29486 6.2326893,5.5376877 0 0 0 6.04389,5.52933 6.2326893,5.5376877 0 0 0 5.84204,3.61406 6.2326893,5.5376877 0 0 0 1.1883,-0.10595 6.2326893,5.5376877 0 0 0 5.04455,2.29371 6.2326893,5.5376877 0 0 0 1.36761,-0.1419 6.2326893,5.5376877 0 0 0 4.86519,2.07458 6.2326893,5.5376877 0 0 0 1.81605,-0.2477 6.2326893,5.5376877 0 0 0 3.9812,1.27798 6.2326893,5.5376877 0 0 0 3.15805,-0.77146 6.2326893,5.5376877 0 0 0 3.79861,1.15835 6.2326893,5.5376877 0 0 0 3.38547,-0.89072 6.2326893,5.5376877 0 0 0 3.13882,0.76265 6.2326893,5.5376877 0 0 0 5.01253,-2.2594 6.2326893,5.5376877 0 0 0 2.08829,0.32709 6.2326893,5.5376877 0 0 0 5.35843,-2.72048 6.2326893,5.5376877 0 0 0 2.3253,0.40127 6.2326893,5.5376877 0 0 0 5.7908,-3.50594 6.2326893,5.5376877 0 0 0 1.45415,0.15985 6.2326893,5.5376877 0 0 0 6.2328,-5.53758 6.2326893,5.5376877 0 0 0 -0.0449,-0.6089 6.2326893,5.5376877 0 0 0 5.11824,-5.44401 6.2326893,5.5376877 0 0 0 -1.14347,-3.18711 6.2326893,5.5376877 0 0 0 2.88264,-4.67004 6.2326893,5.5376877 0 0 0 -2.27086,-4.27146 6.2326893,5.5376877 0 0 0 1.25876,-3.3265 6.2326893,5.5376877 0 0 0 -3.47194,-4.9576 6.2326893,5.5376877 0 0 0 0.42598,-1.99752 6.2326893,5.5376877 0 0 0 -5.07981,-5.43825 6.2326893,5.5376877 0 0 0 0.008,-0.0988 6.2326893,5.5376877 0 0 0 -6.23285,-5.53777 6.2326893,5.5376877 0 0 0 -1.63985,0.19614 6.2326893,5.5376877 0 0 0 -5.7524,-3.41469 6.2326893,5.5376877 0 0 0 -2.42136,0.44096 6.2326893,5.5376877 0 0 0 -5.55063,-3.0163 6.2326893,5.5376877 0 0 0 -3.55521,0.99867 6.2326893,5.5376877 0 0 0 -4.56089,-1.77283 6.2326893,5.5376877 0 0 0 -4.11892,1.39168 6.2326893,5.5376877 0 0 0 -4.43282,-1.6478 z"
       id="path5507"
       inkscape:connector-curvature="0" />
    <path
       style="opacity:1;fill:none;fill-opacity:1;stroke:#556270;stroke-width:1.79616702;stroke-linejoin:round;stroke-miterlimit:4;stroke-dasharray:none;stroke-dashoffset:0;stroke-opacity:1"
       d="m 211.22244,273.9588 c -9.44915,0 -17.1092,7.66012 -17.1092,17.1092 0,6.43872 3.56001,12.03899 8.81594,14.95867 -13.21726,5.59398 -22.9292,24.21323 -22.92917,46.33554 l 62.44485,0 c 3e-5,-22.12231 -9.71191,-40.74156 -22.92918,-46.33554 5.25594,-2.91968 8.81595,-8.51995 8.81595,-14.95867 0,-9.44908 -7.66005,-17.1092 -17.10919,-17.1092 z"
       id="path10615"
       inkscape:connector-curvature="0" />
    <path
       id="path10627-3"
       style="fill:none;fill-rule:evenodd;stroke:#556270;stroke-width:1.79616702px;stroke-linecap:round;stroke-linejoin:round;stroke-opacity:1"
       d="m 321.94254,302.3622 8.98083,8.98083 m -35.92335,-3.98082 0,-5.00001 26.94252,0 0,8.98083 8.98083,0 3e-5,35.97091 -4.92338,0"
       inkscape:connector-curvature="0"
       sodipodi:nodetypes="ccccccccc" />
    <path
       style="fill:none;fill-rule:evenodd;stroke:#556270;stroke-width:1.79616702px;stroke-linecap:butt;stroke-linejoin:miter;stroke-opacity:1"
       d="m 298.98539,322.36221 17.96167,0"
       id="path10642"
       inkscape:connector-curvature="0" />
    <path
       style="fill:none;fill-rule:evenodd;stroke:#556270;stroke-width:1.79616702px;stroke-linecap:butt;stroke-linejoin:miter;stroke-opacity:1"
       d="m 298.98539,332.36221 17.96167,0"
       id="path10642-2"
       inkscape:connector-curvature="0" />
    <path
       style="fill:none;fill-rule:evenodd;stroke:#556270;stroke-width:1.79616702px;stroke-linecap:butt;stroke-linejoin:miter;stroke-opacity:1"
       d="m 298.98539,342.36221 17.96167,0"
       id="path10642-6"
       inkscape:connector-curvature="0" />
    <path
       style="opacity:1;fill:#4ecdc4;fill-opacity:1;stroke:#556270;stroke-width:0.89808351;stroke-linecap:round;stroke-linejoin:round;stroke-miterlimit:4;stroke-dasharray:none;stroke-dashoffset:0;stroke-opacity:1"
       d="m 260.40654,226.63051 0,8.98084 -8.98084,0 0,8.98083 26.9425,0 0,-8.98083 -8.98084,0 0,-8.98084 -8.98082,0 z"
       id="rect10703"
       inkscape:connector-curvature="0" />
    <rect
       style="opacity:1;fill:#ff6b6b;fill-opacity:1;stroke:#556270;stroke-width:0.89808351;stroke-linecap:round;stroke-linejoin:round;stroke-miterlimit:4;stroke-dasharray:none;stroke-dashoffset:0;stroke-opacity:1"
       id="rect10707"
       width="8.980835"
       height="35.92334"
       x="242.44487"
       y="208.66884" />
    <path
       style="opacity:1;fill:#c7f464;fill-opacity:1;stroke:#556270;stroke-width:0.89808351;stroke-linecap:round;stroke-linejoin:round;stroke-miterlimit:4;stroke-dasharray:none;stroke-dashoffset:0;stroke-opacity:1"
       d="m 260.40654,208.66885 0,8.98083 -8.98084,0 0,17.96167 8.98084,0 0,-8.98084 8.98082,0 0,-17.96166 -8.98082,0 z"
       id="rect10709"
       inkscape:connector-curvature="0" />
    <path
       inkscape:connector-curvature="0"
       style="opacity:1;fill:#c7f464;fill-opacity:1;stroke:#556270;stroke-width:0.89808351;stroke-linecap:round;stroke-linejoin:round;stroke-miterlimit:4;stroke-dasharray:none;stroke-dashoffset:0;stroke-opacity:1"
       d="m 269.38736,226.63051 0,8.98084 8.98084,0 0,8.98083 17.96168,0 0,-8.98083 -8.98084,0 0,-8.98084 -17.96168,0 z"
       id="rect10715" />
    <circle
       style="opacity:1;fill:none;fill-opacity:1;stroke:#556270;stroke-width:1.79616702;stroke-linejoin:round;stroke-miterlimit:4;stroke-dasharray:none;stroke-dashoffset:0;stroke-opacity:1"
       id="path5509"
       cx="226.98915"
       cy="273.60754"
       r="2.704365" />
    <circle
       style="opacity:1;fill:none;fill-opacity:1;stroke:#556270;stroke-width:1.79616702;stroke-linejoin:round;stroke-miterlimit:4;stroke-dasharray:none;stroke-dashoffset:0;stroke-opacity:1"
       id="path5513"
       cx="234.40366"
       cy="267.52881"
       r="3.3191216" />
    <circle
       style="opacity:1;fill:none;fill-opacity:1;stroke:#556270;stroke-width:1.79616702;stroke-linejoin:round;stroke-miterlimit:4;stroke-dasharray:none;stroke-dashoffset:0;stroke-opacity:1"
       id="path5513-6"
       cx="242.50504"
       cy="259.61905"
       r="4.3713923" />
    <path
       id="path10627"
       style="fill:none;fill-rule:evenodd;stroke:#556270;stroke-width:1.79616702px;stroke-linecap:round;stroke-linejoin:round;stroke-opacity:1"
       d="m 316.94253,307.36221 8.98083,8.98083 m -35.92334,-8.98083 26.94251,0 0,8.98083 8.98083,0 3e-5,35.92263 -35.92333,0 z"
       inkscape:connector-curvature="0" />
    <path
       id="path10627-3-6"
       style="fill:none;fill-rule:evenodd;stroke:#556270;stroke-width:1.79616702px;stroke-linecap:round;stroke-linejoin:round;stroke-opacity:1"
       d="m 326.94255,297.3622 8.98083,8.98083 m -35.92336,-3.98082 0,-5.00001 26.94253,0 0,8.98083 8.98083,0 3e-5,35.97091 -4.92338,0"
       inkscape:connector-curvature="0"
       sodipodi:nodetypes="ccccccccc" />
  </g>
</svg>
