<?xml version="1.0" encoding="UTF-8"?>
<svg xmlns="http://www.w3.org/2000/svg" xmlns:xlink="http://www.w3.org/1999/xlink" width="282pt" height="232pt" viewBox="0 0 282 232" version="1.1">
<g id="surface3">
<path style=" stroke:none;fill-rule:nonzero;fill:rgb(66.27451%,77.254902%,88.627451%);fill-opacity:1;" d="M 0 12.363281 L 35.136719 12.363281 L 35.136719 20.019531 L 0 20.019531 Z M 0 12.363281 "/>
<path style=" stroke:none;fill-rule:nonzero;fill:rgb(66.27451%,77.254902%,88.627451%);fill-opacity:1;" d="M 0 41.28125 L 35.136719 41.28125 L 35.136719 42.984375 L 0 42.984375 Z M 0 41.28125 "/>
<path style=" stroke:none;fill-rule:nonzero;fill:rgb(93.333333%,93.333333%,92.156863%);fill-opacity:1;" d="M 0 42.980469 L 35.136719 42.980469 L 35.136719 48.9375 L 0 48.9375 Z M 0 42.980469 "/>
<path style=" stroke:none;fill-rule:nonzero;fill:rgb(66.27451%,77.254902%,88.627451%);fill-opacity:1;" d="M 0 48.9375 L 35.136719 48.9375 L 35.136719 49.785156 L 0 49.785156 Z M 0 48.9375 "/>
<path style=" stroke:none;fill-rule:nonzero;fill:rgb(93.333333%,93.333333%,92.156863%);fill-opacity:1;" d="M 0 59.992188 L 35.136719 59.992188 L 35.136719 69.355469 L 0 69.355469 Z M 0 59.992188 "/>
<path style=" stroke:none;fill-rule:nonzero;fill:rgb(66.27451%,77.254902%,88.627451%);fill-opacity:1;" d="M 0 69.347656 L 35.136719 69.347656 L 35.136719 71.050781 L 0 71.050781 Z M 0 69.347656 "/>
<path style=" stroke:none;fill-rule:nonzero;fill:rgb(93.333333%,93.333333%,92.156863%);fill-opacity:1;" d="M 0 71.050781 L 35.136719 71.050781 L 35.136719 82.964844 L 0 82.964844 Z M 0 71.050781 "/>
<path style=" stroke:none;fill-rule:nonzero;fill:rgb(93.333333%,93.333333%,92.156863%);fill-opacity:1;" d="M 0 95.714844 L 35.136719 95.714844 L 35.136719 121.246094 L 0 121.246094 Z M 0 95.714844 "/>
<path style=" stroke:none;fill-rule:nonzero;fill:rgb(66.27451%,77.254902%,88.627451%);fill-opacity:1;" d="M 0 121.234375 L 35.136719 121.234375 L 35.136719 127.191406 L 0 127.191406 Z M 0 121.234375 "/>
<path style=" stroke:none;fill-rule:nonzero;fill:rgb(66.27451%,77.254902%,88.627451%);fill-opacity:1;" d="M 0 130.589844 L 35.136719 130.589844 L 35.136719 137.394531 L 0 137.394531 Z M 0 130.589844 "/>
<path style=" stroke:none;fill-rule:nonzero;fill:rgb(93.333333%,93.333333%,92.156863%);fill-opacity:1;" d="M 0 137.394531 L 35.136719 137.394531 L 35.136719 139.09375 L 0 139.09375 Z M 0 137.394531 "/>
<path style=" stroke:none;fill-rule:nonzero;fill:rgb(66.27451%,77.254902%,88.627451%);fill-opacity:1;" d="M 0 139.09375 L 35.136719 139.09375 L 35.136719 140.796875 L 0 140.796875 Z M 0 139.09375 "/>
<path style=" stroke:none;fill-rule:nonzero;fill:rgb(66.27451%,77.254902%,88.627451%);fill-opacity:1;" d="M 0 154.40625 L 0 230.96875 L 35.136719 230.96875 L 35.136719 154.40625 Z M 0 154.40625 "/>
<path style=" stroke:none;fill-rule:nonzero;fill:rgb(93.333333%,93.333333%,92.156863%);fill-opacity:1;" d="M 40.847656 3.007812 L 75.984375 3.007812 L 75.984375 41.300781 L 40.847656 41.300781 Z M 40.847656 3.007812 "/>
<path style=" stroke:none;fill-rule:nonzero;fill:rgb(66.27451%,77.254902%,88.627451%);fill-opacity:1;" d="M 40.847656 41.28125 L 75.984375 41.28125 L 75.984375 43.832031 L 40.847656 43.832031 Z M 40.847656 41.28125 "/>
<path style=" stroke:none;fill-rule:nonzero;fill:rgb(93.333333%,93.333333%,92.156863%);fill-opacity:1;" d="M 40.847656 43.832031 L 75.984375 43.832031 L 75.984375 82.976562 L 40.847656 82.976562 Z M 40.847656 43.832031 "/>
<path style=" stroke:none;fill-rule:nonzero;fill:rgb(66.27451%,77.254902%,88.627451%);fill-opacity:1;" d="M 40.847656 82.957031 L 75.984375 82.957031 L 75.984375 84.660156 L 40.847656 84.660156 Z M 40.847656 82.957031 "/>
<path style=" stroke:none;fill-rule:nonzero;fill:rgb(93.333333%,93.333333%,92.156863%);fill-opacity:1;" d="M 40.847656 84.660156 L 75.984375 84.660156 L 75.984375 112.742188 L 40.847656 112.742188 Z M 40.847656 84.660156 "/>
<path style=" stroke:none;fill-rule:nonzero;fill:rgb(66.27451%,77.254902%,88.627451%);fill-opacity:1;" d="M 40.847656 112.726562 L 75.984375 112.726562 L 75.984375 132.300781 L 40.847656 132.300781 Z M 40.847656 112.726562 "/>
<path style=" stroke:none;fill-rule:nonzero;fill:rgb(93.333333%,93.333333%,92.156863%);fill-opacity:1;" d="M 40.847656 132.289062 L 75.984375 132.289062 L 75.984375 143.351562 L 40.847656 143.351562 Z M 40.847656 132.289062 "/>
<path style=" stroke:none;fill-rule:nonzero;fill:rgb(66.27451%,77.254902%,88.627451%);fill-opacity:1;" d="M 40.847656 143.347656 L 75.984375 143.347656 L 75.984375 161.21875 L 40.847656 161.21875 Z M 40.847656 143.347656 "/>
<path style=" stroke:none;fill-rule:nonzero;fill:rgb(93.333333%,93.333333%,92.156863%);fill-opacity:1;" d="M 40.847656 161.207031 L 75.984375 161.207031 L 75.984375 230.988281 L 40.847656 230.988281 Z M 40.847656 161.207031 "/>
<path style=" stroke:none;fill-rule:nonzero;fill:rgb(93.333333%,93.333333%,92.156863%);fill-opacity:1;" d="M 81.695312 0.453125 L 116.832031 0.453125 L 116.832031 2.15625 L 81.695312 2.15625 Z M 81.695312 0.453125 "/>
<path style=" stroke:none;fill-rule:nonzero;fill:rgb(66.27451%,77.254902%,88.627451%);fill-opacity:1;" d="M 81.695312 2.15625 L 116.832031 2.15625 L 116.832031 3.859375 L 81.695312 3.859375 Z M 81.695312 2.15625 "/>
<path style=" stroke:none;fill-rule:nonzero;fill:rgb(93.333333%,93.333333%,92.156863%);fill-opacity:1;" d="M 81.695312 3.855469 L 116.832031 3.855469 L 116.832031 92.359375 L 81.695312 92.359375 Z M 81.695312 3.855469 "/>
<path style=" stroke:none;fill-rule:nonzero;fill:rgb(66.27451%,77.254902%,88.627451%);fill-opacity:1;" d="M 81.695312 92.3125 L 116.832031 92.3125 L 116.832031 101.675781 L 81.695312 101.675781 Z M 81.695312 92.3125 "/>
<path style=" stroke:none;fill-rule:nonzero;fill:rgb(93.333333%,93.333333%,92.156863%);fill-opacity:1;" d="M 81.695312 101.667969 L 116.832031 101.667969 L 116.832031 107.625 L 81.695312 107.625 Z M 81.695312 101.667969 "/>
<path style=" stroke:none;fill-rule:nonzero;fill:rgb(66.27451%,77.254902%,88.627451%);fill-opacity:1;" d="M 81.695312 107.625 L 116.832031 107.625 L 116.832031 109.324219 L 81.695312 109.324219 Z M 81.695312 107.625 "/>
<path style=" stroke:none;fill-rule:nonzero;fill:rgb(93.333333%,93.333333%,92.156863%);fill-opacity:1;" d="M 81.695312 109.324219 L 116.832031 109.324219 L 116.832031 122.089844 L 81.695312 122.089844 Z M 81.695312 109.324219 "/>
<path style=" stroke:none;fill-rule:nonzero;fill:rgb(66.27451%,77.254902%,88.627451%);fill-opacity:1;" d="M 81.695312 122.082031 L 116.832031 122.082031 L 116.832031 123.785156 L 81.695312 123.785156 Z M 81.695312 122.082031 "/>
<path style=" stroke:none;fill-rule:nonzero;fill:rgb(93.333333%,93.333333%,92.156863%);fill-opacity:1;" d="M 81.695312 123.785156 L 116.832031 123.785156 L 116.832031 144.207031 L 81.695312 144.207031 Z M 81.695312 123.785156 "/>
<path style=" stroke:none;fill-rule:nonzero;fill:rgb(66.27451%,77.254902%,88.627451%);fill-opacity:1;" d="M 81.695312 144.195312 L 116.832031 144.195312 L 116.832031 145.898438 L 81.695312 145.898438 Z M 81.695312 144.195312 "/>
<path style=" stroke:none;fill-rule:nonzero;fill:rgb(93.333333%,93.333333%,92.156863%);fill-opacity:1;" d="M 81.695312 145.898438 L 116.832031 145.898438 L 116.832031 147.601562 L 81.695312 147.601562 Z M 81.695312 145.898438 "/>
<path style=" stroke:none;fill-rule:nonzero;fill:rgb(66.27451%,77.254902%,88.627451%);fill-opacity:1;" d="M 81.695312 147.597656 L 116.832031 147.597656 L 116.832031 169.726562 L 81.695312 169.726562 Z M 81.695312 147.597656 "/>
<path style=" stroke:none;fill-rule:nonzero;fill:rgb(93.333333%,93.333333%,92.156863%);fill-opacity:1;" d="M 81.695312 169.714844 L 116.832031 169.714844 L 116.832031 177.371094 L 81.695312 177.371094 Z M 81.695312 169.714844 "/>
<path style=" stroke:none;fill-rule:nonzero;fill:rgb(66.27451%,77.254902%,88.627451%);fill-opacity:1;" d="M 81.695312 177.367188 L 116.832031 177.367188 L 116.832031 179.070312 L 81.695312 179.070312 Z M 81.695312 177.367188 "/>
<path style=" stroke:none;fill-rule:nonzero;fill:rgb(93.333333%,93.333333%,92.156863%);fill-opacity:1;" d="M 81.695312 179.070312 L 116.832031 179.070312 L 116.832031 186.730469 L 81.695312 186.730469 Z M 81.695312 179.070312 "/>
<path style=" stroke:none;fill-rule:nonzero;fill:rgb(66.27451%,77.254902%,88.627451%);fill-opacity:1;" d="M 81.695312 186.722656 L 116.832031 186.722656 L 116.832031 188.425781 L 81.695312 188.425781 Z M 81.695312 186.722656 "/>
<path style=" stroke:none;fill-rule:nonzero;fill:rgb(93.333333%,93.333333%,92.156863%);fill-opacity:1;" d="M 81.695312 188.425781 L 116.832031 188.425781 L 116.832031 197.785156 L 81.695312 197.785156 Z M 81.695312 188.425781 "/>
<path style=" stroke:none;fill-rule:nonzero;fill:rgb(66.27451%,77.254902%,88.627451%);fill-opacity:1;" d="M 81.695312 197.78125 L 116.832031 197.78125 L 116.832031 219.054688 L 81.695312 219.054688 Z M 81.695312 197.78125 "/>
<path style=" stroke:none;fill-rule:nonzero;fill:rgb(93.333333%,93.333333%,92.156863%);fill-opacity:1;" d="M 81.695312 219.046875 L 116.832031 219.046875 L 116.832031 230.960938 L 81.695312 230.960938 Z M 81.695312 219.046875 "/>
<path style=" stroke:none;fill-rule:nonzero;fill:rgb(93.333333%,93.333333%,92.156863%);fill-opacity:1;" d="M 122.542969 0.453125 L 157.679688 0.453125 L 157.679688 8.113281 L 122.542969 8.113281 Z M 122.542969 0.453125 "/>
<path style=" stroke:none;fill-rule:nonzero;fill:rgb(66.27451%,77.254902%,88.627451%);fill-opacity:1;" d="M 122.542969 8.109375 L 157.679688 8.109375 L 157.679688 9.8125 L 122.542969 9.8125 Z M 122.542969 8.109375 "/>
<path style=" stroke:none;fill-rule:nonzero;fill:rgb(93.333333%,93.333333%,92.156863%);fill-opacity:1;" d="M 122.542969 9.808594 L 157.679688 9.808594 L 157.679688 21.722656 L 122.542969 21.722656 Z M 122.542969 9.808594 "/>
<path style=" stroke:none;fill-rule:nonzero;fill:rgb(66.27451%,77.254902%,88.627451%);fill-opacity:1;" d="M 122.542969 21.71875 L 157.679688 21.71875 L 157.679688 23.417969 L 122.542969 23.417969 Z M 122.542969 21.71875 "/>
<path style=" stroke:none;fill-rule:nonzero;fill:rgb(93.333333%,93.333333%,92.156863%);fill-opacity:1;" d="M 122.542969 23.417969 L 157.679688 23.417969 L 157.679688 25.972656 L 122.542969 25.972656 Z M 122.542969 23.417969 "/>
<path style=" stroke:none;fill-rule:nonzero;fill:rgb(66.27451%,77.254902%,88.627451%);fill-opacity:1;" d="M 122.542969 25.96875 L 157.679688 25.96875 L 157.679688 27.671875 L 122.542969 27.671875 Z M 122.542969 25.96875 "/>
<path style=" stroke:none;fill-rule:nonzero;fill:rgb(93.333333%,93.333333%,92.156863%);fill-opacity:1;" d="M 122.542969 27.671875 L 157.679688 27.671875 L 157.679688 31.074219 L 122.542969 31.074219 Z M 122.542969 27.671875 "/>
<path style=" stroke:none;fill-rule:nonzero;fill:rgb(66.27451%,77.254902%,88.627451%);fill-opacity:1;" d="M 122.542969 31.074219 L 157.679688 31.074219 L 157.679688 45.539062 L 122.542969 45.539062 Z M 122.542969 31.074219 "/>
<path style=" stroke:none;fill-rule:nonzero;fill:rgb(66.27451%,77.254902%,88.627451%);fill-opacity:1;" d="M 122.542969 99.117188 L 157.679688 99.117188 L 157.679688 100.820312 L 122.542969 100.820312 Z M 122.542969 99.117188 "/>
<path style=" stroke:none;fill-rule:nonzero;fill:rgb(93.333333%,93.333333%,92.156863%);fill-opacity:1;" d="M 122.542969 100.820312 L 157.679688 100.820312 L 157.679688 111.03125 L 122.542969 111.03125 Z M 122.542969 100.820312 "/>
<path style=" stroke:none;fill-rule:nonzero;fill:rgb(66.27451%,77.254902%,88.627451%);fill-opacity:1;" d="M 122.542969 111.027344 L 157.679688 111.027344 L 157.679688 112.726562 L 122.542969 112.726562 Z M 122.542969 111.027344 "/>
<path style=" stroke:none;fill-rule:nonzero;fill:rgb(93.333333%,93.333333%,92.156863%);fill-opacity:1;" d="M 122.542969 112.726562 L 157.679688 112.726562 L 157.679688 119.535156 L 122.542969 119.535156 Z M 122.542969 112.726562 "/>
<path style=" stroke:none;fill-rule:nonzero;fill:rgb(66.27451%,77.254902%,88.627451%);fill-opacity:1;" d="M 122.542969 119.53125 L 157.679688 119.53125 L 157.679688 122.933594 L 122.542969 122.933594 Z M 122.542969 119.53125 "/>
<path style=" stroke:none;fill-rule:nonzero;fill:rgb(93.333333%,93.333333%,92.156863%);fill-opacity:1;" d="M 122.542969 122.933594 L 157.679688 122.933594 L 157.679688 123.785156 L 122.542969 123.785156 Z M 122.542969 122.933594 "/>
<path style=" stroke:none;fill-rule:nonzero;fill:rgb(66.27451%,77.254902%,88.627451%);fill-opacity:1;" d="M 122.542969 123.785156 L 157.679688 123.785156 L 157.679688 135.699219 L 122.542969 135.699219 Z M 122.542969 123.785156 "/>
<path style=" stroke:none;fill-rule:nonzero;fill:rgb(93.333333%,93.333333%,92.156863%);fill-opacity:1;" d="M 122.542969 135.691406 L 157.679688 135.691406 L 157.679688 136.542969 L 122.542969 136.542969 Z M 122.542969 135.691406 "/>
<path style=" stroke:none;fill-rule:nonzero;fill:rgb(66.27451%,77.254902%,88.627451%);fill-opacity:1;" d="M 122.542969 136.542969 L 157.679688 136.542969 L 157.679688 138.246094 L 122.542969 138.246094 Z M 122.542969 136.542969 "/>
<path style=" stroke:none;fill-rule:nonzero;fill:rgb(93.333333%,93.333333%,92.156863%);fill-opacity:1;" d="M 122.542969 138.242188 L 157.679688 138.242188 L 157.679688 141.648438 L 122.542969 141.648438 Z M 122.542969 138.242188 "/>
<path style=" stroke:none;fill-rule:nonzero;fill:rgb(66.27451%,77.254902%,88.627451%);fill-opacity:1;" d="M 122.542969 141.644531 L 157.679688 141.644531 L 157.679688 147.601562 L 122.542969 147.601562 Z M 122.542969 141.644531 "/>
<path style=" stroke:none;fill-rule:nonzero;fill:rgb(93.333333%,93.333333%,92.156863%);fill-opacity:1;" d="M 122.542969 147.597656 L 157.679688 147.597656 L 157.679688 151.003906 L 122.542969 151.003906 Z M 122.542969 147.597656 "/>
<path style=" stroke:none;fill-rule:nonzero;fill:rgb(66.27451%,77.254902%,88.627451%);fill-opacity:1;" d="M 122.542969 151 L 157.679688 151 L 157.679688 162.066406 L 122.542969 162.066406 Z M 122.542969 151 "/>
<path style=" stroke:none;fill-rule:nonzero;fill:rgb(93.333333%,93.333333%,92.156863%);fill-opacity:1;" d="M 122.542969 162.058594 L 157.679688 162.058594 L 157.679688 165.460938 L 122.542969 165.460938 Z M 122.542969 162.058594 "/>
<path style=" stroke:none;fill-rule:nonzero;fill:rgb(66.27451%,77.254902%,88.627451%);fill-opacity:1;" d="M 122.542969 165.460938 L 157.679688 165.460938 L 157.679688 177.375 L 122.542969 177.375 Z M 122.542969 165.460938 "/>
<path style=" stroke:none;fill-rule:nonzero;fill:rgb(93.333333%,93.333333%,92.156863%);fill-opacity:1;" d="M 122.542969 177.367188 L 157.679688 177.367188 L 157.679688 179.921875 L 122.542969 179.921875 Z M 122.542969 177.367188 "/>
<path style=" stroke:none;fill-rule:nonzero;fill:rgb(66.27451%,77.254902%,88.627451%);fill-opacity:1;" d="M 122.542969 179.921875 L 157.679688 179.921875 L 157.679688 182.472656 L 122.542969 182.472656 Z M 122.542969 179.921875 "/>
<path style=" stroke:none;fill-rule:nonzero;fill:rgb(93.333333%,93.333333%,92.156863%);fill-opacity:1;" d="M 122.542969 182.472656 L 157.679688 182.472656 L 157.679688 184.175781 L 122.542969 184.175781 Z M 122.542969 182.472656 "/>
<path style=" stroke:none;fill-rule:nonzero;fill:rgb(66.27451%,77.254902%,88.627451%);fill-opacity:1;" d="M 122.542969 184.171875 L 157.679688 184.171875 L 157.679688 186.726562 L 122.542969 186.726562 Z M 122.542969 184.171875 "/>
<path style=" stroke:none;fill-rule:nonzero;fill:rgb(93.333333%,93.333333%,92.156863%);fill-opacity:1;" d="M 122.542969 186.726562 L 157.679688 186.726562 L 157.679688 188.425781 L 122.542969 188.425781 Z M 122.542969 186.726562 "/>
<path style=" stroke:none;fill-rule:nonzero;fill:rgb(66.27451%,77.254902%,88.627451%);fill-opacity:1;" d="M 122.542969 188.425781 L 157.679688 188.425781 L 157.679688 190.980469 L 122.542969 190.980469 Z M 122.542969 188.425781 "/>
<path style=" stroke:none;fill-rule:nonzero;fill:rgb(93.333333%,93.333333%,92.156863%);fill-opacity:1;" d="M 122.542969 190.976562 L 157.679688 190.976562 L 157.679688 192.679688 L 122.542969 192.679688 Z M 122.542969 190.976562 "/>
<path style=" stroke:none;fill-rule:nonzero;fill:rgb(66.27451%,77.254902%,88.627451%);fill-opacity:1;" d="M 122.542969 192.679688 L 157.679688 192.679688 L 157.679688 195.230469 L 122.542969 195.230469 Z M 122.542969 192.679688 "/>
<path style=" stroke:none;fill-rule:nonzero;fill:rgb(93.333333%,93.333333%,92.156863%);fill-opacity:1;" d="M 122.542969 195.230469 L 157.679688 195.230469 L 157.679688 196.933594 L 122.542969 196.933594 Z M 122.542969 195.230469 "/>
<path style=" stroke:none;fill-rule:nonzero;fill:rgb(66.27451%,77.254902%,88.627451%);fill-opacity:1;" d="M 122.542969 196.929688 L 157.679688 196.929688 L 157.679688 199.484375 L 122.542969 199.484375 Z M 122.542969 196.929688 "/>
<path style=" stroke:none;fill-rule:nonzero;fill:rgb(93.333333%,93.333333%,92.156863%);fill-opacity:1;" d="M 122.542969 199.484375 L 157.679688 199.484375 L 157.679688 201.183594 L 122.542969 201.183594 Z M 122.542969 199.484375 "/>
<path style=" stroke:none;fill-rule:nonzero;fill:rgb(66.27451%,77.254902%,88.627451%);fill-opacity:1;" d="M 122.542969 201.183594 L 157.679688 201.183594 L 157.679688 203.738281 L 122.542969 203.738281 Z M 122.542969 201.183594 "/>
<path style=" stroke:none;fill-rule:nonzero;fill:rgb(93.333333%,93.333333%,92.156863%);fill-opacity:1;" d="M 122.542969 203.734375 L 157.679688 203.734375 L 157.679688 205.4375 L 122.542969 205.4375 Z M 122.542969 203.734375 "/>
<path style=" stroke:none;fill-rule:nonzero;fill:rgb(66.27451%,77.254902%,88.627451%);fill-opacity:1;" d="M 122.542969 205.4375 L 157.679688 205.4375 L 157.679688 207.988281 L 122.542969 207.988281 Z M 122.542969 205.4375 "/>
<path style=" stroke:none;fill-rule:nonzero;fill:rgb(93.333333%,93.333333%,92.156863%);fill-opacity:1;" d="M 122.542969 207.988281 L 157.679688 207.988281 L 157.679688 209.691406 L 122.542969 209.691406 Z M 122.542969 207.988281 "/>
<path style=" stroke:none;fill-rule:nonzero;fill:rgb(66.27451%,77.254902%,88.627451%);fill-opacity:1;" d="M 122.542969 209.691406 L 157.679688 209.691406 L 157.679688 212.242188 L 122.542969 212.242188 Z M 122.542969 209.691406 "/>
<path style=" stroke:none;fill-rule:nonzero;fill:rgb(93.333333%,93.333333%,92.156863%);fill-opacity:1;" d="M 122.542969 212.242188 L 157.679688 212.242188 L 157.679688 213.941406 L 122.542969 213.941406 Z M 122.542969 212.242188 "/>
<path style=" stroke:none;fill-rule:nonzero;fill:rgb(66.27451%,77.254902%,88.627451%);fill-opacity:1;" d="M 122.542969 213.941406 L 157.679688 213.941406 L 157.679688 216.496094 L 122.542969 216.496094 Z M 122.542969 213.941406 "/>
<path style=" stroke:none;fill-rule:nonzero;fill:rgb(93.333333%,93.333333%,92.156863%);fill-opacity:1;" d="M 122.542969 216.492188 L 157.679688 216.492188 L 157.679688 218.195312 L 122.542969 218.195312 Z M 122.542969 216.492188 "/>
<path style=" stroke:none;fill-rule:nonzero;fill:rgb(66.27451%,77.254902%,88.627451%);fill-opacity:1;" d="M 122.542969 218.195312 L 157.679688 218.195312 L 157.679688 220.75 L 122.542969 220.75 Z M 122.542969 218.195312 "/>
<path style=" stroke:none;fill-rule:nonzero;fill:rgb(93.333333%,93.333333%,92.156863%);fill-opacity:1;" d="M 122.542969 220.746094 L 157.679688 220.746094 L 157.679688 222.449219 L 122.542969 222.449219 Z M 122.542969 220.746094 "/>
<path style=" stroke:none;fill-rule:nonzero;fill:rgb(66.27451%,77.254902%,88.627451%);fill-opacity:1;" d="M 122.542969 222.449219 L 157.679688 222.449219 L 157.679688 225 L 122.542969 225 Z M 122.542969 222.449219 "/>
<path style=" stroke:none;fill-rule:nonzero;fill:rgb(93.333333%,93.333333%,92.156863%);fill-opacity:1;" d="M 122.542969 225 L 157.679688 225 L 157.679688 226.703125 L 122.542969 226.703125 Z M 122.542969 225 "/>
<path style=" stroke:none;fill-rule:nonzero;fill:rgb(66.27451%,77.254902%,88.627451%);fill-opacity:1;" d="M 122.542969 226.699219 L 157.679688 226.699219 L 157.679688 230.957031 L 122.542969 230.957031 Z M 122.542969 226.699219 "/>
<path style=" stroke:none;fill-rule:nonzero;fill:rgb(66.27451%,77.254902%,88.627451%);fill-opacity:1;" d="M 163.390625 0.453125 L 198.527344 0.453125 L 198.527344 7.261719 L 163.390625 7.261719 Z M 163.390625 0.453125 "/>
<path style=" stroke:none;fill-rule:nonzero;fill:rgb(93.333333%,93.333333%,92.156863%);fill-opacity:1;" d="M 163.390625 7.257812 L 198.527344 7.257812 L 198.527344 8.960938 L 163.390625 8.960938 Z M 163.390625 7.257812 "/>
<path style=" stroke:none;fill-rule:nonzero;fill:rgb(66.27451%,77.254902%,88.627451%);fill-opacity:1;" d="M 163.390625 8.960938 L 198.527344 8.960938 L 198.527344 11.511719 L 163.390625 11.511719 Z M 163.390625 8.960938 "/>
<path style=" stroke:none;fill-rule:nonzero;fill:rgb(93.333333%,93.333333%,92.156863%);fill-opacity:1;" d="M 163.390625 11.511719 L 198.527344 11.511719 L 198.527344 13.214844 L 163.390625 13.214844 Z M 163.390625 11.511719 "/>
<path style=" stroke:none;fill-rule:nonzero;fill:rgb(66.27451%,77.254902%,88.627451%);fill-opacity:1;" d="M 163.390625 13.210938 L 198.527344 13.210938 L 198.527344 15.765625 L 163.390625 15.765625 Z M 163.390625 13.210938 "/>
<path style=" stroke:none;fill-rule:nonzero;fill:rgb(93.333333%,93.333333%,92.156863%);fill-opacity:1;" d="M 163.390625 15.765625 L 198.527344 15.765625 L 198.527344 17.464844 L 163.390625 17.464844 Z M 163.390625 15.765625 "/>
<path style=" stroke:none;fill-rule:nonzero;fill:rgb(66.27451%,77.254902%,88.627451%);fill-opacity:1;" d="M 163.390625 17.464844 L 198.527344 17.464844 L 198.527344 20.019531 L 163.390625 20.019531 Z M 163.390625 17.464844 "/>
<path style=" stroke:none;fill-rule:nonzero;fill:rgb(93.333333%,93.333333%,92.156863%);fill-opacity:1;" d="M 163.390625 20.015625 L 198.527344 20.015625 L 198.527344 21.71875 L 163.390625 21.71875 Z M 163.390625 20.015625 "/>
<path style=" stroke:none;fill-rule:nonzero;fill:rgb(66.27451%,77.254902%,88.627451%);fill-opacity:1;" d="M 163.390625 21.71875 L 198.527344 21.71875 L 198.527344 24.269531 L 163.390625 24.269531 Z M 163.390625 21.71875 "/>
<path style=" stroke:none;fill-rule:nonzero;fill:rgb(93.333333%,93.333333%,92.156863%);fill-opacity:1;" d="M 163.390625 24.269531 L 198.527344 24.269531 L 198.527344 25.972656 L 163.390625 25.972656 Z M 163.390625 24.269531 "/>
<path style=" stroke:none;fill-rule:nonzero;fill:rgb(66.27451%,77.254902%,88.627451%);fill-opacity:1;" d="M 163.390625 25.972656 L 198.527344 25.972656 L 198.527344 28.523438 L 163.390625 28.523438 Z M 163.390625 25.972656 "/>
<path style=" stroke:none;fill-rule:nonzero;fill:rgb(93.333333%,93.333333%,92.156863%);fill-opacity:1;" d="M 163.390625 28.523438 L 198.527344 28.523438 L 198.527344 30.222656 L 163.390625 30.222656 Z M 163.390625 28.523438 "/>
<path style=" stroke:none;fill-rule:nonzero;fill:rgb(66.27451%,77.254902%,88.627451%);fill-opacity:1;" d="M 163.390625 30.222656 L 198.527344 30.222656 L 198.527344 32.777344 L 163.390625 32.777344 Z M 163.390625 30.222656 "/>
<path style=" stroke:none;fill-rule:nonzero;fill:rgb(93.333333%,93.333333%,92.156863%);fill-opacity:1;" d="M 163.390625 32.773438 L 198.527344 32.773438 L 198.527344 34.476562 L 163.390625 34.476562 Z M 163.390625 32.773438 "/>
<path style=" stroke:none;fill-rule:nonzero;fill:rgb(66.27451%,77.254902%,88.627451%);fill-opacity:1;" d="M 163.390625 34.476562 L 198.527344 34.476562 L 198.527344 35.328125 L 163.390625 35.328125 Z M 163.390625 34.476562 "/>
<path style=" stroke:none;fill-rule:nonzero;fill:rgb(93.333333%,93.333333%,92.156863%);fill-opacity:1;" d="M 163.390625 35.328125 L 198.527344 35.328125 L 198.527344 36.179688 L 163.390625 36.179688 Z M 163.390625 35.328125 "/>
<path style=" stroke:none;fill-rule:nonzero;fill:rgb(66.27451%,77.254902%,88.627451%);fill-opacity:1;" d="M 163.390625 36.175781 L 198.527344 36.175781 L 198.527344 39.582031 L 163.390625 39.582031 Z M 163.390625 36.175781 "/>
<path style=" stroke:none;fill-rule:nonzero;fill:rgb(93.333333%,93.333333%,92.156863%);fill-opacity:1;" d="M 163.390625 39.578125 L 198.527344 39.578125 L 198.527344 41.28125 L 163.390625 41.28125 Z M 163.390625 39.578125 "/>
<path style=" stroke:none;fill-rule:nonzero;fill:rgb(66.27451%,77.254902%,88.627451%);fill-opacity:1;" d="M 163.390625 41.28125 L 198.527344 41.28125 L 198.527344 42.984375 L 163.390625 42.984375 Z M 163.390625 41.28125 "/>
<path style=" stroke:none;fill-rule:nonzero;fill:rgb(93.333333%,93.333333%,92.156863%);fill-opacity:1;" d="M 163.390625 42.980469 L 198.527344 42.980469 L 198.527344 43.832031 L 163.390625 43.832031 Z M 163.390625 42.980469 "/>
<path style=" stroke:none;fill-rule:nonzero;fill:rgb(66.27451%,77.254902%,88.627451%);fill-opacity:1;" d="M 163.390625 43.832031 L 198.527344 43.832031 L 198.527344 51.492188 L 163.390625 51.492188 Z M 163.390625 43.832031 "/>
<path style=" stroke:none;fill-rule:nonzero;fill:rgb(93.333333%,93.333333%,92.156863%);fill-opacity:1;" d="M 163.390625 51.488281 L 198.527344 51.488281 L 198.527344 54.890625 L 163.390625 54.890625 Z M 163.390625 51.488281 "/>
<path style=" stroke:none;fill-rule:nonzero;fill:rgb(66.27451%,77.254902%,88.627451%);fill-opacity:1;" d="M 163.390625 54.890625 L 198.527344 54.890625 L 198.527344 59.144531 L 163.390625 59.144531 Z M 163.390625 54.890625 "/>
<path style=" stroke:none;fill-rule:nonzero;fill:rgb(93.333333%,93.333333%,92.156863%);fill-opacity:1;" d="M 163.390625 59.140625 L 198.527344 59.140625 L 198.527344 61.695312 L 163.390625 61.695312 Z M 163.390625 59.140625 "/>
<path style=" stroke:none;fill-rule:nonzero;fill:rgb(66.27451%,77.254902%,88.627451%);fill-opacity:1;" d="M 163.390625 61.695312 L 198.527344 61.695312 L 198.527344 63.394531 L 163.390625 63.394531 Z M 163.390625 61.695312 "/>
<path style=" stroke:none;fill-rule:nonzero;fill:rgb(93.333333%,93.333333%,92.156863%);fill-opacity:1;" d="M 163.390625 63.394531 L 198.527344 63.394531 L 198.527344 66.800781 L 163.390625 66.800781 Z M 163.390625 63.394531 "/>
<path style=" stroke:none;fill-rule:nonzero;fill:rgb(66.27451%,77.254902%,88.627451%);fill-opacity:1;" d="M 163.390625 66.796875 L 198.527344 66.796875 L 198.527344 73.605469 L 163.390625 73.605469 Z M 163.390625 66.796875 "/>
<path style=" stroke:none;fill-rule:nonzero;fill:rgb(93.333333%,93.333333%,92.156863%);fill-opacity:1;" d="M 163.390625 73.601562 L 198.527344 73.601562 L 198.527344 76.15625 L 163.390625 76.15625 Z M 163.390625 73.601562 "/>
<path style=" stroke:none;fill-rule:nonzero;fill:rgb(66.27451%,77.254902%,88.627451%);fill-opacity:1;" d="M 163.390625 76.152344 L 198.527344 76.152344 L 198.527344 77.855469 L 163.390625 77.855469 Z M 163.390625 76.152344 "/>
<path style=" stroke:none;fill-rule:nonzero;fill:rgb(93.333333%,93.333333%,92.156863%);fill-opacity:1;" d="M 163.390625 77.855469 L 198.527344 77.855469 L 198.527344 79.554688 L 163.390625 79.554688 Z M 163.390625 77.855469 "/>
<path style=" stroke:none;fill-rule:nonzero;fill:rgb(66.27451%,77.254902%,88.627451%);fill-opacity:1;" d="M 163.390625 79.554688 L 198.527344 79.554688 L 198.527344 81.257812 L 163.390625 81.257812 Z M 163.390625 79.554688 "/>
<path style=" stroke:none;fill-rule:nonzero;fill:rgb(93.333333%,93.333333%,92.156863%);fill-opacity:1;" d="M 163.390625 81.257812 L 198.527344 81.257812 L 198.527344 82.957031 L 163.390625 82.957031 Z M 163.390625 81.257812 "/>
<path style=" stroke:none;fill-rule:nonzero;fill:rgb(66.27451%,77.254902%,88.627451%);fill-opacity:1;" d="M 163.390625 82.957031 L 198.527344 82.957031 L 198.527344 84.660156 L 163.390625 84.660156 Z M 163.390625 82.957031 "/>
<path style=" stroke:none;fill-rule:nonzero;fill:rgb(93.333333%,93.333333%,92.156863%);fill-opacity:1;" d="M 163.390625 84.660156 L 198.527344 84.660156 L 198.527344 86.359375 L 163.390625 86.359375 Z M 163.390625 84.660156 "/>
<path style=" stroke:none;fill-rule:nonzero;fill:rgb(66.27451%,77.254902%,88.627451%);fill-opacity:1;" d="M 163.390625 86.359375 L 198.527344 86.359375 L 198.527344 88.914062 L 163.390625 88.914062 Z M 163.390625 86.359375 "/>
<path style=" stroke:none;fill-rule:nonzero;fill:rgb(93.333333%,93.333333%,92.156863%);fill-opacity:1;" d="M 163.390625 88.910156 L 198.527344 88.910156 L 198.527344 93.167969 L 163.390625 93.167969 Z M 163.390625 88.910156 "/>
<path style=" stroke:none;fill-rule:nonzero;fill:rgb(66.27451%,77.254902%,88.627451%);fill-opacity:1;" d="M 163.390625 93.164062 L 198.527344 93.164062 L 198.527344 94.867188 L 163.390625 94.867188 Z M 163.390625 93.164062 "/>
<path style=" stroke:none;fill-rule:nonzero;fill:rgb(93.333333%,93.333333%,92.156863%);fill-opacity:1;" d="M 163.390625 94.863281 L 198.527344 94.863281 L 198.527344 96.566406 L 163.390625 96.566406 Z M 163.390625 94.863281 "/>
<path style=" stroke:none;fill-rule:nonzero;fill:rgb(66.27451%,77.254902%,88.627451%);fill-opacity:1;" d="M 163.390625 96.566406 L 198.527344 96.566406 L 198.527344 100.820312 L 163.390625 100.820312 Z M 163.390625 96.566406 "/>
<path style=" stroke:none;fill-rule:nonzero;fill:rgb(93.333333%,93.333333%,92.156863%);fill-opacity:1;" d="M 163.390625 100.820312 L 198.527344 100.820312 L 198.527344 106.777344 L 163.390625 106.777344 Z M 163.390625 100.820312 "/>
<path style=" stroke:none;fill-rule:nonzero;fill:rgb(66.27451%,77.254902%,88.627451%);fill-opacity:1;" d="M 163.390625 106.773438 L 198.527344 106.773438 L 198.527344 116.984375 L 163.390625 116.984375 Z M 163.390625 106.773438 "/>
<path style=" stroke:none;fill-rule:nonzero;fill:rgb(93.333333%,93.333333%,92.156863%);fill-opacity:1;" d="M 163.390625 116.980469 L 198.527344 116.980469 L 198.527344 121.234375 L 163.390625 121.234375 Z M 163.390625 116.980469 "/>
<path style=" stroke:none;fill-rule:nonzero;fill:rgb(66.27451%,77.254902%,88.627451%);fill-opacity:1;" d="M 163.390625 121.234375 L 198.527344 121.234375 L 198.527344 128.039062 L 163.390625 128.039062 Z M 163.390625 121.234375 "/>
<path style=" stroke:none;fill-rule:nonzero;fill:rgb(93.333333%,93.333333%,92.156863%);fill-opacity:1;" d="M 163.390625 128.035156 L 198.527344 128.035156 L 198.527344 133.992188 L 163.390625 133.992188 Z M 163.390625 128.035156 "/>
<path style=" stroke:none;fill-rule:nonzero;fill:rgb(66.27451%,77.254902%,88.627451%);fill-opacity:1;" d="M 163.390625 133.992188 L 198.527344 133.992188 L 198.527344 135.691406 L 163.390625 135.691406 Z M 163.390625 133.992188 "/>
<path style=" stroke:none;fill-rule:nonzero;fill:rgb(93.333333%,93.333333%,92.156863%);fill-opacity:1;" d="M 163.390625 135.691406 L 198.527344 135.691406 L 198.527344 143.351562 L 163.390625 143.351562 Z M 163.390625 135.691406 "/>
<path style=" stroke:none;fill-rule:nonzero;fill:rgb(66.27451%,77.254902%,88.627451%);fill-opacity:1;" d="M 163.390625 143.347656 L 198.527344 143.347656 L 198.527344 161.21875 L 163.390625 161.21875 Z M 163.390625 143.347656 "/>
<path style=" stroke:none;fill-rule:nonzero;fill:rgb(93.333333%,93.333333%,92.156863%);fill-opacity:1;" d="M 163.390625 161.207031 L 198.527344 161.207031 L 198.527344 166.3125 L 163.390625 166.3125 Z M 163.390625 161.207031 "/>
<path style=" stroke:none;fill-rule:nonzero;fill:rgb(66.27451%,77.254902%,88.627451%);fill-opacity:1;" d="M 163.390625 166.3125 L 198.527344 166.3125 L 198.527344 168.011719 L 163.390625 168.011719 Z M 163.390625 166.3125 "/>
<path style=" stroke:none;fill-rule:nonzero;fill:rgb(93.333333%,93.333333%,92.156863%);fill-opacity:1;" d="M 163.390625 168.011719 L 198.527344 168.011719 L 198.527344 173.96875 L 163.390625 173.96875 Z M 163.390625 168.011719 "/>
<path style=" stroke:none;fill-rule:nonzero;fill:rgb(66.27451%,77.254902%,88.627451%);fill-opacity:1;" d="M 163.390625 173.964844 L 198.527344 173.964844 L 198.527344 182.476562 L 163.390625 182.476562 Z M 163.390625 173.964844 "/>
<path style=" stroke:none;fill-rule:nonzero;fill:rgb(93.333333%,93.333333%,92.156863%);fill-opacity:1;" d="M 163.390625 182.472656 L 198.527344 182.472656 L 198.527344 188.429688 L 163.390625 188.429688 Z M 163.390625 182.472656 "/>
<path style=" stroke:none;fill-rule:nonzero;fill:rgb(66.27451%,77.254902%,88.627451%);fill-opacity:1;" d="M 163.390625 188.425781 L 198.527344 188.425781 L 198.527344 190.128906 L 163.390625 190.128906 Z M 163.390625 188.425781 "/>
<path style=" stroke:none;fill-rule:nonzero;fill:rgb(93.333333%,93.333333%,92.156863%);fill-opacity:1;" d="M 163.390625 190.128906 L 198.527344 190.128906 L 198.527344 199.488281 L 163.390625 199.488281 Z M 163.390625 190.128906 "/>
<path style=" stroke:none;fill-rule:nonzero;fill:rgb(66.27451%,77.254902%,88.627451%);fill-opacity:1;" d="M 163.390625 199.484375 L 198.527344 199.484375 L 198.527344 201.183594 L 163.390625 201.183594 Z M 163.390625 199.484375 "/>
<path style=" stroke:none;fill-rule:nonzero;fill:rgb(93.333333%,93.333333%,92.156863%);fill-opacity:1;" d="M 163.390625 201.183594 L 198.527344 201.183594 L 198.527344 230.96875 L 163.390625 230.96875 Z M 163.390625 201.183594 "/>
<path style=" stroke:none;fill-rule:nonzero;fill:rgb(93.333333%,93.333333%,92.156863%);fill-opacity:1;" d="M 204.238281 0.453125 L 239.375 0.453125 L 239.375 143.421875 L 204.238281 143.421875 Z M 204.238281 0.453125 "/>
<path style=" stroke:none;fill-rule:nonzero;fill:rgb(66.27451%,77.254902%,88.627451%);fill-opacity:1;" d="M 204.238281 143.347656 L 239.375 143.347656 L 239.375 145.046875 L 204.238281 145.046875 Z M 204.238281 143.347656 "/>
<path style=" stroke:none;fill-rule:nonzero;fill:rgb(93.333333%,93.333333%,92.156863%);fill-opacity:1;" d="M 204.238281 145.046875 L 239.375 145.046875 L 239.375 230.996094 L 204.238281 230.996094 Z M 204.238281 145.046875 "/>
<path style=" stroke:none;fill-rule:nonzero;fill:rgb(93.333333%,93.333333%,92.156863%);fill-opacity:1;" d="M 245.085938 0.453125 L 280.222656 0.453125 L 280.222656 6.410156 L 245.085938 6.410156 Z M 245.085938 0.453125 "/>
<path style=" stroke:none;fill-rule:nonzero;fill:rgb(66.27451%,77.254902%,88.627451%);fill-opacity:1;" d="M 245.085938 6.410156 L 280.222656 6.410156 L 280.222656 22.578125 L 245.085938 22.578125 Z M 245.085938 6.410156 "/>
<path style=" stroke:none;fill-rule:nonzero;fill:rgb(93.333333%,93.333333%,92.156863%);fill-opacity:1;" d="M 245.085938 22.570312 L 280.222656 22.570312 L 280.222656 71.074219 L 245.085938 71.074219 Z M 245.085938 22.570312 "/>
<path style=" stroke:none;fill-rule:nonzero;fill:rgb(66.27451%,77.254902%,88.627451%);fill-opacity:1;" d="M 245.085938 71.050781 L 280.222656 71.050781 L 280.222656 72.75 L 245.085938 72.75 Z M 245.085938 71.050781 "/>
<path style=" stroke:none;fill-rule:nonzero;fill:rgb(93.333333%,93.333333%,92.156863%);fill-opacity:1;" d="M 245.085938 72.75 L 280.222656 72.75 L 280.222656 147.636719 L 245.085938 147.636719 Z M 245.085938 72.75 "/>
<path style=" stroke:none;fill-rule:nonzero;fill:rgb(66.27451%,77.254902%,88.627451%);fill-opacity:1;" d="M 245.085938 147.597656 L 280.222656 147.597656 L 280.222656 149.300781 L 245.085938 149.300781 Z M 245.085938 147.597656 "/>
<path style=" stroke:none;fill-rule:nonzero;fill:rgb(93.333333%,93.333333%,92.156863%);fill-opacity:1;" d="M 245.085938 149.300781 L 280.222656 149.300781 L 280.222656 208.019531 L 245.085938 208.019531 Z M 245.085938 149.300781 "/>
<path style=" stroke:none;fill-rule:nonzero;fill:rgb(66.27451%,77.254902%,88.627451%);fill-opacity:1;" d="M 245.085938 207.988281 L 280.222656 207.988281 L 280.222656 210.542969 L 245.085938 210.542969 Z M 245.085938 207.988281 "/>
<path style=" stroke:none;fill-rule:nonzero;fill:rgb(93.333333%,93.333333%,92.156863%);fill-opacity:1;" d="M 245.085938 210.539062 L 280.222656 210.539062 L 280.222656 213.09375 L 245.085938 213.09375 Z M 245.085938 210.539062 "/>
<path style=" stroke:none;fill-rule:nonzero;fill:rgb(93.333333%,93.333333%,92.156863%);fill-opacity:1;" d="M 0 140.796875 L 35.136719 140.796875 L 35.136719 154.410156 L 0 154.410156 Z M 0 140.796875 "/>
<path style=" stroke:none;fill-rule:nonzero;fill:rgb(93.333333%,93.333333%,92.156863%);fill-opacity:1;" d="M 0 127.1875 L 35.136719 127.1875 L 35.136719 130.589844 L 0 130.589844 Z M 0 127.1875 "/>
<path style=" stroke:none;fill-rule:nonzero;fill:rgb(66.27451%,77.254902%,88.627451%);fill-opacity:1;" d="M 0 82.957031 L 35.136719 82.957031 L 35.136719 95.722656 L 0 95.722656 Z M 0 82.957031 "/>
<path style=" stroke:none;fill-rule:nonzero;fill:rgb(66.27451%,77.254902%,88.627451%);fill-opacity:1;" d="M 0 54.890625 L 35.136719 54.890625 L 35.136719 59.996094 L 0 59.996094 Z M 0 54.890625 "/>
<path style=" stroke:none;fill-rule:nonzero;fill:rgb(93.333333%,93.333333%,92.156863%);fill-opacity:1;" d="M 0 49.785156 L 35.136719 49.785156 L 35.136719 54.890625 L 0 54.890625 Z M 0 49.785156 "/>
<path style=" stroke:none;fill-rule:nonzero;fill:rgb(93.333333%,93.333333%,92.156863%);fill-opacity:1;" d="M 0 20.015625 L 35.136719 20.015625 L 35.136719 41.292969 L 0 41.292969 Z M 0 20.015625 "/>
<path style=" stroke:none;fill-rule:nonzero;fill:rgb(93.333333%,93.333333%,92.156863%);fill-opacity:1;" d="M 0 5.558594 L 35.136719 5.558594 L 35.136719 12.367188 L 0 12.367188 Z M 0 5.558594 "/>
<path style=" stroke:none;fill-rule:nonzero;fill:rgb(66.27451%,77.254902%,88.627451%);fill-opacity:1;" d="M 40.847656 0.453125 L 75.984375 0.453125 L 75.984375 3.007812 L 40.847656 3.007812 Z M 40.847656 0.453125 "/>
<path style=" stroke:none;fill-rule:nonzero;fill:rgb(93.333333%,93.333333%,92.156863%);fill-opacity:1;" d="M 122.542969 45.578125 L 157.679688 45.578125 L 157.679688 99.191406 L 122.542969 99.191406 Z M 122.542969 45.578125 "/>
</g>
</svg>
