<?xml version="1.0" encoding="UTF-8"?>
<svg xmlns="http://www.w3.org/2000/svg" xmlns:xlink="http://www.w3.org/1999/xlink" width="258pt" height="108pt" viewBox="0 0 258 108" version="1.1">
<g id="surface2">
<path style="fill:none;stroke-width:1.772;stroke-linecap:round;stroke-linejoin:round;stroke:rgb(33.333333%,38.431373%,43.921569%);stroke-opacity:1;stroke-miterlimit:4;" d="M 825.000013 1092.360453 L 935.000015 1092.360453 L 935.000015 1197.360455 L 825.000013 1197.360455 Z M 825.000013 1092.360453 " transform="matrix(1,0,0,1,-824,-1090.63778)"/>
<path style="fill-rule:nonzero;fill:rgb(30.588235%,80.392157%,76.862745%);fill-opacity:1;stroke-width:1.772;stroke-linecap:round;stroke-linejoin:round;stroke:rgb(33.333333%,38.431373%,43.921569%);stroke-opacity:1;stroke-miterlimit:4;" d="M 915.179702 1144.860454 C 915.179702 1164.290142 899.429702 1180.040142 880.000014 1180.040142 C 860.570326 1180.040142 844.820326 1164.290142 844.820326 1144.860454 C 844.820326 1125.434673 860.570326 1109.684672 880.000014 1109.684672 C 899.429702 1109.684672 915.179702 1125.434673 915.179702 1144.860454 Z M 915.179702 1144.860454 " transform="matrix(1,0,0,1,-824,-1090.63778)"/>
<path style="fill-rule:nonzero;fill:rgb(30.588235%,80.392157%,76.862745%);fill-opacity:1;stroke-width:1.772;stroke-linecap:round;stroke-linejoin:round;stroke:rgb(33.333333%,38.431373%,43.921569%);stroke-opacity:1;stroke-miterlimit:4;" d="M 970.000015 1092.360453 L 1080.000017 1092.360453 L 1080.000017 1197.360455 L 970.000015 1197.360455 Z M 970.000015 1092.360453 " transform="matrix(1,0,0,1,-824,-1090.63778)"/>
<path style="fill-rule:nonzero;fill:rgb(100%,100%,100%);fill-opacity:1;stroke-width:1.772;stroke-linecap:round;stroke-linejoin:round;stroke:rgb(33.333333%,38.431373%,43.921569%);stroke-opacity:1;stroke-miterlimit:4;" d="M 1060.179704 1144.860454 C 1060.179704 1164.290142 1044.429704 1180.040142 1025.000016 1180.040142 C 1005.570328 1180.040142 989.820328 1164.290142 989.820328 1144.860454 C 989.820328 1125.434673 1005.570328 1109.684672 1025.000016 1109.684672 C 1044.429704 1109.684672 1060.179704 1125.434673 1060.179704 1144.860454 Z M 1060.179704 1144.860454 " transform="matrix(1,0,0,1,-824,-1090.63778)"/>
</g>
</svg>
