<?xml version="1.0" encoding="UTF-8"?>
<svg xmlns="http://www.w3.org/2000/svg" xmlns:xlink="http://www.w3.org/1999/xlink" width="215pt" height="120pt" viewBox="0 0 215 120" version="1.1">
<g id="surface2">
<path style="fill-rule:nonzero;fill:rgb(66.27451%,77.254902%,88.627451%);fill-opacity:1;stroke-width:3;stroke-linecap:round;stroke-linejoin:round;stroke:rgb(66.27451%,77.254902%,88.627451%);stroke-opacity:1;stroke-miterlimit:4;" d="M 552.155689 909.817331 L 592.155691 909.817331 L 592.155691 1009.817334 L 552.155689 1009.817334 Z M 552.155689 909.817331 " transform="matrix(0,1,-1,0,1011.618079,-474.940826)"/>
<path style="fill-rule:nonzero;fill:rgb(94.901961%,83.529412%,65.490196%);fill-opacity:1;stroke-width:3;stroke-linecap:round;stroke-linejoin:round;stroke:rgb(94.901961%,83.529412%,65.490196%);stroke-opacity:1;stroke-miterlimit:4;" d="M -1009.817334 477.155687 L -969.817333 477.155687 L -969.817333 542.155689 L -1009.817334 542.155689 Z M -1009.817334 477.155687 " transform="matrix(1,0,0,1,1011.618079,-474.940826)"/>
<path style="fill-rule:nonzero;fill:rgb(94.901961%,83.529412%,65.490196%);fill-opacity:1;stroke-width:3;stroke-linecap:round;stroke-linejoin:round;stroke:rgb(94.901961%,83.529412%,65.490196%);stroke-opacity:1;stroke-miterlimit:4;" d="M -949.817332 477.155687 L -909.817331 477.155687 L -909.817331 542.155689 L -949.817332 542.155689 Z M -949.817332 477.155687 " transform="matrix(1,0,0,1,1011.618079,-474.940826)"/>
<path style="fill-rule:nonzero;fill:rgb(89.411765%,59.607843%,39.607843%);fill-opacity:1;stroke-width:3;stroke-linecap:butt;stroke-linejoin:round;stroke:rgb(89.411765%,59.607843%,39.607843%);stroke-opacity:1;stroke-miterlimit:4;" d="M -839.817328 567.15569 L -799.817327 567.15569 L -799.817327 592.155691 L -839.817328 592.155691 Z M -839.817328 567.15569 " transform="matrix(1,0,0,1,1011.618079,-474.940826)"/>
<path style="fill-rule:nonzero;fill:rgb(48.627451%,80.784314%,65.490196%);fill-opacity:1;stroke-width:3;stroke-linecap:round;stroke-linejoin:round;stroke:rgb(48.627451%,80.784314%,65.490196%);stroke-opacity:1;stroke-miterlimit:4;" d="M -889.81733 497.155687 L -859.817329 497.155687 L -859.817329 592.155691 L -889.81733 592.155691 Z M -889.81733 497.155687 " transform="matrix(1,0,0,1,1011.618079,-474.940826)"/>
<path style="fill-rule:nonzero;fill:rgb(89.411765%,59.607843%,39.607843%);fill-opacity:1;stroke-width:3;stroke-linecap:butt;stroke-linejoin:round;stroke:rgb(89.411765%,59.607843%,39.607843%);stroke-opacity:1;stroke-miterlimit:4;" d="M -839.817328 532.155689 L -799.817327 532.155689 L -799.817327 557.155689 L -839.817328 557.155689 Z M -839.817328 532.155689 " transform="matrix(1,0,0,1,1011.618079,-474.940826)"/>
<path style="fill-rule:nonzero;fill:rgb(89.411765%,59.607843%,39.607843%);fill-opacity:1;stroke-width:3;stroke-linecap:butt;stroke-linejoin:round;stroke:rgb(89.411765%,59.607843%,39.607843%);stroke-opacity:1;stroke-miterlimit:4;" d="M -839.817328 497.155687 L -799.817327 497.155687 L -799.817327 522.155688 L -839.817328 522.155688 Z M -839.817328 497.155687 " transform="matrix(1,0,0,1,1011.618079,-474.940826)"/>
</g>
</svg>
