<?xml version="1.0" encoding="UTF-8" standalone="no"?>
<!-- Created with Inkscape (http://www.inkscape.org/) -->

<svg
   xmlns:dc="http://purl.org/dc/elements/1.1/"
   xmlns:cc="http://creativecommons.org/ns#"
   xmlns:rdf="http://www.w3.org/1999/02/22-rdf-syntax-ns#"
   xmlns:svg="http://www.w3.org/2000/svg"
   xmlns="http://www.w3.org/2000/svg"
   xmlns:sodipodi="http://sodipodi.sourceforge.net/DTD/sodipodi-0.dtd"
   xmlns:inkscape="http://www.inkscape.org/namespaces/inkscape"
   width="249.00024"
   height="139.95026"
   id="svg2"
   sodipodi:version="0.32"
   inkscape:version="0.91 r13725"
   sodipodi:docname="LINA.svg"
   inkscape:output_extension="org.inkscape.output.svg.inkscape"
   version="1.0">
  <defs
     id="defs4">
    <inkscape:perspective
       sodipodi:type="inkscape:persp3d"
       inkscape:vp_x="0 : 526.18109 : 1"
       inkscape:vp_y="0 : 1000 : 0"
       inkscape:vp_z="744.09448 : 526.18109 : 1"
       inkscape:persp3d-origin="372.04724 : 350.78739 : 1"
       id="perspective10" />
    <inkscape:perspective
       id="perspective2464"
       inkscape:persp3d-origin="372.04724 : 350.78739 : 1"
       inkscape:vp_z="744.09448 : 526.18109 : 1"
       inkscape:vp_y="0 : 1000 : 0"
       inkscape:vp_x="0 : 526.18109 : 1"
       sodipodi:type="inkscape:persp3d" />
    <inkscape:perspective
       id="perspective2557"
       inkscape:persp3d-origin="372.04724 : 350.78739 : 1"
       inkscape:vp_z="744.09448 : 526.18109 : 1"
       inkscape:vp_y="0 : 1000 : 0"
       inkscape:vp_x="0 : 526.18109 : 1"
       sodipodi:type="inkscape:persp3d" />
    <inkscape:perspective
       id="perspective2607"
       inkscape:persp3d-origin="372.04724 : 350.78739 : 1"
       inkscape:vp_z="744.09448 : 526.18109 : 1"
       inkscape:vp_y="0 : 1000 : 0"
       inkscape:vp_x="0 : 526.18109 : 1"
       sodipodi:type="inkscape:persp3d" />
    <inkscape:perspective
       id="perspective2675"
       inkscape:persp3d-origin="372.04724 : 350.78739 : 1"
       inkscape:vp_z="744.09448 : 526.18109 : 1"
       inkscape:vp_y="0 : 1000 : 0"
       inkscape:vp_x="0 : 526.18109 : 1"
       sodipodi:type="inkscape:persp3d" />
    <inkscape:perspective
       id="perspective3037"
       inkscape:persp3d-origin="372.04724 : 350.78739 : 1"
       inkscape:vp_z="744.09448 : 526.18109 : 1"
       inkscape:vp_y="0 : 1000 : 0"
       inkscape:vp_x="0 : 526.18109 : 1"
       sodipodi:type="inkscape:persp3d" />
    <inkscape:perspective
       id="perspective3157"
       inkscape:persp3d-origin="372.04724 : 350.78739 : 1"
       inkscape:vp_z="744.09448 : 526.18109 : 1"
       inkscape:vp_y="0 : 1000 : 0"
       inkscape:vp_x="0 : 526.18109 : 1"
       sodipodi:type="inkscape:persp3d" />
  </defs>
  <sodipodi:namedview
     id="base"
     pagecolor="#ffffff"
     bordercolor="#666666"
     borderopacity="1.0"
     inkscape:pageopacity="0.0"
     inkscape:pageshadow="2"
     inkscape:zoom="0.98994949"
     inkscape:cx="171.78319"
     inkscape:cy="231.15687"
     inkscape:document-units="px"
     inkscape:current-layer="layer1"
     showgrid="false"
     inkscape:window-width="1920"
     inkscape:window-height="1146"
     inkscape:window-x="0"
     inkscape:window-y="54"
     fit-margin-top="0"
     fit-margin-left="0"
     fit-margin-right="0"
     fit-margin-bottom="0"
     inkscape:window-maximized="0" />
  <metadata
     id="metadata7">
    <rdf:RDF>
      <cc:Work
         rdf:about="">
        <dc:format>image/svg+xml</dc:format>
        <dc:type
           rdf:resource="http://purl.org/dc/dcmitype/StillImage" />
        <dc:title></dc:title>
      </cc:Work>
    </rdf:RDF>
  </metadata>
  <g
     inkscape:label="Calque 1"
     inkscape:groupmode="layer"
     id="layer1"
     transform="translate(-296.66213,145.42452)">
    <path
       id="path3249"
       style="fill:#000000;fill-opacity:1;fill-rule:nonzero;stroke:none"
       d="m 296.66213,-22.424018 8.25,0 0,-123.000002 -8.25,0 0,123.000002 z"
       inkscape:connector-curvature="0" />
    <path
       id="path3251"
       style="fill:#000000;fill-opacity:1;fill-rule:nonzero;stroke:none"
       d="m 339.11238,-22.424018 -8.25,0 0,-81.750502 8.25,0 0,81.750502 z m 0,-109.350502 -8.25,0 0,-13.65 8.25,0 0,13.65"
       inkscape:connector-curvature="0" />
    <path
       id="path3253"
       style="fill:#000000;fill-opacity:1;fill-rule:nonzero;stroke:none"
       d="m 373.46238,-90.374518 0,0 c 7.2,-10.500002 14.4,-14.850002 25.95,-14.850002 17.55,0 30,10.650002 30,33.000002 l 0,49.8005 -9.3,0 0,-46.6505 c 0,-18 -7.2,-27.6 -20.7,-27.6 -11.55,0 -18.75,5.25 -25.95,16.95 l 0,57.3005 -8.4,0 0,-81.750502 8.4,0 0,13.800002"
       inkscape:connector-curvature="0" />
    <path
       id="path3255"
       style="fill:#a70000;fill-opacity:1;fill-rule:nonzero;stroke:none"
       d="m 483.41238,-83.924518 c 0,-10.65 -5.1,-16.950002 -17.7,-16.950002 -7.2,0 -12.45,3.150002 -19.65,7.350002 l 0,31.8 c 8.25,-8.4 22.8,-11.7 37.35,-11.7 l 0,-10.5 z m -15.6,-23.400002 c 9.45,0 23.85,4.2 23.85,21.300002 l 0,12.6 54,0 0,-33.900002 c 0,0 -86.1,0 -77.85,0 z m 23.85,71.100252 c 0,3.149875 1.05,4.200125 2.1,4.200125 2.1,0 7.35,-3.149875 11.4,-7.350125 l 0,7.350125 -0.9,1.049875 c -8.4,6.450125 -11.55,7.5 -14.55,7.5 -4.2,0 -5.25,-2.100125 -6.3,-9.600125 -8.25,6.450125 -16.65,9.600125 -24.9,9.600125 -5.25,0 -9.3,-1.049875 -12.45,-4.19975 l 0,22.19975 99.6,0 0,-61.50025 -54,0 0,30.75025 z m -45.6,-7.350125 c 0,7.350125 6.3,12.600125 15.6,12.600125 7.2,0 13.5,-2.100125 21.75,-10.5 l 0,-24.45025 c -20.7,-1.05 -37.35,7.35 -37.35,22.350125"
       inkscape:connector-curvature="0" />
  </g>
</svg>
