<?xml version="1.0" encoding="UTF-8"?>
<!-- Generator: Adobe Illustrator 15.1.0, SVG Export Plug-In . SVG Version: 6.00 Build 0)  -->
<!DOCTYPE svg PUBLIC "-//W3C//DTD SVG 1.1//EN" "http://www.w3.org/Graphics/SVG/1.1/DTD/svg11.dtd">
<svg version="1.1" id="Mines_Nantes" xmlns="http://www.w3.org/2000/svg" xmlns:xlink="http://www.w3.org/1999/xlink" x="0px" y="0px" width="283.465px" height="283.465px" viewBox="0 0 283.465 283.465" enable-background="new 0 0 283.465 283.465" xml:space="preserve">
<g>
	<g>
		<path fill="#5C6670" d="M104.003,241.089l-12.831-19.54v19.54h-4.213V213.32h3.861l12.832,19.5v-19.5h4.212v27.769H104.003z"/>
		<path fill="#5C6670" d="M123.346,241.089v-1.794c-1.443,1.443-2.808,2.027-5.265,2.027c-2.458,0-4.096-0.584-5.305-1.793    c-1.014-1.054-1.56-2.574-1.56-4.252c0-3.314,2.301-5.693,6.825-5.693h5.226v-1.404c0-2.496-1.248-3.705-4.329-3.705    c-2.184,0-3.237,0.507-4.329,1.91l-2.613-2.457c1.872-2.184,3.822-2.847,7.099-2.847c5.421,0,8.151,2.302,8.151,6.786v13.222    H123.346z M123.268,232.353h-4.641c-2.341,0-3.55,1.054-3.55,2.847c0,1.795,1.132,2.809,3.628,2.809    c1.521,0,2.651-0.117,3.705-1.131c0.585-0.586,0.857-1.521,0.857-2.926V232.353z"/>
		<path fill="#5C6670" d="M143.471,241.089v-12.052c0-3.081-1.756-4.406-3.979-4.406c-2.224,0-4.096,1.364-4.096,4.406v12.052    h-3.978v-19.774h3.899v1.99c1.365-1.482,3.276-2.224,5.266-2.224c2.028,0,3.705,0.663,4.875,1.794    c1.521,1.482,1.99,3.354,1.99,5.577v12.637H143.471z"/>
		<path fill="#5C6670" d="M157.51,241.089c-3.705,0-5.422-2.652-5.422-5.499v-10.882h-2.262v-3.042h2.262v-6.006h3.979v6.006h3.822    v3.042h-3.822v10.687c0,1.443,0.703,2.301,2.186,2.301h1.637v3.394H157.51z"/>
		<path fill="#5C6670" d="M165.734,232.353c0,3.394,1.795,5.538,5.031,5.538c2.223,0,3.393-0.624,4.797-2.027l2.535,2.379    c-2.027,2.027-3.939,3.08-7.41,3.08c-4.953,0-8.893-2.612-8.893-10.14c0-6.396,3.314-10.102,8.385-10.102    c5.305,0,8.387,3.9,8.387,9.517v1.755H165.734z M174.08,226.893c-0.623-1.482-2.027-2.496-3.9-2.496    c-1.871,0-3.314,1.014-3.938,2.496c-0.391,0.896-0.469,1.482-0.508,2.691h8.893C174.588,228.375,174.471,227.789,174.08,226.893z"/>
		<path fill="#5C6670" d="M188.275,241.322c-3.236,0-5.967-0.545-8.307-2.847l2.613-2.612c1.598,1.638,3.744,2.066,5.693,2.066    c2.418,0,4.33-0.857,4.33-2.73c0-1.326-0.742-2.184-2.652-2.34l-3.16-0.273c-3.705-0.312-5.85-1.988-5.85-5.459    c0-3.861,3.314-6.046,7.449-6.046c2.965,0,5.5,0.624,7.332,2.224l-2.496,2.535c-1.248-1.054-3.002-1.443-4.875-1.443    c-2.379,0-3.588,1.053-3.588,2.535c0,1.17,0.625,2.066,2.73,2.262l3.119,0.273c3.705,0.312,5.891,2.066,5.891,5.576    C196.506,239.178,192.994,241.322,188.275,241.322z"/>
	</g>
</g>
<g>
	<path fill="#5C6670" d="M100.539,89.788l63.899-33.648l6.76-3.561c-0.172-0.093-0.346-0.19-0.519-0.279   c-0.749-0.383-2.232-1.124-4.039-1.93c-2.64-1.178-5.932-2.486-8.537-2.992c-0.069-0.009-0.146-0.03-0.214-0.044l-0.002,0.002   c-0.074-0.016-10.179-2.124-16.136-2.124c-33.136,0-60.007,25.635-60.007,57.26c0,4.436,0.549,8.744,1.549,12.887L19.823,164.33   l67.359-38.06l0.028,0.058c0.794,1.666,1.677,3.339,2.636,4.908l-42.012,33.879l49.258-24.408h0.002l5.631-5.029l34.914-31.19   l-40.644,22.745c-3.975-7.353-6.307-15.863-6.307-24.831c0-28.511,22.868-51.636,51.063-51.636c3.468,0,6.847,0.355,10.127,1.017   l-0.001,0L100.539,89.788z"/>
	<polygon fill="#5C6670" points="173.344,54.706 123.614,94.759 184.011,61.966 205.5,40.02  "/>
	<path fill="#5C6670" d="M200.176,89.327l63.466-49.307l-67.48,38.285c0.038,0.091,0.067,0.176,0.104,0.267   c-0.042-0.085-0.083-0.175-0.125-0.256l0.021-0.01c-0.84-1.719-1.767-3.386-2.773-5.007l39.939-32.829l-47.032,23.632l-0.703,0.35   l-5.044,4.39l-34.99,30.451l40.908-21.835c4.041,7.391,6.352,15.894,6.352,24.947c0,28.516-22.859,51.63-51.063,51.63   c-3.459,0-6.836-0.354-10.104-1.018l51.002-38.757l-63.354,34.528l-6.748,3.678c0.038,0.021,0.074,0.04,0.11,0.06   c4,2.122,8.274,3.821,12.767,5.034c0.062,0.015,0.123,0.029,0.184,0.044c5.14,1.373,10.547,2.129,16.145,2.129   c33.143,0,60.008-25.634,60.008-57.261c0-4.642-0.594-9.15-1.686-13.467C200.142,89.208,200.176,89.327,200.176,89.327z"/>
	<polygon fill="#5C6670" points="105.94,139.188 99.251,142.888 99.251,142.888 77.244,165.576 109.58,150.811 109.592,150.8    114.999,146.375 160.945,108.791  "/>
</g>
<g>
	<g>
		<path fill="#5C6670" d="M113.902,171.053c1.187,11.279,2.466,22.515,3.699,31.238c-0.822-0.047-1.462-0.138-2.146-0.138    c-0.731,0-1.462,0.091-2.146,0.138c-0.776-9.18-1.69-19.045-2.329-23.566c-5.298,9.453-9.226,16.761-11.966,23.063h-0.502    l-2.513-5.161c-2.923-6.027-6.119-11.965-9.225-17.902c-1.005,8.906-2.238,17.948-2.238,23.566    c-0.594-0.047-1.096-0.138-1.599-0.138c-0.593,0-1.096,0.091-1.644,0.138c1.188-7.354,3.928-26.443,4.384-31.238h1.188    c3.654,7.262,8.038,15.848,12.925,23.931c4.339-7.81,8.54-15.757,13.153-23.931H113.902z"/>
		<path fill="#5C6670" d="M121.936,171.053c0.64,0.045,1.325,0.137,2.01,0.137c0.64,0,1.279-0.092,2.01-0.137v31.238    c-0.73-0.047-1.37-0.138-2.01-0.138c-0.685,0-1.37,0.091-2.01,0.138V171.053z"/>
		<path fill="#5C6670" d="M159.064,202.291h-1.371c-0.502-0.641-1.415-1.736-2.374-2.787l-19.729-21.83h-0.456v24.617    c-0.457-0.047-0.868-0.138-1.279-0.138c-0.456,0-0.867,0.091-1.278,0.138v-31.238h1.781l21.692,23.52h0.457v-23.52    c0.411,0.045,0.821,0.137,1.278,0.137c0.411,0,0.822-0.092,1.279-0.137V202.291z"/>
		<path fill="#5C6670" d="M168.651,184.662h7.079c1.369,0,2.694-0.184,4.064-0.229c-0.046,0.365-0.137,0.776-0.137,1.188    c0,0.365,0.091,0.776,0.137,1.279c-1.37-0.047-2.695-0.229-4.064-0.229h-7.079v13.335c2.786,0.091,5.526-0.091,8.267-0.183    c1.416-0.046,2.785-0.183,4.201-0.411c-0.045,0.503-0.137,0.913-0.137,1.37s0.092,0.914,0.137,1.37h-16.486v-31.101h16.213    c-0.047,0.502-0.138,0.913-0.138,1.369c0,0.457,0.091,0.914,0.138,1.371c-1.371-0.274-2.74-0.412-4.111-0.503l-4.566-0.091h-3.517    V184.662z"/>
		<path fill="#5C6670" d="M184.771,196.125c1.781,2.923,3.837,4.75,7.398,4.75c3.699,0,6.349-3.061,6.349-6.668    c0-8.494-14.295-4.75-14.295-15.071c0-5.892,4.658-8.769,10.139-8.769c2.191,0,4.841,0.686,6.531,2.192    c-0.549,1.188-0.868,2.466-1.233,3.745h-0.457c-0.959-2.467-2.968-3.974-5.663-3.974c-3.15,0-5.754,2.101-5.754,5.343    c0,8.404,14.386,5.024,14.386,14.752c0,6.531-5.069,10.412-11.28,10.412c-2.238,0-5.892-0.959-7.444-2.648    c0.456-1.324,0.685-2.694,0.868-4.064H184.771z"/>
	</g>
</g>
</svg>