<?xml version="1.0" encoding="UTF-8"?>
<svg xmlns="http://www.w3.org/2000/svg" xmlns:xlink="http://www.w3.org/1999/xlink" width="5042pt" height="2634pt" viewBox="0 0 5042 2634" version="1.1">
<g id="surface2">
<path style=" stroke:none;fill-rule:nonzero;fill:rgb(93.333333%,93.333333%,92.156863%);fill-opacity:1;" d="M 0 55.75 L 385 55.75 L 385 101.125 L 0 101.125 Z M 0 55.75 "/>
<path style=" stroke:none;fill-rule:nonzero;fill:rgb(93.333333%,93.333333%,92.156863%);fill-opacity:1;" d="M 0 119.273438 L 385 119.273438 L 385 473.199219 L 0 473.199219 Z M 0 119.273438 "/>
<path style=" stroke:none;fill-rule:nonzero;fill:rgb(93.333333%,93.333333%,92.156863%);fill-opacity:1;" d="M 0 509.5 L 385 509.5 L 385 1988.726562 L 0 1988.726562 Z M 0 509.5 "/>
<path style=" stroke:none;fill-rule:nonzero;fill:rgb(93.333333%,93.333333%,92.156863%);fill-opacity:1;" d="M 0 2397.101562 L 385 2397.101562 L 385 2515.074219 L 0 2515.074219 Z M 0 2397.101562 "/>
<path style=" stroke:none;fill-rule:nonzero;fill:rgb(74.117647%,72.156863%,85.098039%);fill-opacity:1;" d="M 0 473.199219 L 385 473.199219 L 385 509.5 L 0 509.5 Z M 0 473.199219 "/>
<path style=" stroke:none;fill-rule:nonzero;fill:rgb(98.039216%,49.803922%,43.921569%);fill-opacity:1;" d="M 0 101.125 L 385 101.125 L 385 119.273438 L 0 119.273438 Z M 0 101.125 "/>
<path style=" stroke:none;fill-rule:nonzero;fill:rgb(74.117647%,72.156863%,85.098039%);fill-opacity:1;" d="M 0 1988.726562 L 385 1988.726562 L 385 2397.101562 L 0 2397.101562 Z M 0 1988.726562 "/>
<path style=" stroke:none;fill-rule:nonzero;fill:rgb(74.117647%,72.156863%,85.098039%);fill-opacity:1;" d="M 0 2515.074219 L 385 2515.074219 L 385 2605.828125 L 0 2605.828125 Z M 0 2515.074219 "/>
<path style=" stroke:none;fill-rule:nonzero;fill:rgb(93.333333%,93.333333%,92.156863%);fill-opacity:1;" d="M 0 2605.828125 L 385 2605.828125 L 385 2633.050781 L 0 2633.050781 Z M 0 2605.828125 "/>
<path style=" stroke:none;fill-rule:nonzero;fill:rgb(93.333333%,93.333333%,92.156863%);fill-opacity:1;" d="M 465.5 1.300781 L 846.996094 1.300781 L 846.996094 2633.050781 L 465.5 2633.050781 Z M 465.5 1.300781 "/>
<path style=" stroke:none;fill-rule:nonzero;fill:rgb(93.333333%,93.333333%,92.156863%);fill-opacity:1;" d="M 943.246094 1.300781 L 1324.75 1.300781 L 1324.75 2633.050781 L 943.246094 2633.050781 Z M 943.246094 1.300781 "/>
<path style=" stroke:none;fill-rule:nonzero;fill:rgb(93.333333%,93.333333%,92.156863%);fill-opacity:1;" d="M 1405.25 1.300781 L 1786.746094 1.300781 L 1786.746094 2633.050781 L 1405.25 2633.050781 Z M 1405.25 1.300781 "/>
<path style=" stroke:none;fill-rule:nonzero;fill:rgb(93.333333%,93.333333%,92.156863%);fill-opacity:1;" d="M 1867.25 1.300781 L 2252.25 1.300781 L 2252.25 781.75 L 1867.25 781.75 Z M 1867.25 1.300781 "/>
<path style=" stroke:none;fill-rule:nonzero;fill:rgb(93.333333%,93.333333%,92.156863%);fill-opacity:1;" d="M 1867.25 1652.953125 L 2252.25 1652.953125 L 2252.25 2061.324219 L 1867.25 2061.324219 Z M 1867.25 1652.953125 "/>
<path style=" stroke:none;fill-rule:nonzero;fill:rgb(93.333333%,93.333333%,92.156863%);fill-opacity:1;" d="M 1867.25 2079.476562 L 2252.25 2079.476562 L 2252.25 2633.050781 L 1867.25 2633.050781 Z M 1867.25 2079.476562 "/>
<path style=" stroke:none;fill-rule:nonzero;fill:rgb(93.333333%,93.333333%,92.156863%);fill-opacity:1;" d="M 2329.246094 1.300781 L 2714.246094 1.300781 L 2714.246094 46.679688 L 2329.246094 46.679688 Z M 2329.246094 1.300781 "/>
<path style=" stroke:none;fill-rule:nonzero;fill:rgb(93.333333%,93.333333%,92.156863%);fill-opacity:1;" d="M 2329.246094 64.828125 L 2714.246094 64.828125 L 2714.246094 536.726562 L 2329.246094 536.726562 Z M 2329.246094 64.828125 "/>
<path style=" stroke:none;fill-rule:nonzero;fill:rgb(93.333333%,93.333333%,92.156863%);fill-opacity:1;" d="M 2329.246094 718.226562 L 2714.246094 718.226562 L 2714.246094 772.679688 L 2329.246094 772.679688 Z M 2329.246094 718.226562 "/>
<path style=" stroke:none;fill-rule:nonzero;fill:rgb(93.333333%,93.333333%,92.156863%);fill-opacity:1;" d="M 2329.246094 781.75 L 2714.246094 781.75 L 2714.246094 808.976562 L 2329.246094 808.976562 Z M 2329.246094 781.75 "/>
<path style=" stroke:none;fill-rule:nonzero;fill:rgb(93.333333%,93.333333%,92.156863%);fill-opacity:1;" d="M 2329.246094 854.351562 L 2714.246094 854.351562 L 2714.246094 872.503906 L 2329.246094 872.503906 Z M 2329.246094 854.351562 "/>
<path style=" stroke:none;fill-rule:nonzero;fill:rgb(93.333333%,93.333333%,92.156863%);fill-opacity:1;" d="M 2329.246094 881.574219 L 2714.246094 881.574219 L 2714.246094 899.726562 L 2329.246094 899.726562 Z M 2329.246094 881.574219 "/>
<path style=" stroke:none;fill-rule:nonzero;fill:rgb(74.117647%,72.156863%,85.098039%);fill-opacity:1;" d="M 1867.25 845.277344 L 2252.25 845.277344 L 2252.25 1652.953125 L 1867.25 1652.953125 Z M 1867.25 845.277344 "/>
<path style=" stroke:none;fill-rule:nonzero;fill:rgb(93.333333%,93.333333%,92.156863%);fill-opacity:1;" d="M 1867.25 808.976562 L 2252.25 808.976562 L 2252.25 845.277344 L 1867.25 845.277344 Z M 1867.25 808.976562 "/>
<path style=" stroke:none;fill-rule:nonzero;fill:rgb(74.117647%,72.156863%,85.098039%);fill-opacity:1;" d="M 1867.25 781.75 L 2252.25 781.75 L 2252.25 808.976562 L 1867.25 808.976562 Z M 1867.25 781.75 "/>
<path style=" stroke:none;fill-rule:nonzero;fill:rgb(84.313725%,81.176471%,10.980392%);fill-opacity:1;" d="M 1867.25 2061.324219 L 2252.25 2061.324219 L 2252.25 2079.476562 L 1867.25 2079.476562 Z M 1867.25 2061.324219 "/>
<path style=" stroke:none;fill-rule:nonzero;fill:rgb(84.313725%,81.176471%,10.980392%);fill-opacity:1;" d="M 2329.246094 46.679688 L 2714.246094 46.679688 L 2714.246094 64.828125 L 2329.246094 64.828125 Z M 2329.246094 46.679688 "/>
<path style=" stroke:none;fill-rule:nonzero;fill:rgb(98.039216%,49.803922%,43.921569%);fill-opacity:1;" d="M 2329.246094 808.976562 L 2714.246094 808.976562 L 2714.246094 854.351562 L 2329.246094 854.351562 Z M 2329.246094 808.976562 "/>
<path style=" stroke:none;fill-rule:nonzero;fill:rgb(74.117647%,72.156863%,85.098039%);fill-opacity:1;" d="M 2329.246094 772.679688 L 2714.246094 772.679688 L 2714.246094 781.75 L 2329.246094 781.75 Z M 2329.246094 772.679688 "/>
<path style=" stroke:none;fill-rule:nonzero;fill:rgb(98.039216%,49.803922%,43.921569%);fill-opacity:1;" d="M 2329.246094 536.726562 L 2714.246094 536.726562 L 2714.246094 718.226562 L 2329.246094 718.226562 Z M 2329.246094 536.726562 "/>
<path style=" stroke:none;fill-rule:nonzero;fill:rgb(98.039216%,49.803922%,43.921569%);fill-opacity:1;" d="M 2329.246094 872.503906 L 2714.246094 872.503906 L 2714.246094 881.574219 L 2329.246094 881.574219 Z M 2329.246094 872.503906 "/>
<path style=" stroke:none;fill-rule:nonzero;fill:rgb(66.27451%,77.254902%,88.627451%);fill-opacity:1;" d="M 3075 1.300781 L 3460 1.300781 L 3460 2633.050781 L 3075 2633.050781 Z M 3075 1.300781 "/>
<path style=" stroke:none;fill-rule:nonzero;fill:rgb(66.27451%,77.254902%,88.627451%);fill-opacity:1;" d="M 3541.023438 1.300781 L 3926.023438 1.300781 L 3926.023438 1887.410156 L 3541.023438 1887.410156 Z M 3541.023438 1.300781 "/>
<path style=" stroke:none;fill-rule:nonzero;fill:rgb(89.411765%,59.607843%,39.607843%);fill-opacity:1;" d="M 4655 0.75 L 5040 0.75 L 5040 1080.316406 L 4655 1080.316406 Z M 4655 0.75 "/>
<path style=" stroke:none;fill-rule:nonzero;fill:rgb(48.627451%,80.784314%,65.490196%);fill-opacity:1;" d="M 4095 1.300781 L 4480 1.300781 L 4480 1461.894531 L 4095 1461.894531 Z M 4095 1.300781 "/>
<path style=" stroke:none;fill-rule:nonzero;fill:rgb(94.901961%,83.529412%,65.490196%);fill-opacity:1;" d="M 4095 1820.75 L 4480 1820.75 L 4480 2537.4375 L 4095 2537.4375 Z M 4095 1820.75 "/>
</g>
</svg>
