<?xml version="1.0" encoding="UTF-8"?>
<svg xmlns="http://www.w3.org/2000/svg" xmlns:xlink="http://www.w3.org/1999/xlink" width="2716pt" height="2633pt" viewBox="0 0 2716 2633" version="1.1">
<g id="surface2">
<path style=" stroke:none;fill-rule:nonzero;fill:rgb(93.333333%,93.333333%,92.156863%);fill-opacity:1;" d="M 0.351562 55.15625 L 385.351562 55.15625 L 385.351562 100.53125 L 0.351562 100.53125 Z M 0.351562 55.15625 "/>
<path style=" stroke:none;fill-rule:nonzero;fill:rgb(93.333333%,93.333333%,92.156863%);fill-opacity:1;" d="M 0.351562 118.683594 L 385.351562 118.683594 L 385.351562 472.609375 L 0.351562 472.609375 Z M 0.351562 118.683594 "/>
<path style=" stroke:none;fill-rule:nonzero;fill:rgb(93.333333%,93.333333%,92.156863%);fill-opacity:1;" d="M 0.351562 508.90625 L 385.351562 508.90625 L 385.351562 1988.136719 L 0.351562 1988.136719 Z M 0.351562 508.90625 "/>
<path style=" stroke:none;fill-rule:nonzero;fill:rgb(93.333333%,93.333333%,92.156863%);fill-opacity:1;" d="M 0.351562 2396.507812 L 385.351562 2396.507812 L 385.351562 2514.484375 L 0.351562 2514.484375 Z M 0.351562 2396.507812 "/>
<path style=" stroke:none;fill-rule:nonzero;fill:rgb(93.333333%,93.333333%,92.156863%);fill-opacity:1;" d="M 0.351562 472.609375 L 385.351562 472.609375 L 385.351562 508.90625 L 0.351562 508.90625 Z M 0.351562 472.609375 "/>
<path style=" stroke:none;fill-rule:nonzero;fill:rgb(98.039216%,49.803922%,43.921569%);fill-opacity:1;" d="M 0.351562 100.53125 L 385.351562 100.53125 L 385.351562 118.683594 L 0.351562 118.683594 Z M 0.351562 100.53125 "/>
<path style=" stroke:none;fill-rule:nonzero;fill:rgb(93.333333%,93.333333%,92.156863%);fill-opacity:1;" d="M 0.351562 1988.136719 L 385.351562 1988.136719 L 385.351562 2396.507812 L 0.351562 2396.507812 Z M 0.351562 1988.136719 "/>
<path style=" stroke:none;fill-rule:nonzero;fill:rgb(93.333333%,93.333333%,92.156863%);fill-opacity:1;" d="M 0.351562 2514.484375 L 385.351562 2514.484375 L 385.351562 2605.234375 L 0.351562 2605.234375 Z M 0.351562 2514.484375 "/>
<path style=" stroke:none;fill-rule:nonzero;fill:rgb(93.333333%,93.333333%,92.156863%);fill-opacity:1;" d="M 0.351562 2605.234375 L 385.351562 2605.234375 L 385.351562 2632.457031 L 0.351562 2632.457031 Z M 0.351562 2605.234375 "/>
<path style=" stroke:none;fill-rule:nonzero;fill:rgb(93.333333%,93.333333%,92.156863%);fill-opacity:1;" d="M 465.847656 0.707031 L 847.347656 0.707031 L 847.347656 2632.457031 L 465.847656 2632.457031 Z M 465.847656 0.707031 "/>
<path style=" stroke:none;fill-rule:nonzero;fill:rgb(93.333333%,93.333333%,92.156863%);fill-opacity:1;" d="M 943.597656 0.707031 L 1325.101562 0.707031 L 1325.101562 2632.457031 L 943.597656 2632.457031 Z M 943.597656 0.707031 "/>
<path style=" stroke:none;fill-rule:nonzero;fill:rgb(93.333333%,93.333333%,92.156863%);fill-opacity:1;" d="M 1405.597656 0.707031 L 1787.097656 0.707031 L 1787.097656 2632.457031 L 1405.597656 2632.457031 Z M 1405.597656 0.707031 "/>
<path style=" stroke:none;fill-rule:nonzero;fill:rgb(93.333333%,93.333333%,92.156863%);fill-opacity:1;" d="M 1867.601562 0.707031 L 2252.601562 0.707031 L 2252.601562 781.15625 L 1867.601562 781.15625 Z M 1867.601562 0.707031 "/>
<path style=" stroke:none;fill-rule:nonzero;fill:rgb(93.333333%,93.333333%,92.156863%);fill-opacity:1;" d="M 1867.601562 1652.359375 L 2252.601562 1652.359375 L 2252.601562 2060.734375 L 1867.601562 2060.734375 Z M 1867.601562 1652.359375 "/>
<path style=" stroke:none;fill-rule:nonzero;fill:rgb(93.333333%,93.333333%,92.156863%);fill-opacity:1;" d="M 1867.601562 2078.882812 L 2252.601562 2078.882812 L 2252.601562 2632.457031 L 1867.601562 2632.457031 Z M 1867.601562 2078.882812 "/>
<path style=" stroke:none;fill-rule:nonzero;fill:rgb(93.333333%,93.333333%,92.156863%);fill-opacity:1;" d="M 2329.597656 0.707031 L 2714.597656 0.707031 L 2714.597656 46.085938 L 2329.597656 46.085938 Z M 2329.597656 0.707031 "/>
<path style=" stroke:none;fill-rule:nonzero;fill:rgb(93.333333%,93.333333%,92.156863%);fill-opacity:1;" d="M 2329.597656 64.234375 L 2714.597656 64.234375 L 2714.597656 536.132812 L 2329.597656 536.132812 Z M 2329.597656 64.234375 "/>
<path style=" stroke:none;fill-rule:nonzero;fill:rgb(93.333333%,93.333333%,92.156863%);fill-opacity:1;" d="M 2329.597656 717.632812 L 2714.597656 717.632812 L 2714.597656 772.085938 L 2329.597656 772.085938 Z M 2329.597656 717.632812 "/>
<path style=" stroke:none;fill-rule:nonzero;fill:rgb(93.333333%,93.333333%,92.156863%);fill-opacity:1;" d="M 2329.597656 781.15625 L 2714.597656 781.15625 L 2714.597656 808.382812 L 2329.597656 808.382812 Z M 2329.597656 781.15625 "/>
<path style=" stroke:none;fill-rule:nonzero;fill:rgb(93.333333%,93.333333%,92.156863%);fill-opacity:1;" d="M 2329.597656 853.761719 L 2714.597656 853.761719 L 2714.597656 871.910156 L 2329.597656 871.910156 Z M 2329.597656 853.761719 "/>
<path style=" stroke:none;fill-rule:nonzero;fill:rgb(93.333333%,93.333333%,92.156863%);fill-opacity:1;" d="M 2329.597656 880.980469 L 2714.597656 880.980469 L 2714.597656 899.132812 L 2329.597656 899.132812 Z M 2329.597656 880.980469 "/>
<path style=" stroke:none;fill-rule:nonzero;fill:rgb(93.333333%,93.333333%,92.156863%);fill-opacity:1;" d="M 1867.601562 844.683594 L 2252.601562 844.683594 L 2252.601562 1652.359375 L 1867.601562 1652.359375 Z M 1867.601562 844.683594 "/>
<path style=" stroke:none;fill-rule:nonzero;fill:rgb(93.333333%,93.333333%,92.156863%);fill-opacity:1;" d="M 1867.601562 808.382812 L 2252.601562 808.382812 L 2252.601562 844.683594 L 1867.601562 844.683594 Z M 1867.601562 808.382812 "/>
<path style=" stroke:none;fill-rule:nonzero;fill:rgb(93.333333%,93.333333%,92.156863%);fill-opacity:1;" d="M 1867.601562 781.15625 L 2252.601562 781.15625 L 2252.601562 808.382812 L 1867.601562 808.382812 Z M 1867.601562 781.15625 "/>
<path style=" stroke:none;fill-rule:nonzero;fill:rgb(93.333333%,93.333333%,92.156863%);fill-opacity:1;" d="M 1867.601562 2060.734375 L 2252.601562 2060.734375 L 2252.601562 2078.882812 L 1867.601562 2078.882812 Z M 1867.601562 2060.734375 "/>
<path style=" stroke:none;fill-rule:nonzero;fill:rgb(93.333333%,93.333333%,92.156863%);fill-opacity:1;" d="M 2329.597656 46.085938 L 2714.597656 46.085938 L 2714.597656 64.234375 L 2329.597656 64.234375 Z M 2329.597656 46.085938 "/>
<path style=" stroke:none;fill-rule:nonzero;fill:rgb(98.039216%,49.803922%,43.921569%);fill-opacity:1;" d="M 2329.597656 808.382812 L 2714.597656 808.382812 L 2714.597656 853.761719 L 2329.597656 853.761719 Z M 2329.597656 808.382812 "/>
<path style=" stroke:none;fill-rule:nonzero;fill:rgb(93.333333%,93.333333%,92.156863%);fill-opacity:1;" d="M 2329.597656 772.085938 L 2714.597656 772.085938 L 2714.597656 781.15625 L 2329.597656 781.15625 Z M 2329.597656 772.085938 "/>
<path style=" stroke:none;fill-rule:nonzero;fill:rgb(98.039216%,49.803922%,43.921569%);fill-opacity:1;" d="M 2329.597656 536.132812 L 2714.597656 536.132812 L 2714.597656 717.632812 L 2329.597656 717.632812 Z M 2329.597656 536.132812 "/>
<path style=" stroke:none;fill-rule:nonzero;fill:rgb(98.039216%,49.803922%,43.921569%);fill-opacity:1;" d="M 2329.597656 871.910156 L 2714.597656 871.910156 L 2714.597656 880.980469 L 2329.597656 880.980469 Z M 2329.597656 871.910156 "/>
</g>
</svg>
