<?xml version="1.0" encoding="UTF-8"?>
<svg xmlns="http://www.w3.org/2000/svg" xmlns:xlink="http://www.w3.org/1999/xlink" width="2716pt" height="2633pt" viewBox="0 0 2716 2633" version="1.1">
<g id="surface2">
<path style=" stroke:none;fill-rule:nonzero;fill:rgb(93.333333%,93.333333%,92.54902%);fill-opacity:1;" d="M 0 53.511719 L 385 53.511719 L 385 98.886719 L 0 98.886719 Z M 0 53.511719 "/>
<path style=" stroke:none;fill-rule:nonzero;fill:rgb(93.333333%,93.333333%,92.54902%);fill-opacity:1;" d="M 0 117.035156 L 385 117.035156 L 385 470.960938 L 0 470.960938 Z M 0 117.035156 "/>
<path style=" stroke:none;fill-rule:nonzero;fill:rgb(93.333333%,93.333333%,92.54902%);fill-opacity:1;" d="M 0 507.261719 L 385 507.261719 L 385 1986.488281 L 0 1986.488281 Z M 0 507.261719 "/>
<path style=" stroke:none;fill-rule:nonzero;fill:rgb(93.333333%,93.333333%,92.54902%);fill-opacity:1;" d="M 0 2394.863281 L 385 2394.863281 L 385 2512.835938 L 0 2512.835938 Z M 0 2394.863281 "/>
<path style=" stroke:none;fill-rule:nonzero;fill:rgb(74.509804%,72.941176%,85.490196%);fill-opacity:1;" d="M 0 470.960938 L 385 470.960938 L 385 507.261719 L 0 507.261719 Z M 0 470.960938 "/>
<path style=" stroke:none;fill-rule:nonzero;fill:rgb(98.431373%,50.196078%,44.705882%);fill-opacity:1;" d="M 0 98.886719 L 385 98.886719 L 385 117.035156 L 0 117.035156 Z M 0 98.886719 "/>
<path style=" stroke:none;fill-rule:nonzero;fill:rgb(74.509804%,72.941176%,85.490196%);fill-opacity:1;" d="M 0 1986.488281 L 385 1986.488281 L 385 2394.863281 L 0 2394.863281 Z M 0 1986.488281 "/>
<path style=" stroke:none;fill-rule:nonzero;fill:rgb(74.509804%,72.941176%,85.490196%);fill-opacity:1;" d="M 0 2512.835938 L 385 2512.835938 L 385 2603.589844 L 0 2603.589844 Z M 0 2512.835938 "/>
<path style=" stroke:none;fill-rule:nonzero;fill:rgb(93.333333%,93.333333%,92.54902%);fill-opacity:1;" d="M 0 2603.589844 L 385 2603.589844 L 385 2630.8125 L 0 2630.8125 Z M 0 2603.589844 "/>
<path style=" stroke:none;fill-rule:nonzero;fill:rgb(93.333333%,93.333333%,92.54902%);fill-opacity:1;" d="M 465.5 -0.9375 L 847 -0.9375 L 847 2630.8125 L 465.5 2630.8125 Z M 465.5 -0.9375 "/>
<path style=" stroke:none;fill-rule:nonzero;fill:rgb(93.333333%,93.333333%,92.156863%);fill-opacity:1;" d="M 943.25 -0.9375 L 1324.75 -0.9375 L 1324.75 2630.8125 L 943.25 2630.8125 Z M 943.25 -0.9375 "/>
<path style=" stroke:none;fill-rule:nonzero;fill:rgb(93.333333%,93.333333%,92.54902%);fill-opacity:1;" d="M 1405.25 -0.9375 L 1786.75 -0.9375 L 1786.75 2630.8125 L 1405.25 2630.8125 Z M 1405.25 -0.9375 "/>
<path style=" stroke:none;fill-rule:nonzero;fill:rgb(93.333333%,93.333333%,92.54902%);fill-opacity:1;" d="M 1867.25 -0.9375 L 2252.25 -0.9375 L 2252.25 779.511719 L 1867.25 779.511719 Z M 1867.25 -0.9375 "/>
<path style=" stroke:none;fill-rule:nonzero;fill:rgb(93.333333%,93.333333%,92.54902%);fill-opacity:1;" d="M 1867.25 1650.710938 L 2252.25 1650.710938 L 2252.25 2059.085938 L 1867.25 2059.085938 Z M 1867.25 1650.710938 "/>
<path style=" stroke:none;fill-rule:nonzero;fill:rgb(93.333333%,93.333333%,92.54902%);fill-opacity:1;" d="M 1867.25 2077.234375 L 2252.25 2077.234375 L 2252.25 2630.8125 L 1867.25 2630.8125 Z M 1867.25 2077.234375 "/>
<path style=" stroke:none;fill-rule:nonzero;fill:rgb(93.333333%,93.333333%,92.54902%);fill-opacity:1;" d="M 2329.25 -0.9375 L 2714.25 -0.9375 L 2714.25 44.4375 L 2329.25 44.4375 Z M 2329.25 -0.9375 "/>
<path style=" stroke:none;fill-rule:nonzero;fill:rgb(93.333333%,93.333333%,92.54902%);fill-opacity:1;" d="M 2329.25 62.585938 L 2714.25 62.585938 L 2714.25 534.488281 L 2329.25 534.488281 Z M 2329.25 62.585938 "/>
<path style=" stroke:none;fill-rule:nonzero;fill:rgb(93.333333%,93.333333%,92.54902%);fill-opacity:1;" d="M 2329.25 715.984375 L 2714.25 715.984375 L 2714.25 770.4375 L 2329.25 770.4375 Z M 2329.25 715.984375 "/>
<path style=" stroke:none;fill-rule:nonzero;fill:rgb(93.333333%,93.333333%,92.54902%);fill-opacity:1;" d="M 2329.25 779.511719 L 2714.25 779.511719 L 2714.25 806.738281 L 2329.25 806.738281 Z M 2329.25 779.511719 "/>
<path style=" stroke:none;fill-rule:nonzero;fill:rgb(93.333333%,93.333333%,92.54902%);fill-opacity:1;" d="M 2329.25 852.113281 L 2714.25 852.113281 L 2714.25 870.265625 L 2329.25 870.265625 Z M 2329.25 852.113281 "/>
<path style=" stroke:none;fill-rule:nonzero;fill:rgb(93.333333%,93.333333%,92.54902%);fill-opacity:1;" d="M 2329.25 879.335938 L 2714.25 879.335938 L 2714.25 897.484375 L 2329.25 897.484375 Z M 2329.25 879.335938 "/>
<path style=" stroke:none;fill-rule:nonzero;fill:rgb(74.117647%,72.156863%,85.098039%);fill-opacity:1;" d="M 1867.25 843.039062 L 2252.25 843.039062 L 2252.25 1650.710938 L 1867.25 1650.710938 Z M 1867.25 843.039062 "/>
<path style=" stroke:none;fill-rule:nonzero;fill:rgb(93.333333%,93.333333%,92.54902%);fill-opacity:1;" d="M 1867.25 806.738281 L 2252.25 806.738281 L 2252.25 843.039062 L 1867.25 843.039062 Z M 1867.25 806.738281 "/>
<path style=" stroke:none;fill-rule:nonzero;fill:rgb(74.509804%,72.941176%,85.490196%);fill-opacity:1;" d="M 1867.25 779.511719 L 2252.25 779.511719 L 2252.25 806.738281 L 1867.25 806.738281 Z M 1867.25 779.511719 "/>
<path style=" stroke:none;fill-rule:nonzero;fill:rgb(100%,100%,70.196078%);fill-opacity:1;" d="M 1867.25 2059.085938 L 2252.25 2059.085938 L 2252.25 2077.234375 L 1867.25 2077.234375 Z M 1867.25 2059.085938 "/>
<path style=" stroke:none;fill-rule:nonzero;fill:rgb(84.313725%,81.176471%,10.980392%);fill-opacity:1;" d="M 2329.25 44.4375 L 2714.25 44.4375 L 2714.25 62.585938 L 2329.25 62.585938 Z M 2329.25 44.4375 "/>
<path style=" stroke:none;fill-rule:nonzero;fill:rgb(98.431373%,50.196078%,44.705882%);fill-opacity:1;" d="M 2329.25 806.738281 L 2714.25 806.738281 L 2714.25 852.113281 L 2329.25 852.113281 Z M 2329.25 806.738281 "/>
<path style=" stroke:none;fill-rule:nonzero;fill:rgb(74.509804%,72.941176%,85.490196%);fill-opacity:1;" d="M 2329.25 770.4375 L 2714.25 770.4375 L 2714.25 779.511719 L 2329.25 779.511719 Z M 2329.25 770.4375 "/>
<path style=" stroke:none;fill-rule:nonzero;fill:rgb(98.039216%,49.803922%,43.921569%);fill-opacity:1;" d="M 2329.25 534.488281 L 2714.25 534.488281 L 2714.25 715.984375 L 2329.25 715.984375 Z M 2329.25 534.488281 "/>
<path style=" stroke:none;fill-rule:nonzero;fill:rgb(98.431373%,50.196078%,44.705882%);fill-opacity:1;" d="M 2329.25 870.265625 L 2714.25 870.265625 L 2714.25 879.335938 L 2329.25 879.335938 Z M 2329.25 870.265625 "/>
</g>
</svg>
