<?xml version="1.0" encoding="UTF-8"?>
<svg xmlns="http://www.w3.org/2000/svg" xmlns:xlink="http://www.w3.org/1999/xlink" width="2554pt" height="2101pt" viewBox="0 0 2554 2101" version="1.1">
<g id="surface3">
<path style=" stroke:none;fill-rule:nonzero;fill:rgb(98.431373%,50.196078%,44.705882%);fill-opacity:1;" d="M 0 108.445312 L 320 108.445312 L 320 178.195312 L 0 178.195312 Z M 0 108.445312 "/>
<path style=" stroke:none;fill-rule:nonzero;fill:rgb(55.294118%,82.745098%,78.039216%);fill-opacity:1;" d="M 0 371.808594 L 320 371.808594 L 320 387.308594 L 0 387.308594 Z M 0 371.808594 "/>
<path style=" stroke:none;fill-rule:nonzero;fill:rgb(93.333333%,93.333333%,92.54902%);fill-opacity:1;" d="M 0 387.300781 L 320 387.300781 L 320 441.550781 L 0 441.550781 Z M 0 387.300781 "/>
<path style=" stroke:none;fill-rule:nonzero;fill:rgb(55.294118%,82.745098%,78.039216%);fill-opacity:1;" d="M 0 441.523438 L 320 441.523438 L 320 449.273438 L 0 449.273438 Z M 0 441.523438 "/>
<path style=" stroke:none;fill-rule:nonzero;fill:rgb(93.333333%,93.333333%,92.54902%);fill-opacity:1;" d="M 0 542.21875 L 320 542.21875 L 320 627.46875 L 0 627.46875 Z M 0 542.21875 "/>
<path style=" stroke:none;fill-rule:nonzero;fill:rgb(55.294118%,82.745098%,78.039216%);fill-opacity:1;" d="M 0 627.425781 L 320 627.425781 L 320 642.925781 L 0 642.925781 Z M 0 627.425781 "/>
<path style=" stroke:none;fill-rule:nonzero;fill:rgb(93.333333%,93.333333%,92.54902%);fill-opacity:1;" d="M 0 642.917969 L 320 642.917969 L 320 751.417969 L 0 751.417969 Z M 0 642.917969 "/>
<path style=" stroke:none;fill-rule:nonzero;fill:rgb(93.333333%,93.333333%,92.54902%);fill-opacity:1;" d="M 0 867.550781 L 320 867.550781 L 320 1100.050781 L 0 1100.050781 Z M 0 867.550781 "/>
<path style=" stroke:none;fill-rule:nonzero;fill:rgb(74.509804%,72.941176%,85.490196%);fill-opacity:1;" d="M 0 1099.933594 L 320 1099.933594 L 320 1154.183594 L 0 1154.183594 Z M 0 1099.933594 "/>
<path style=" stroke:none;fill-rule:nonzero;fill:rgb(74.509804%,72.941176%,85.490196%);fill-opacity:1;" d="M 0 1185.136719 L 320 1185.136719 L 320 1247.136719 L 0 1247.136719 Z M 0 1185.136719 "/>
<path style=" stroke:none;fill-rule:nonzero;fill:rgb(93.333333%,93.333333%,92.54902%);fill-opacity:1;" d="M 0 1247.105469 L 320 1247.105469 L 320 1262.605469 L 0 1262.605469 Z M 0 1247.105469 "/>
<path style=" stroke:none;fill-rule:nonzero;fill:rgb(74.509804%,72.941176%,85.490196%);fill-opacity:1;" d="M 0 1262.597656 L 320 1262.597656 L 320 1278.097656 L 0 1278.097656 Z M 0 1262.597656 "/>
<path style=" stroke:none;fill-rule:nonzero;fill:rgb(74.509804%,72.941176%,85.490196%);fill-opacity:1;" d="M 0 1402.027344 L 320 1402.027344 L 320 1727.527344 L 0 1727.527344 Z M 0 1402.027344 "/>
<path style=" stroke:none;fill-rule:nonzero;fill:rgb(100%,100%,70.196078%);fill-opacity:1;" d="M 0 1797.070312 L 320 1797.070312 L 320 2099.320312 L 0 2099.320312 Z M 0 1797.070312 "/>
<path style=" stroke:none;fill-rule:nonzero;fill:rgb(93.333333%,93.333333%,92.54902%);fill-opacity:1;" d="M 372 23.238281 L 692 23.238281 L 692 371.988281 L 372 371.988281 Z M 372 23.238281 "/>
<path style=" stroke:none;fill-rule:nonzero;fill:rgb(55.294118%,82.745098%,78.039216%);fill-opacity:1;" d="M 372 371.808594 L 692 371.808594 L 692 395.058594 L 372 395.058594 Z M 372 371.808594 "/>
<path style=" stroke:none;fill-rule:nonzero;fill:rgb(93.333333%,93.333333%,92.54902%);fill-opacity:1;" d="M 372 395.046875 L 692 395.046875 L 692 751.546875 L 372 751.546875 Z M 372 395.046875 "/>
<path style=" stroke:none;fill-rule:nonzero;fill:rgb(74.509804%,72.941176%,85.490196%);fill-opacity:1;" d="M 372 751.363281 L 692 751.363281 L 692 766.863281 L 372 766.863281 Z M 372 751.363281 "/>
<path style=" stroke:none;fill-rule:nonzero;fill:rgb(93.333333%,93.333333%,92.54902%);fill-opacity:1;" d="M 372 766.855469 L 692 766.855469 L 692 1022.605469 L 372 1022.605469 Z M 372 766.855469 "/>
<path style=" stroke:none;fill-rule:nonzero;fill:rgb(100%,100%,70.196078%);fill-opacity:1;" d="M 372 1022.472656 L 692 1022.472656 L 692 1200.722656 L 372 1200.722656 Z M 372 1022.472656 "/>
<path style=" stroke:none;fill-rule:nonzero;fill:rgb(93.333333%,93.333333%,92.54902%);fill-opacity:1;" d="M 372 1200.628906 L 692 1200.628906 L 692 1301.378906 L 372 1301.378906 Z M 372 1200.628906 "/>
<path style=" stroke:none;fill-rule:nonzero;fill:rgb(100%,100%,70.196078%);fill-opacity:1;" d="M 372 1301.328125 L 692 1301.328125 L 692 1464.078125 L 372 1464.078125 Z M 372 1301.328125 "/>
<path style=" stroke:none;fill-rule:nonzero;fill:rgb(93.333333%,93.333333%,92.54902%);fill-opacity:1;" d="M 372 1463.992188 L 692 1463.992188 L 692 2099.492188 L 372 2099.492188 Z M 372 1463.992188 "/>
<path style=" stroke:none;fill-rule:nonzero;fill:rgb(93.333333%,93.333333%,92.54902%);fill-opacity:1;" d="M 744 0 L 1064 0 L 1064 15.5 L 744 15.5 Z M 744 0 "/>
<path style=" stroke:none;fill-rule:nonzero;fill:rgb(55.294118%,82.745098%,78.039216%);fill-opacity:1;" d="M 744 15.492188 L 1064 15.492188 L 1064 30.992188 L 744 30.992188 Z M 744 15.492188 "/>
<path style=" stroke:none;fill-rule:nonzero;fill:rgb(93.333333%,93.333333%,92.54902%);fill-opacity:1;" d="M 744 30.984375 L 1064 30.984375 L 1064 836.984375 L 744 836.984375 Z M 744 30.984375 "/>
<path style=" stroke:none;fill-rule:nonzero;fill:rgb(100%,100%,70.196078%);fill-opacity:1;" d="M 744 836.566406 L 1064 836.566406 L 1064 921.816406 L 744 921.816406 Z M 744 836.566406 "/>
<path style=" stroke:none;fill-rule:nonzero;fill:rgb(93.333333%,93.333333%,92.54902%);fill-opacity:1;" d="M 744 921.773438 L 1064 921.773438 L 1064 976.023438 L 744 976.023438 Z M 744 921.773438 "/>
<path style=" stroke:none;fill-rule:nonzero;fill:rgb(55.294118%,82.745098%,78.039216%);fill-opacity:1;" d="M 744 975.996094 L 1064 975.996094 L 1064 991.496094 L 744 991.496094 Z M 744 975.996094 "/>
<path style=" stroke:none;fill-rule:nonzero;fill:rgb(93.333333%,93.333333%,92.54902%);fill-opacity:1;" d="M 744 991.488281 L 1064 991.488281 L 1064 1107.738281 L 744 1107.738281 Z M 744 991.488281 "/>
<path style=" stroke:none;fill-rule:nonzero;fill:rgb(55.294118%,82.745098%,78.039216%);fill-opacity:1;" d="M 744 1107.679688 L 1064 1107.679688 L 1064 1123.179688 L 744 1123.179688 Z M 744 1107.679688 "/>
<path style=" stroke:none;fill-rule:nonzero;fill:rgb(93.333333%,93.333333%,92.54902%);fill-opacity:1;" d="M 744 1123.171875 L 1064 1123.171875 L 1064 1309.171875 L 744 1309.171875 Z M 744 1123.171875 "/>
<path style=" stroke:none;fill-rule:nonzero;fill:rgb(55.294118%,82.745098%,78.039216%);fill-opacity:1;" d="M 744 1309.074219 L 1064 1309.074219 L 1064 1324.574219 L 744 1324.574219 Z M 744 1309.074219 "/>
<path style=" stroke:none;fill-rule:nonzero;fill:rgb(93.333333%,93.333333%,92.54902%);fill-opacity:1;" d="M 744 1324.566406 L 1064 1324.566406 L 1064 1340.066406 L 744 1340.066406 Z M 744 1324.566406 "/>
<path style=" stroke:none;fill-rule:nonzero;fill:rgb(100%,100%,70.196078%);fill-opacity:1;" d="M 744 1340.058594 L 1064 1340.058594 L 1064 1541.558594 L 744 1541.558594 Z M 744 1340.058594 "/>
<path style=" stroke:none;fill-rule:nonzero;fill:rgb(93.333333%,93.333333%,92.54902%);fill-opacity:1;" d="M 744 1541.453125 L 1064 1541.453125 L 1064 1611.203125 L 744 1611.203125 Z M 744 1541.453125 "/>
<path style=" stroke:none;fill-rule:nonzero;fill:rgb(55.294118%,82.745098%,78.039216%);fill-opacity:1;" d="M 744 1611.167969 L 1064 1611.167969 L 1064 1626.667969 L 744 1626.667969 Z M 744 1611.167969 "/>
<path style=" stroke:none;fill-rule:nonzero;fill:rgb(93.333333%,93.333333%,92.54902%);fill-opacity:1;" d="M 744 1626.660156 L 1064 1626.660156 L 1064 1696.410156 L 744 1696.410156 Z M 744 1626.660156 "/>
<path style=" stroke:none;fill-rule:nonzero;fill:rgb(55.294118%,82.745098%,78.039216%);fill-opacity:1;" d="M 744 1696.371094 L 1064 1696.371094 L 1064 1711.871094 L 744 1711.871094 Z M 744 1696.371094 "/>
<path style=" stroke:none;fill-rule:nonzero;fill:rgb(93.333333%,93.333333%,92.54902%);fill-opacity:1;" d="M 744 1711.867188 L 1064 1711.867188 L 1064 1797.117188 L 744 1797.117188 Z M 744 1711.867188 "/>
<path style=" stroke:none;fill-rule:nonzero;fill:rgb(100%,100%,70.196078%);fill-opacity:1;" d="M 744 1797.070312 L 1064 1797.070312 L 1064 1990.820312 L 744 1990.820312 Z M 744 1797.070312 "/>
<path style=" stroke:none;fill-rule:nonzero;fill:rgb(93.333333%,93.333333%,92.54902%);fill-opacity:1;" d="M 744 1990.722656 L 1064 1990.722656 L 1064 2099.222656 L 744 2099.222656 Z M 744 1990.722656 "/>
<path style=" stroke:none;fill-rule:nonzero;fill:rgb(93.333333%,93.333333%,92.54902%);fill-opacity:1;" d="M 1116 0 L 1436 0 L 1436 69.75 L 1116 69.75 Z M 1116 0 "/>
<path style=" stroke:none;fill-rule:nonzero;fill:rgb(55.294118%,82.745098%,78.039216%);fill-opacity:1;" d="M 1116 69.714844 L 1436 69.714844 L 1436 85.214844 L 1116 85.214844 Z M 1116 69.714844 "/>
<path style=" stroke:none;fill-rule:nonzero;fill:rgb(93.333333%,93.333333%,92.54902%);fill-opacity:1;" d="M 1116 85.207031 L 1436 85.207031 L 1436 193.707031 L 1116 193.707031 Z M 1116 85.207031 "/>
<path style=" stroke:none;fill-rule:nonzero;fill:rgb(55.294118%,82.745098%,78.039216%);fill-opacity:1;" d="M 1116 193.648438 L 1436 193.648438 L 1436 209.148438 L 1116 209.148438 Z M 1116 193.648438 "/>
<path style=" stroke:none;fill-rule:nonzero;fill:rgb(93.333333%,93.333333%,92.54902%);fill-opacity:1;" d="M 1116 209.140625 L 1436 209.140625 L 1436 232.390625 L 1116 232.390625 Z M 1116 209.140625 "/>
<path style=" stroke:none;fill-rule:nonzero;fill:rgb(55.294118%,82.745098%,78.039216%);fill-opacity:1;" d="M 1116 232.375 L 1436 232.375 L 1436 247.875 L 1116 247.875 Z M 1116 232.375 "/>
<path style=" stroke:none;fill-rule:nonzero;fill:rgb(93.333333%,93.333333%,92.54902%);fill-opacity:1;" d="M 1116 247.871094 L 1436 247.871094 L 1436 278.871094 L 1116 278.871094 Z M 1116 247.871094 "/>
<path style=" stroke:none;fill-rule:nonzero;fill:rgb(100%,100%,70.196078%);fill-opacity:1;" d="M 1116 278.855469 L 1436 278.855469 L 1436 410.605469 L 1116 410.605469 Z M 1116 278.855469 "/>
<path style=" stroke:none;fill-rule:nonzero;fill:rgb(55.294118%,82.745098%,78.039216%);fill-opacity:1;" d="M 1116 898.535156 L 1436 898.535156 L 1436 914.035156 L 1116 914.035156 Z M 1116 898.535156 "/>
<path style=" stroke:none;fill-rule:nonzero;fill:rgb(93.333333%,93.333333%,92.54902%);fill-opacity:1;" d="M 1116 914.027344 L 1436 914.027344 L 1436 1007.027344 L 1116 1007.027344 Z M 1116 914.027344 "/>
<path style=" stroke:none;fill-rule:nonzero;fill:rgb(55.294118%,82.745098%,78.039216%);fill-opacity:1;" d="M 1116 1006.980469 L 1436 1006.980469 L 1436 1022.480469 L 1116 1022.480469 Z M 1116 1006.980469 "/>
<path style=" stroke:none;fill-rule:nonzero;fill:rgb(93.333333%,93.333333%,92.54902%);fill-opacity:1;" d="M 1116 1022.472656 L 1436 1022.472656 L 1436 1084.472656 L 1116 1084.472656 Z M 1116 1022.472656 "/>
<path style=" stroke:none;fill-rule:nonzero;fill:rgb(55.294118%,82.745098%,78.039216%);fill-opacity:1;" d="M 1116 1084.441406 L 1436 1084.441406 L 1436 1115.441406 L 1116 1115.441406 Z M 1116 1084.441406 "/>
<path style=" stroke:none;fill-rule:nonzero;fill:rgb(93.333333%,93.333333%,92.54902%);fill-opacity:1;" d="M 1116 1115.425781 L 1436 1115.425781 L 1436 1123.175781 L 1116 1123.175781 Z M 1116 1115.425781 "/>
<path style=" stroke:none;fill-rule:nonzero;fill:rgb(100%,100%,70.196078%);fill-opacity:1;" d="M 1116 1123.171875 L 1436 1123.171875 L 1436 1231.671875 L 1116 1231.671875 Z M 1116 1123.171875 "/>
<path style=" stroke:none;fill-rule:nonzero;fill:rgb(93.333333%,93.333333%,92.54902%);fill-opacity:1;" d="M 1116 1231.613281 L 1436 1231.613281 L 1436 1239.363281 L 1116 1239.363281 Z M 1116 1231.613281 "/>
<path style=" stroke:none;fill-rule:nonzero;fill:rgb(55.294118%,82.745098%,78.039216%);fill-opacity:1;" d="M 1116 1239.359375 L 1436 1239.359375 L 1436 1254.859375 L 1116 1254.859375 Z M 1116 1239.359375 "/>
<path style=" stroke:none;fill-rule:nonzero;fill:rgb(93.333333%,93.333333%,92.54902%);fill-opacity:1;" d="M 1116 1254.851562 L 1436 1254.851562 L 1436 1285.851562 L 1116 1285.851562 Z M 1116 1254.851562 "/>
<path style=" stroke:none;fill-rule:nonzero;fill:rgb(100%,100%,70.196078%);fill-opacity:1;" d="M 1116 1285.835938 L 1436 1285.835938 L 1436 1340.085938 L 1116 1340.085938 Z M 1116 1285.835938 "/>
<path style=" stroke:none;fill-rule:nonzero;fill:rgb(93.333333%,93.333333%,92.54902%);fill-opacity:1;" d="M 1116 1340.058594 L 1436 1340.058594 L 1436 1371.058594 L 1116 1371.058594 Z M 1116 1340.058594 "/>
<path style=" stroke:none;fill-rule:nonzero;fill:rgb(100%,100%,70.196078%);fill-opacity:1;" d="M 1116 1371.042969 L 1436 1371.042969 L 1436 1471.792969 L 1116 1471.792969 Z M 1116 1371.042969 "/>
<path style=" stroke:none;fill-rule:nonzero;fill:rgb(93.333333%,93.333333%,92.54902%);fill-opacity:1;" d="M 1116 1471.738281 L 1436 1471.738281 L 1436 1502.738281 L 1116 1502.738281 Z M 1116 1471.738281 "/>
<path style=" stroke:none;fill-rule:nonzero;fill:rgb(100%,100%,70.196078%);fill-opacity:1;" d="M 1116 1502.722656 L 1436 1502.722656 L 1436 1611.222656 L 1116 1611.222656 Z M 1116 1502.722656 "/>
<path style=" stroke:none;fill-rule:nonzero;fill:rgb(93.333333%,93.333333%,92.54902%);fill-opacity:1;" d="M 1116 1611.167969 L 1436 1611.167969 L 1436 1634.417969 L 1116 1634.417969 Z M 1116 1611.167969 "/>
<path style=" stroke:none;fill-rule:nonzero;fill:rgb(100%,100%,70.196078%);fill-opacity:1;" d="M 1116 1634.40625 L 1436 1634.40625 L 1436 1657.65625 L 1116 1657.65625 Z M 1116 1634.40625 "/>
<path style=" stroke:none;fill-rule:nonzero;fill:rgb(93.333333%,93.333333%,92.54902%);fill-opacity:1;" d="M 1116 1657.644531 L 1436 1657.644531 L 1436 1673.144531 L 1116 1673.144531 Z M 1116 1657.644531 "/>
<path style=" stroke:none;fill-rule:nonzero;fill:rgb(100%,100%,70.196078%);fill-opacity:1;" d="M 1116 1673.136719 L 1436 1673.136719 L 1436 1696.386719 L 1116 1696.386719 Z M 1116 1673.136719 "/>
<path style=" stroke:none;fill-rule:nonzero;fill:rgb(93.333333%,93.333333%,92.54902%);fill-opacity:1;" d="M 1116 1696.375 L 1436 1696.375 L 1436 1711.875 L 1116 1711.875 Z M 1116 1696.375 "/>
<path style=" stroke:none;fill-rule:nonzero;fill:rgb(100%,100%,70.196078%);fill-opacity:1;" d="M 1116 1711.867188 L 1436 1711.867188 L 1436 1735.117188 L 1116 1735.117188 Z M 1116 1711.867188 "/>
<path style=" stroke:none;fill-rule:nonzero;fill:rgb(93.333333%,93.333333%,92.54902%);fill-opacity:1;" d="M 1116 1735.105469 L 1436 1735.105469 L 1436 1750.605469 L 1116 1750.605469 Z M 1116 1735.105469 "/>
<path style=" stroke:none;fill-rule:nonzero;fill:rgb(100%,100%,70.196078%);fill-opacity:1;" d="M 1116 1750.597656 L 1436 1750.597656 L 1436 1773.847656 L 1116 1773.847656 Z M 1116 1750.597656 "/>
<path style=" stroke:none;fill-rule:nonzero;fill:rgb(93.333333%,93.333333%,92.54902%);fill-opacity:1;" d="M 1116 1773.835938 L 1436 1773.835938 L 1436 1789.335938 L 1116 1789.335938 Z M 1116 1773.835938 "/>
<path style=" stroke:none;fill-rule:nonzero;fill:rgb(100%,100%,70.196078%);fill-opacity:1;" d="M 1116 1789.324219 L 1436 1789.324219 L 1436 1812.574219 L 1116 1812.574219 Z M 1116 1789.324219 "/>
<path style=" stroke:none;fill-rule:nonzero;fill:rgb(93.333333%,93.333333%,92.54902%);fill-opacity:1;" d="M 1116 1812.5625 L 1436 1812.5625 L 1436 1828.0625 L 1116 1828.0625 Z M 1116 1812.5625 "/>
<path style=" stroke:none;fill-rule:nonzero;fill:rgb(100%,100%,70.196078%);fill-opacity:1;" d="M 1116 1828.054688 L 1436 1828.054688 L 1436 1851.304688 L 1116 1851.304688 Z M 1116 1828.054688 "/>
<path style=" stroke:none;fill-rule:nonzero;fill:rgb(93.333333%,93.333333%,92.54902%);fill-opacity:1;" d="M 1116 1851.292969 L 1436 1851.292969 L 1436 1866.792969 L 1116 1866.792969 Z M 1116 1851.292969 "/>
<path style=" stroke:none;fill-rule:nonzero;fill:rgb(100%,100%,70.196078%);fill-opacity:1;" d="M 1116 1866.785156 L 1436 1866.785156 L 1436 1890.035156 L 1116 1890.035156 Z M 1116 1866.785156 "/>
<path style=" stroke:none;fill-rule:nonzero;fill:rgb(93.333333%,93.333333%,92.54902%);fill-opacity:1;" d="M 1116 1890.023438 L 1436 1890.023438 L 1436 1905.523438 L 1116 1905.523438 Z M 1116 1890.023438 "/>
<path style=" stroke:none;fill-rule:nonzero;fill:rgb(100%,100%,70.196078%);fill-opacity:1;" d="M 1116 1905.515625 L 1436 1905.515625 L 1436 1928.765625 L 1116 1928.765625 Z M 1116 1905.515625 "/>
<path style=" stroke:none;fill-rule:nonzero;fill:rgb(93.333333%,93.333333%,92.54902%);fill-opacity:1;" d="M 1116 1928.753906 L 1436 1928.753906 L 1436 1944.253906 L 1116 1944.253906 Z M 1116 1928.753906 "/>
<path style=" stroke:none;fill-rule:nonzero;fill:rgb(100%,100%,70.196078%);fill-opacity:1;" d="M 1116 1944.246094 L 1436 1944.246094 L 1436 1967.496094 L 1116 1967.496094 Z M 1116 1944.246094 "/>
<path style=" stroke:none;fill-rule:nonzero;fill:rgb(93.333333%,93.333333%,92.54902%);fill-opacity:1;" d="M 1116 1967.484375 L 1436 1967.484375 L 1436 1982.984375 L 1116 1982.984375 Z M 1116 1967.484375 "/>
<path style=" stroke:none;fill-rule:nonzero;fill:rgb(100%,100%,70.196078%);fill-opacity:1;" d="M 1116 1982.976562 L 1436 1982.976562 L 1436 2006.226562 L 1116 2006.226562 Z M 1116 1982.976562 "/>
<path style=" stroke:none;fill-rule:nonzero;fill:rgb(93.333333%,93.333333%,92.54902%);fill-opacity:1;" d="M 1116 2006.214844 L 1436 2006.214844 L 1436 2021.714844 L 1116 2021.714844 Z M 1116 2006.214844 "/>
<path style=" stroke:none;fill-rule:nonzero;fill:rgb(100%,100%,70.196078%);fill-opacity:1;" d="M 1116 2021.707031 L 1436 2021.707031 L 1436 2044.957031 L 1116 2044.957031 Z M 1116 2021.707031 "/>
<path style=" stroke:none;fill-rule:nonzero;fill:rgb(93.333333%,93.333333%,92.54902%);fill-opacity:1;" d="M 1116 2044.945312 L 1436 2044.945312 L 1436 2060.445312 L 1116 2060.445312 Z M 1116 2044.945312 "/>
<path style=" stroke:none;fill-rule:nonzero;fill:rgb(100%,100%,70.196078%);fill-opacity:1;" d="M 1116 2060.4375 L 1436 2060.4375 L 1436 2099.1875 L 1116 2099.1875 Z M 1116 2060.4375 "/>
<path style=" stroke:none;fill-rule:nonzero;fill:rgb(100%,100%,70.196078%);fill-opacity:1;" d="M 1488 0 L 1808 0 L 1808 62 L 1488 62 Z M 1488 0 "/>
<path style=" stroke:none;fill-rule:nonzero;fill:rgb(93.333333%,93.333333%,92.54902%);fill-opacity:1;" d="M 1488 61.96875 L 1808 61.96875 L 1808 77.46875 L 1488 77.46875 Z M 1488 61.96875 "/>
<path style=" stroke:none;fill-rule:nonzero;fill:rgb(100%,100%,70.196078%);fill-opacity:1;" d="M 1488 77.460938 L 1808 77.460938 L 1808 100.710938 L 1488 100.710938 Z M 1488 77.460938 "/>
<path style=" stroke:none;fill-rule:nonzero;fill:rgb(93.333333%,93.333333%,92.54902%);fill-opacity:1;" d="M 1488 100.699219 L 1808 100.699219 L 1808 116.199219 L 1488 116.199219 Z M 1488 100.699219 "/>
<path style=" stroke:none;fill-rule:nonzero;fill:rgb(100%,100%,70.196078%);fill-opacity:1;" d="M 1488 116.191406 L 1808 116.191406 L 1808 139.441406 L 1488 139.441406 Z M 1488 116.191406 "/>
<path style=" stroke:none;fill-rule:nonzero;fill:rgb(93.333333%,93.333333%,92.54902%);fill-opacity:1;" d="M 1488 139.429688 L 1808 139.429688 L 1808 154.929688 L 1488 154.929688 Z M 1488 139.429688 "/>
<path style=" stroke:none;fill-rule:nonzero;fill:rgb(100%,100%,70.196078%);fill-opacity:1;" d="M 1488 154.921875 L 1808 154.921875 L 1808 178.171875 L 1488 178.171875 Z M 1488 154.921875 "/>
<path style=" stroke:none;fill-rule:nonzero;fill:rgb(93.333333%,93.333333%,92.54902%);fill-opacity:1;" d="M 1488 178.15625 L 1808 178.15625 L 1808 193.65625 L 1488 193.65625 Z M 1488 178.15625 "/>
<path style=" stroke:none;fill-rule:nonzero;fill:rgb(100%,100%,70.196078%);fill-opacity:1;" d="M 1488 193.648438 L 1808 193.648438 L 1808 216.898438 L 1488 216.898438 Z M 1488 193.648438 "/>
<path style=" stroke:none;fill-rule:nonzero;fill:rgb(93.333333%,93.333333%,92.54902%);fill-opacity:1;" d="M 1488 216.886719 L 1808 216.886719 L 1808 232.386719 L 1488 232.386719 Z M 1488 216.886719 "/>
<path style=" stroke:none;fill-rule:nonzero;fill:rgb(100%,100%,70.196078%);fill-opacity:1;" d="M 1488 232.378906 L 1808 232.378906 L 1808 255.628906 L 1488 255.628906 Z M 1488 232.378906 "/>
<path style=" stroke:none;fill-rule:nonzero;fill:rgb(93.333333%,93.333333%,92.54902%);fill-opacity:1;" d="M 1488 255.617188 L 1808 255.617188 L 1808 271.117188 L 1488 271.117188 Z M 1488 255.617188 "/>
<path style=" stroke:none;fill-rule:nonzero;fill:rgb(100%,100%,70.196078%);fill-opacity:1;" d="M 1488 271.109375 L 1808 271.109375 L 1808 294.359375 L 1488 294.359375 Z M 1488 271.109375 "/>
<path style=" stroke:none;fill-rule:nonzero;fill:rgb(93.333333%,93.333333%,92.54902%);fill-opacity:1;" d="M 1488 294.347656 L 1808 294.347656 L 1808 309.847656 L 1488 309.847656 Z M 1488 294.347656 "/>
<path style=" stroke:none;fill-rule:nonzero;fill:rgb(100%,100%,70.196078%);fill-opacity:1;" d="M 1488 309.839844 L 1808 309.839844 L 1808 317.589844 L 1488 317.589844 Z M 1488 309.839844 "/>
<path style=" stroke:none;fill-rule:nonzero;fill:rgb(93.333333%,93.333333%,92.54902%);fill-opacity:1;" d="M 1488 317.585938 L 1808 317.585938 L 1808 325.335938 L 1488 325.335938 Z M 1488 317.585938 "/>
<path style=" stroke:none;fill-rule:nonzero;fill:rgb(100%,100%,70.196078%);fill-opacity:1;" d="M 1488 325.332031 L 1808 325.332031 L 1808 356.332031 L 1488 356.332031 Z M 1488 325.332031 "/>
<path style=" stroke:none;fill-rule:nonzero;fill:rgb(93.333333%,93.333333%,92.54902%);fill-opacity:1;" d="M 1488 356.316406 L 1808 356.316406 L 1808 371.816406 L 1488 371.816406 Z M 1488 356.316406 "/>
<path style=" stroke:none;fill-rule:nonzero;fill:rgb(100%,100%,70.196078%);fill-opacity:1;" d="M 1488 371.808594 L 1808 371.808594 L 1808 387.308594 L 1488 387.308594 Z M 1488 371.808594 "/>
<path style=" stroke:none;fill-rule:nonzero;fill:rgb(93.333333%,93.333333%,92.54902%);fill-opacity:1;" d="M 1488 387.300781 L 1808 387.300781 L 1808 395.050781 L 1488 395.050781 Z M 1488 387.300781 "/>
<path style=" stroke:none;fill-rule:nonzero;fill:rgb(100%,100%,70.196078%);fill-opacity:1;" d="M 1488 395.046875 L 1808 395.046875 L 1808 464.796875 L 1488 464.796875 Z M 1488 395.046875 "/>
<path style=" stroke:none;fill-rule:nonzero;fill:rgb(93.333333%,93.333333%,92.54902%);fill-opacity:1;" d="M 1488 464.761719 L 1808 464.761719 L 1808 495.761719 L 1488 495.761719 Z M 1488 464.761719 "/>
<path style=" stroke:none;fill-rule:nonzero;fill:rgb(100%,100%,70.196078%);fill-opacity:1;" d="M 1488 495.742188 L 1808 495.742188 L 1808 534.492188 L 1488 534.492188 Z M 1488 495.742188 "/>
<path style=" stroke:none;fill-rule:nonzero;fill:rgb(93.333333%,93.333333%,92.54902%);fill-opacity:1;" d="M 1488 534.472656 L 1808 534.472656 L 1808 557.722656 L 1488 557.722656 Z M 1488 534.472656 "/>
<path style=" stroke:none;fill-rule:nonzero;fill:rgb(55.294118%,82.745098%,78.039216%);fill-opacity:1;" d="M 1488 557.710938 L 1808 557.710938 L 1808 573.210938 L 1488 573.210938 Z M 1488 557.710938 "/>
<path style=" stroke:none;fill-rule:nonzero;fill:rgb(93.333333%,93.333333%,92.54902%);fill-opacity:1;" d="M 1488 573.203125 L 1808 573.203125 L 1808 604.203125 L 1488 604.203125 Z M 1488 573.203125 "/>
<path style=" stroke:none;fill-rule:nonzero;fill:rgb(100%,100%,70.196078%);fill-opacity:1;" d="M 1488 604.1875 L 1808 604.1875 L 1808 666.1875 L 1488 666.1875 Z M 1488 604.1875 "/>
<path style=" stroke:none;fill-rule:nonzero;fill:rgb(93.333333%,93.333333%,92.54902%);fill-opacity:1;" d="M 1488 666.15625 L 1808 666.15625 L 1808 689.40625 L 1488 689.40625 Z M 1488 666.15625 "/>
<path style=" stroke:none;fill-rule:nonzero;fill:rgb(100%,100%,70.196078%);fill-opacity:1;" d="M 1488 689.394531 L 1808 689.394531 L 1808 704.894531 L 1488 704.894531 Z M 1488 689.394531 "/>
<path style=" stroke:none;fill-rule:nonzero;fill:rgb(93.333333%,93.333333%,92.54902%);fill-opacity:1;" d="M 1488 704.886719 L 1808 704.886719 L 1808 720.386719 L 1488 720.386719 Z M 1488 704.886719 "/>
<path style=" stroke:none;fill-rule:nonzero;fill:rgb(100%,100%,70.196078%);fill-opacity:1;" d="M 1488 720.378906 L 1808 720.378906 L 1808 735.878906 L 1488 735.878906 Z M 1488 720.378906 "/>
<path style=" stroke:none;fill-rule:nonzero;fill:rgb(93.333333%,93.333333%,92.54902%);fill-opacity:1;" d="M 1488 735.871094 L 1808 735.871094 L 1808 751.371094 L 1488 751.371094 Z M 1488 735.871094 "/>
<path style=" stroke:none;fill-rule:nonzero;fill:rgb(100%,100%,70.196078%);fill-opacity:1;" d="M 1488 751.363281 L 1808 751.363281 L 1808 766.863281 L 1488 766.863281 Z M 1488 751.363281 "/>
<path style=" stroke:none;fill-rule:nonzero;fill:rgb(93.333333%,93.333333%,92.54902%);fill-opacity:1;" d="M 1488 766.855469 L 1808 766.855469 L 1808 782.355469 L 1488 782.355469 Z M 1488 766.855469 "/>
<path style=" stroke:none;fill-rule:nonzero;fill:rgb(100%,100%,70.196078%);fill-opacity:1;" d="M 1488 782.347656 L 1808 782.347656 L 1808 805.597656 L 1488 805.597656 Z M 1488 782.347656 "/>
<path style=" stroke:none;fill-rule:nonzero;fill:rgb(93.333333%,93.333333%,92.54902%);fill-opacity:1;" d="M 1488 805.585938 L 1808 805.585938 L 1808 844.335938 L 1488 844.335938 Z M 1488 805.585938 "/>
<path style=" stroke:none;fill-rule:nonzero;fill:rgb(55.294118%,82.745098%,78.039216%);fill-opacity:1;" d="M 1488 844.3125 L 1808 844.3125 L 1808 859.8125 L 1488 859.8125 Z M 1488 844.3125 "/>
<path style=" stroke:none;fill-rule:nonzero;fill:rgb(93.333333%,93.333333%,92.54902%);fill-opacity:1;" d="M 1488 859.804688 L 1808 859.804688 L 1808 875.304688 L 1488 875.304688 Z M 1488 859.804688 "/>
<path style=" stroke:none;fill-rule:nonzero;fill:rgb(100%,100%,70.196078%);fill-opacity:1;" d="M 1488 875.296875 L 1808 875.296875 L 1808 914.046875 L 1488 914.046875 Z M 1488 875.296875 "/>
<path style=" stroke:none;fill-rule:nonzero;fill:rgb(93.333333%,93.333333%,92.54902%);fill-opacity:1;" d="M 1488 914.027344 L 1808 914.027344 L 1808 968.277344 L 1488 968.277344 Z M 1488 914.027344 "/>
<path style=" stroke:none;fill-rule:nonzero;fill:rgb(100%,100%,70.196078%);fill-opacity:1;" d="M 1488 968.25 L 1808 968.25 L 1808 1061.25 L 1488 1061.25 Z M 1488 968.25 "/>
<path style=" stroke:none;fill-rule:nonzero;fill:rgb(93.333333%,93.333333%,92.54902%);fill-opacity:1;" d="M 1488 1061.203125 L 1808 1061.203125 L 1808 1099.953125 L 1488 1099.953125 Z M 1488 1061.203125 "/>
<path style=" stroke:none;fill-rule:nonzero;fill:rgb(100%,100%,70.196078%);fill-opacity:1;" d="M 1488 1099.933594 L 1808 1099.933594 L 1808 1161.933594 L 1488 1161.933594 Z M 1488 1099.933594 "/>
<path style=" stroke:none;fill-rule:nonzero;fill:rgb(93.333333%,93.333333%,92.54902%);fill-opacity:1;" d="M 1488 1161.898438 L 1808 1161.898438 L 1808 1216.148438 L 1488 1216.148438 Z M 1488 1161.898438 "/>
<path style=" stroke:none;fill-rule:nonzero;fill:rgb(55.294118%,82.745098%,78.039216%);fill-opacity:1;" d="M 1488 1216.121094 L 1808 1216.121094 L 1808 1231.621094 L 1488 1231.621094 Z M 1488 1216.121094 "/>
<path style=" stroke:none;fill-rule:nonzero;fill:rgb(93.333333%,93.333333%,92.54902%);fill-opacity:1;" d="M 1488 1231.613281 L 1808 1231.613281 L 1808 1301.363281 L 1488 1301.363281 Z M 1488 1231.613281 "/>
<path style=" stroke:none;fill-rule:nonzero;fill:rgb(100%,100%,70.196078%);fill-opacity:1;" d="M 1488 1301.328125 L 1808 1301.328125 L 1808 1464.078125 L 1488 1464.078125 Z M 1488 1301.328125 "/>
<path style=" stroke:none;fill-rule:nonzero;fill:rgb(93.333333%,93.333333%,92.54902%);fill-opacity:1;" d="M 1488 1463.992188 L 1808 1463.992188 L 1808 1510.492188 L 1488 1510.492188 Z M 1488 1463.992188 "/>
<path style=" stroke:none;fill-rule:nonzero;fill:rgb(55.294118%,82.745098%,78.039216%);fill-opacity:1;" d="M 1488 1510.46875 L 1808 1510.46875 L 1808 1525.96875 L 1488 1525.96875 Z M 1488 1510.46875 "/>
<path style=" stroke:none;fill-rule:nonzero;fill:rgb(93.333333%,93.333333%,92.54902%);fill-opacity:1;" d="M 1488 1525.960938 L 1808 1525.960938 L 1808 1580.210938 L 1488 1580.210938 Z M 1488 1525.960938 "/>
<path style=" stroke:none;fill-rule:nonzero;fill:rgb(100%,100%,70.196078%);fill-opacity:1;" d="M 1488 1580.183594 L 1808 1580.183594 L 1808 1657.683594 L 1488 1657.683594 Z M 1488 1580.183594 "/>
<path style=" stroke:none;fill-rule:nonzero;fill:rgb(93.333333%,93.333333%,92.54902%);fill-opacity:1;" d="M 1488 1657.644531 L 1808 1657.644531 L 1808 1711.894531 L 1488 1711.894531 Z M 1488 1657.644531 "/>
<path style=" stroke:none;fill-rule:nonzero;fill:rgb(55.294118%,82.745098%,78.039216%);fill-opacity:1;" d="M 1488 1711.867188 L 1808 1711.867188 L 1808 1727.367188 L 1488 1727.367188 Z M 1488 1711.867188 "/>
<path style=" stroke:none;fill-rule:nonzero;fill:rgb(93.333333%,93.333333%,92.54902%);fill-opacity:1;" d="M 1488 1727.359375 L 1808 1727.359375 L 1808 1812.609375 L 1488 1812.609375 Z M 1488 1727.359375 "/>
<path style=" stroke:none;fill-rule:nonzero;fill:rgb(55.294118%,82.745098%,78.039216%);fill-opacity:1;" d="M 1488 1812.5625 L 1808 1812.5625 L 1808 1828.0625 L 1488 1828.0625 Z M 1488 1812.5625 "/>
<path style=" stroke:none;fill-rule:nonzero;fill:rgb(93.333333%,93.333333%,92.54902%);fill-opacity:1;" d="M 1488 1828.054688 L 1808 1828.054688 L 1808 2099.304688 L 1488 2099.304688 Z M 1488 1828.054688 "/>
<path style=" stroke:none;fill-rule:nonzero;fill:rgb(93.333333%,93.333333%,92.54902%);fill-opacity:1;" d="M 1860 0 L 2180 0 L 2180 1302 L 1860 1302 Z M 1860 0 "/>
<path style=" stroke:none;fill-rule:nonzero;fill:rgb(55.294118%,82.745098%,78.039216%);fill-opacity:1;" d="M 1860 1301.328125 L 2180 1301.328125 L 2180 1316.828125 L 1860 1316.828125 Z M 1860 1301.328125 "/>
<path style=" stroke:none;fill-rule:nonzero;fill:rgb(93.333333%,93.333333%,92.54902%);fill-opacity:1;" d="M 1860 1316.820312 L 2180 1316.820312 L 2180 2099.570312 L 1860 2099.570312 Z M 1860 1316.820312 "/>
<path style=" stroke:none;fill-rule:nonzero;fill:rgb(93.333333%,93.333333%,92.54902%);fill-opacity:1;" d="M 2232 0 L 2552 0 L 2552 54.25 L 2232 54.25 Z M 2232 0 "/>
<path style=" stroke:none;fill-rule:nonzero;fill:rgb(100%,100%,70.196078%);fill-opacity:1;" d="M 2232 54.222656 L 2552 54.222656 L 2552 201.472656 L 2232 201.472656 Z M 2232 54.222656 "/>
<path style=" stroke:none;fill-rule:nonzero;fill:rgb(93.333333%,93.333333%,92.54902%);fill-opacity:1;" d="M 2232 201.394531 L 2552 201.394531 L 2552 643.144531 L 2232 643.144531 Z M 2232 201.394531 "/>
<path style=" stroke:none;fill-rule:nonzero;fill:rgb(55.294118%,82.745098%,78.039216%);fill-opacity:1;" d="M 2232 642.917969 L 2552 642.917969 L 2552 658.417969 L 2232 658.417969 Z M 2232 642.917969 "/>
<path style=" stroke:none;fill-rule:nonzero;fill:rgb(93.333333%,93.333333%,92.54902%);fill-opacity:1;" d="M 2232 658.410156 L 2552 658.410156 L 2552 1340.410156 L 2232 1340.410156 Z M 2232 658.410156 "/>
<path style=" stroke:none;fill-rule:nonzero;fill:rgb(55.294118%,82.745098%,78.039216%);fill-opacity:1;" d="M 2232 1340.058594 L 2552 1340.058594 L 2552 1355.558594 L 2232 1355.558594 Z M 2232 1340.058594 "/>
<path style=" stroke:none;fill-rule:nonzero;fill:rgb(93.333333%,93.333333%,92.54902%);fill-opacity:1;" d="M 2232 1355.550781 L 2552 1355.550781 L 2552 1890.300781 L 2232 1890.300781 Z M 2232 1355.550781 "/>
<path style=" stroke:none;fill-rule:nonzero;fill:rgb(98.431373%,50.196078%,44.705882%);fill-opacity:1;" d="M 2232 1890.023438 L 2552 1890.023438 L 2552 1913.273438 L 2232 1913.273438 Z M 2232 1890.023438 "/>
<path style=" stroke:none;fill-rule:nonzero;fill:rgb(93.333333%,93.333333%,92.54902%);fill-opacity:1;" d="M 2232 1913.261719 L 2552 1913.261719 L 2552 1936.511719 L 2232 1936.511719 Z M 2232 1913.261719 "/>
<path style=" stroke:none;fill-rule:nonzero;fill:rgb(55.294118%,82.745098%,78.039216%);fill-opacity:1;" d="M 0 1727.359375 L 320 1727.359375 L 320 1797.109375 L 0 1797.109375 Z M 0 1727.359375 "/>
<path style=" stroke:none;fill-rule:nonzero;fill:rgb(93.333333%,93.333333%,92.54902%);fill-opacity:1;" d="M 0 1278.089844 L 320 1278.089844 L 320 1402.089844 L 0 1402.089844 Z M 0 1278.089844 "/>
<path style=" stroke:none;fill-rule:nonzero;fill:rgb(93.333333%,93.333333%,92.54902%);fill-opacity:1;" d="M 0 1154.152344 L 320 1154.152344 L 320 1185.152344 L 0 1185.152344 Z M 0 1154.152344 "/>
<path style=" stroke:none;fill-rule:nonzero;fill:rgb(74.509804%,72.941176%,85.490196%);fill-opacity:1;" d="M 0 751.363281 L 320 751.363281 L 320 867.613281 L 0 867.613281 Z M 0 751.363281 "/>
<path style=" stroke:none;fill-rule:nonzero;fill:rgb(98.431373%,50.196078%,44.705882%);fill-opacity:1;" d="M 0 495.742188 L 320 495.742188 L 320 542.242188 L 0 542.242188 Z M 0 495.742188 "/>
<path style=" stroke:none;fill-rule:nonzero;fill:rgb(93.333333%,93.333333%,92.54902%);fill-opacity:1;" d="M 0 449.269531 L 320 449.269531 L 320 495.769531 L 0 495.769531 Z M 0 449.269531 "/>
<path style=" stroke:none;fill-rule:nonzero;fill:rgb(93.333333%,93.333333%,92.54902%);fill-opacity:1;" d="M 0 178.15625 L 320 178.15625 L 320 371.90625 L 0 371.90625 Z M 0 178.15625 "/>
<path style=" stroke:none;fill-rule:nonzero;fill:rgb(93.333333%,93.333333%,92.54902%);fill-opacity:1;" d="M 0 46.476562 L 320 46.476562 L 320 108.476562 L 0 108.476562 Z M 0 46.476562 "/>
<path style=" stroke:none;fill-rule:nonzero;fill:rgb(100%,100%,70.196078%);fill-opacity:1;" d="M 372 0 L 692 0 L 692 23.25 L 372 23.25 Z M 372 0 "/>
<path style=" stroke:none;fill-rule:nonzero;fill:rgb(93.333333%,93.333333%,92.54902%);fill-opacity:1;" d="M 1116 410.941406 L 1436 410.941406 L 1436 899.191406 L 1116 899.191406 Z M 1116 410.941406 "/>
</g>
</svg>
