<?xml version="1.0" encoding="UTF-8"?>
<svg xmlns="http://www.w3.org/2000/svg" xmlns:xlink="http://www.w3.org/1999/xlink" width="2173pt" height="2107pt" viewBox="0 0 2173 2107" version="1.1">
<g id="surface4">
<path style=" stroke:none;fill-rule:nonzero;fill:rgb(93.333333%,93.333333%,92.54902%);fill-opacity:1;" d="M 0.800781 42.808594 L 308.800781 42.808594 L 308.800781 79.109375 L 0.800781 79.109375 Z M 0.800781 42.808594 "/>
<path style=" stroke:none;fill-rule:nonzero;fill:rgb(93.333333%,93.333333%,92.54902%);fill-opacity:1;" d="M 0.800781 93.628906 L 308.800781 93.628906 L 308.800781 376.769531 L 0.800781 376.769531 Z M 0.800781 93.628906 "/>
<path style=" stroke:none;fill-rule:nonzero;fill:rgb(93.333333%,93.333333%,92.54902%);fill-opacity:1;" d="M 0.800781 405.808594 L 308.800781 405.808594 L 308.800781 1589.191406 L 0.800781 1589.191406 Z M 0.800781 405.808594 "/>
<path style=" stroke:none;fill-rule:nonzero;fill:rgb(93.333333%,93.333333%,92.54902%);fill-opacity:1;" d="M 0.800781 1915.890625 L 308.800781 1915.890625 L 308.800781 2010.269531 L 0.800781 2010.269531 Z M 0.800781 1915.890625 "/>
<path style=" stroke:none;fill-rule:nonzero;fill:rgb(74.509804%,72.941176%,85.490196%);fill-opacity:1;" d="M 0.800781 376.769531 L 308.800781 376.769531 L 308.800781 405.808594 L 0.800781 405.808594 Z M 0.800781 376.769531 "/>
<path style=" stroke:none;fill-rule:nonzero;fill:rgb(98.431373%,50.196078%,44.705882%);fill-opacity:1;" d="M 0.800781 79.109375 L 308.800781 79.109375 L 308.800781 93.628906 L 0.800781 93.628906 Z M 0.800781 79.109375 "/>
<path style=" stroke:none;fill-rule:nonzero;fill:rgb(74.509804%,72.941176%,85.490196%);fill-opacity:1;" d="M 0.800781 1589.191406 L 308.800781 1589.191406 L 308.800781 1915.890625 L 0.800781 1915.890625 Z M 0.800781 1589.191406 "/>
<path style=" stroke:none;fill-rule:nonzero;fill:rgb(74.509804%,72.941176%,85.490196%);fill-opacity:1;" d="M 0.800781 2010.269531 L 308.800781 2010.269531 L 308.800781 2082.871094 L 0.800781 2082.871094 Z M 0.800781 2010.269531 "/>
<path style=" stroke:none;fill-rule:nonzero;fill:rgb(93.333333%,93.333333%,92.54902%);fill-opacity:1;" d="M 0.800781 2082.871094 L 308.800781 2082.871094 L 308.800781 2104.648438 L 0.800781 2104.648438 Z M 0.800781 2082.871094 "/>
<path style=" stroke:none;fill-rule:nonzero;fill:rgb(93.333333%,93.333333%,92.54902%);fill-opacity:1;" d="M 373.199219 -0.75 L 678.398438 -0.75 L 678.398438 2104.648438 L 373.199219 2104.648438 Z M 373.199219 -0.75 "/>
<path style=" stroke:none;fill-rule:nonzero;fill:rgb(93.333333%,93.333333%,92.54902%);fill-opacity:1;" d="M 755.398438 -0.75 L 1060.601562 -0.75 L 1060.601562 2104.648438 L 755.398438 2104.648438 Z M 755.398438 -0.75 "/>
<path style=" stroke:none;fill-rule:nonzero;fill:rgb(93.333333%,93.333333%,92.54902%);fill-opacity:1;" d="M 1125 -0.75 L 1430.199219 -0.75 L 1430.199219 2104.648438 L 1125 2104.648438 Z M 1125 -0.75 "/>
<path style=" stroke:none;fill-rule:nonzero;fill:rgb(93.333333%,93.333333%,92.54902%);fill-opacity:1;" d="M 1494.601562 -0.75 L 1802.601562 -0.75 L 1802.601562 623.609375 L 1494.601562 623.609375 Z M 1494.601562 -0.75 "/>
<path style=" stroke:none;fill-rule:nonzero;fill:rgb(93.333333%,93.333333%,92.54902%);fill-opacity:1;" d="M 1494.601562 1320.570312 L 1802.601562 1320.570312 L 1802.601562 1647.269531 L 1494.601562 1647.269531 Z M 1494.601562 1320.570312 "/>
<path style=" stroke:none;fill-rule:nonzero;fill:rgb(93.333333%,93.333333%,92.54902%);fill-opacity:1;" d="M 1494.601562 1661.789062 L 1802.601562 1661.789062 L 1802.601562 2104.648438 L 1494.601562 2104.648438 Z M 1494.601562 1661.789062 "/>
<path style=" stroke:none;fill-rule:nonzero;fill:rgb(93.333333%,93.333333%,92.54902%);fill-opacity:1;" d="M 1864.199219 -0.75 L 2172.199219 -0.75 L 2172.199219 35.550781 L 1864.199219 35.550781 Z M 1864.199219 -0.75 "/>
<path style=" stroke:none;fill-rule:nonzero;fill:rgb(93.333333%,93.333333%,92.54902%);fill-opacity:1;" d="M 1864.199219 50.070312 L 2172.199219 50.070312 L 2172.199219 427.589844 L 1864.199219 427.589844 Z M 1864.199219 50.070312 "/>
<path style=" stroke:none;fill-rule:nonzero;fill:rgb(93.333333%,93.333333%,92.54902%);fill-opacity:1;" d="M 1864.199219 572.789062 L 2172.199219 572.789062 L 2172.199219 616.351562 L 1864.199219 616.351562 Z M 1864.199219 572.789062 "/>
<path style=" stroke:none;fill-rule:nonzero;fill:rgb(93.333333%,93.333333%,92.54902%);fill-opacity:1;" d="M 1864.199219 623.609375 L 2172.199219 623.609375 L 2172.199219 645.390625 L 1864.199219 645.390625 Z M 1864.199219 623.609375 "/>
<path style=" stroke:none;fill-rule:nonzero;fill:rgb(93.333333%,93.333333%,92.54902%);fill-opacity:1;" d="M 1864.199219 681.691406 L 2172.199219 681.691406 L 2172.199219 696.210938 L 1864.199219 696.210938 Z M 1864.199219 681.691406 "/>
<path style=" stroke:none;fill-rule:nonzero;fill:rgb(93.333333%,93.333333%,92.54902%);fill-opacity:1;" d="M 1864.199219 703.46875 L 2172.199219 703.46875 L 2172.199219 717.988281 L 1864.199219 717.988281 Z M 1864.199219 703.46875 "/>
<path style=" stroke:none;fill-rule:nonzero;fill:rgb(74.509804%,72.941176%,85.490196%);fill-opacity:1;" d="M 1494.601562 674.429688 L 1802.601562 674.429688 L 1802.601562 1320.570312 L 1494.601562 1320.570312 Z M 1494.601562 674.429688 "/>
<path style=" stroke:none;fill-rule:nonzero;fill:rgb(93.333333%,93.333333%,92.54902%);fill-opacity:1;" d="M 1494.601562 645.390625 L 1802.601562 645.390625 L 1802.601562 674.429688 L 1494.601562 674.429688 Z M 1494.601562 645.390625 "/>
<path style=" stroke:none;fill-rule:nonzero;fill:rgb(74.509804%,72.941176%,85.490196%);fill-opacity:1;" d="M 1494.601562 623.609375 L 1802.601562 623.609375 L 1802.601562 645.390625 L 1494.601562 645.390625 Z M 1494.601562 623.609375 "/>
<path style=" stroke:none;fill-rule:nonzero;fill:rgb(100%,100%,70.196078%);fill-opacity:1;" d="M 1494.601562 1647.269531 L 1802.601562 1647.269531 L 1802.601562 1661.789062 L 1494.601562 1661.789062 Z M 1494.601562 1647.269531 "/>
<path style=" stroke:none;fill-rule:nonzero;fill:rgb(100%,100%,70.196078%);fill-opacity:1;" d="M 1864.199219 35.550781 L 2172.199219 35.550781 L 2172.199219 50.070312 L 1864.199219 50.070312 Z M 1864.199219 35.550781 "/>
<path style=" stroke:none;fill-rule:nonzero;fill:rgb(98.431373%,50.196078%,44.705882%);fill-opacity:1;" d="M 1864.199219 645.390625 L 2172.199219 645.390625 L 2172.199219 681.691406 L 1864.199219 681.691406 Z M 1864.199219 645.390625 "/>
<path style=" stroke:none;fill-rule:nonzero;fill:rgb(74.509804%,72.941176%,85.490196%);fill-opacity:1;" d="M 1864.199219 616.351562 L 2172.199219 616.351562 L 2172.199219 623.609375 L 1864.199219 623.609375 Z M 1864.199219 616.351562 "/>
<path style=" stroke:none;fill-rule:nonzero;fill:rgb(98.431373%,50.196078%,44.705882%);fill-opacity:1;" d="M 1864.199219 427.589844 L 2172.199219 427.589844 L 2172.199219 572.789062 L 1864.199219 572.789062 Z M 1864.199219 427.589844 "/>
<path style=" stroke:none;fill-rule:nonzero;fill:rgb(98.431373%,50.196078%,44.705882%);fill-opacity:1;" d="M 1864.199219 696.210938 L 2172.199219 696.210938 L 2172.199219 703.46875 L 1864.199219 703.46875 Z M 1864.199219 696.210938 "/>
</g>
</svg>
