<?xml version="1.0" encoding="UTF-8"?>
<svg xmlns="http://www.w3.org/2000/svg" xmlns:xlink="http://www.w3.org/1999/xlink" width="67pt" height="141pt" viewBox="0 0 67 141" version="1.1">
<g id="surface3">
<path style="fill:none;stroke-width:1.8;stroke-linecap:butt;stroke-linejoin:miter;stroke:rgb(33.333333%,38.431373%,43.921569%);stroke-opacity:1;stroke-miterlimit:4;" d="M 595 794.363281 L 595 805.363281 " transform="matrix(1,0,0,1,-582,-771)"/>
<path style="fill-rule:evenodd;fill:rgb(33.333333%,38.431373%,43.921569%);fill-opacity:1;stroke-width:1.25;stroke-linecap:butt;stroke-linejoin:miter;stroke:rgb(33.333333%,38.431373%,43.921569%);stroke-opacity:1;stroke-miterlimit:4;" d="M 5.768646 -0.00000000126098 L -2.879358 5.00217 L -2.879358 -5.00217 Z M 5.768646 -0.00000000126098 " transform="matrix(0.000000000000000044,0.72,-0.72,0.000000000000000044,13,34.3622)"/>
<path style="fill:none;stroke-width:1.8;stroke-linecap:butt;stroke-linejoin:miter;stroke:rgb(33.333333%,38.431373%,43.921569%);stroke-opacity:1;stroke-miterlimit:4;" d="M 607 824.363281 L 621 831.363281 " transform="matrix(1,0,0,1,-582,-771)"/>
<path style="fill-rule:evenodd;fill:rgb(33.333333%,38.431373%,43.921569%);fill-opacity:1;stroke-width:1.25;stroke-linecap:butt;stroke-linejoin:miter;stroke:rgb(33.333333%,38.431373%,43.921569%);stroke-opacity:1;stroke-miterlimit:4;" d="M 5.767961 -0.00108333 L -2.879334 5.001925 L -2.88176 -4.999239 Z M 5.767961 -0.00108333 " transform="matrix(0.643988,0.321994,-0.321994,0.643988,39,60.3622)"/>
<path style="fill:none;stroke-width:1.8;stroke-linecap:butt;stroke-linejoin:miter;stroke:rgb(33.333333%,38.431373%,43.921569%);stroke-opacity:1;stroke-miterlimit:4;" d="M 636.25 848.613281 L 636.25 859.613281 " transform="matrix(1,0,0,1,-582,-771)"/>
<path style="fill-rule:evenodd;fill:rgb(33.333333%,38.431373%,43.921569%);fill-opacity:1;stroke-width:1.25;stroke-linecap:butt;stroke-linejoin:miter;stroke:rgb(33.333333%,38.431373%,43.921569%);stroke-opacity:1;stroke-miterlimit:4;" d="M 5.768701 -0.0000000013396 L -2.879302 5.00217 L -2.879302 -5.00217 Z M 5.768701 -0.0000000013396 " transform="matrix(0.000000000000000044,0.72,-0.72,0.000000000000000044,54.25,88.61216)"/>
<path style="fill:none;stroke-width:1.8;stroke-linecap:butt;stroke-linejoin:miter;stroke:rgb(33.333333%,38.431373%,43.921569%);stroke-opacity:1;stroke-miterlimit:4;" d="M 626 882.363281 L 610 891.363281 " transform="matrix(1,0,0,1,-582,-771)"/>
<path style="fill-rule:evenodd;fill:rgb(33.333333%,38.431373%,43.921569%);fill-opacity:1;stroke-width:1.25;stroke-linecap:butt;stroke-linejoin:miter;stroke:rgb(33.333333%,38.431373%,43.921569%);stroke-opacity:1;stroke-miterlimit:4;" d="M 5.769924 0.000760109 L -2.881346 5.000664 L -2.876913 -5.00003 Z M 5.769924 0.000760109 " transform="matrix(-0.627534,0.352988,-0.352988,-0.627534,28,120.3622)"/>
<path style="fill:none;stroke-width:1.8;stroke-linecap:butt;stroke-linejoin:round;stroke:rgb(33.333333%,38.431373%,43.921569%);stroke-opacity:1;stroke-miterlimit:4;" d="M 606.25 821.527344 C 606.25 827.742187 601.214844 832.777344 595 832.777344 C 588.785156 832.777344 583.75 827.742187 583.75 821.527344 C 583.75 815.316406 588.785156 810.277344 595 810.277344 C 601.214844 810.277344 606.25 815.316406 606.25 821.527344 Z M 606.25 821.527344 " transform="matrix(1,0,0,1,-582,-771)"/>
<path style="fill:none;stroke-width:1.8;stroke-linecap:butt;stroke-linejoin:round;stroke:rgb(33.333333%,38.431373%,43.921569%);stroke-opacity:1;stroke-miterlimit:4;" d="M 647.5 837.363281 C 647.5 843.574219 642.464844 848.613281 636.25 848.613281 C 630.035156 848.613281 625 843.574219 625 837.363281 C 625 831.148437 630.035156 826.113281 636.25 826.113281 C 642.464844 826.113281 647.5 831.148437 647.5 837.363281 Z M 647.5 837.363281 " transform="matrix(1,0,0,1,-582,-771)"/>
<path style="fill:none;stroke-width:1.8;stroke-linecap:butt;stroke-linejoin:round;stroke:rgb(33.333333%,38.431373%,43.921569%);stroke-opacity:1;stroke-miterlimit:4;" d="M 647.5 876.300781 C 647.5 882.515625 642.464844 887.550781 636.25 887.550781 C 630.035156 887.550781 625 882.515625 625 876.300781 C 625 870.089844 630.035156 865.050781 636.25 865.050781 C 642.464844 865.050781 647.5 870.089844 647.5 876.300781 Z M 647.5 876.300781 " transform="matrix(1,0,0,1,-582,-771)"/>
<path style="fill:none;stroke-width:1.8;stroke-linecap:butt;stroke-linejoin:round;stroke:rgb(33.333333%,38.431373%,43.921569%);stroke-opacity:1;stroke-miterlimit:4;" d="M 606.25 898.613281 C 606.25 904.824219 601.214844 909.863281 595 909.863281 C 588.785156 909.863281 583.75 904.824219 583.75 898.613281 C 583.75 892.398437 588.785156 887.363281 595 887.363281 C 601.214844 887.363281 606.25 892.398437 606.25 898.613281 Z M 606.25 898.613281 " transform="matrix(1,0,0,1,-582,-771)"/>
<path style="fill:none;stroke-width:1.8;stroke-linecap:butt;stroke-linejoin:round;stroke:rgb(33.333333%,38.431373%,43.921569%);stroke-opacity:1;stroke-miterlimit:4;" d="M 606.25 783.613281 C 606.25 789.824219 601.214844 794.863281 595 794.863281 C 588.785156 794.863281 583.75 789.824219 583.75 783.613281 C 583.75 777.398437 588.785156 772.363281 595 772.363281 C 601.214844 772.363281 606.25 777.398437 606.25 783.613281 Z M 606.25 783.613281 " transform="matrix(1,0,0,1,-582,-771)"/>
</g>
</svg>
