<?xml version="1.0" encoding="UTF-8"?>
<svg xmlns="http://www.w3.org/2000/svg" xmlns:xlink="http://www.w3.org/1999/xlink" width="103pt" height="162pt" viewBox="0 0 103 162" version="1.1">
<g id="surface3">
<path style="fill:none;stroke-width:1.8;stroke-linecap:butt;stroke-linejoin:miter;stroke:rgb(33.333333%,38.431373%,43.921569%);stroke-opacity:1;stroke-miterlimit:4;" d="M 594.99998 794.363259 L 594.99998 805.363259 " transform="matrix(1,0,0,1,-546.24998,-771.249978)"/>
<path style="fill-rule:evenodd;fill:rgb(33.333333%,38.431373%,43.921569%);fill-opacity:1;stroke-width:1.25;stroke-linecap:butt;stroke-linejoin:miter;stroke:rgb(33.333333%,38.431373%,43.921569%);stroke-opacity:1;stroke-miterlimit:4;" d="M 5.768615 0.0000277762 L -2.879388 5.002198 L -2.879388 -5.002143 Z M 5.768615 0.0000277762 " transform="matrix(0.000000000000000044,0.72,-0.72,0.000000000000000044,48.75002,34.112222)"/>
<path style="fill:none;stroke-width:1.8;stroke-linecap:butt;stroke-linejoin:miter;stroke:rgb(30.588235%,80.392157%,76.862745%);stroke-opacity:1;stroke-miterlimit:4;" d="M 594.99998 832.363259 L 594.99998 843.363259 " transform="matrix(1,0,0,1,-546.24998,-771.249978)"/>
<path style="fill-rule:evenodd;fill:rgb(30.588235%,80.392157%,76.862745%);fill-opacity:1;stroke-width:1.25;stroke-linecap:butt;stroke-linejoin:miter;stroke:rgb(30.588235%,80.392157%,76.862745%);stroke-opacity:1;stroke-miterlimit:4;" d="M 5.768615 0.0000277762 L -2.879388 5.002198 L -2.879388 -5.002143 Z M 5.768615 0.0000277762 " transform="matrix(0.000000000000000044,0.72,-0.72,0.000000000000000044,48.75002,72.112222)"/>
<path style="fill:none;stroke-width:1.8;stroke-linecap:butt;stroke-linejoin:miter;stroke:rgb(33.333333%,38.431373%,43.921569%);stroke-opacity:1;stroke-miterlimit:4;" d="M 606.99998 824.363259 L 620.99998 831.363259 " transform="matrix(1,0,0,1,-546.24998,-771.249978)"/>
<path style="fill-rule:evenodd;fill:rgb(33.333333%,38.431373%,43.921569%);fill-opacity:1;stroke-width:1.25;stroke-linecap:butt;stroke-linejoin:miter;stroke:rgb(33.333333%,38.431373%,43.921569%);stroke-opacity:1;stroke-miterlimit:4;" d="M 5.767922 -0.00109814 L -2.879372 5.00191 L -2.881798 -4.999254 Z M 5.767922 -0.00109814 " transform="matrix(0.643988,0.321994,-0.321994,0.643988,74.75002,60.112222)"/>
<path style="fill:none;stroke-width:1.8;stroke-linecap:butt;stroke-linejoin:miter;stroke:rgb(30.588235%,80.392157%,76.862745%);stroke-opacity:1;stroke-miterlimit:4;" d="M 594.99998 871.363259 L 594.99998 882.363259 " transform="matrix(1,0,0,1,-546.24998,-771.249978)"/>
<path style="fill-rule:evenodd;fill:rgb(30.588235%,80.392157%,76.862745%);fill-opacity:1;stroke-width:1.25;stroke-linecap:butt;stroke-linejoin:miter;stroke:rgb(30.588235%,80.392157%,76.862745%);stroke-opacity:1;stroke-miterlimit:4;" d="M 5.768615 0.0000277762 L -2.879388 5.002198 L -2.879388 -5.002143 Z M 5.768615 0.0000277762 " transform="matrix(0.000000000000000044,0.72,-0.72,0.000000000000000044,48.75002,111.112222)"/>
<path style="fill:none;stroke-width:1.8;stroke-linecap:butt;stroke-linejoin:miter;stroke:rgb(33.333333%,38.431373%,43.921569%);stroke-opacity:1;stroke-miterlimit:4;" d="M 636.24998 848.613259 L 636.24998 859.613259 " transform="matrix(1,0,0,1,-546.24998,-771.249978)"/>
<path style="fill-rule:evenodd;fill:rgb(33.333333%,38.431373%,43.921569%);fill-opacity:1;stroke-width:1.25;stroke-linecap:butt;stroke-linejoin:miter;stroke:rgb(33.333333%,38.431373%,43.921569%);stroke-opacity:1;stroke-miterlimit:4;" d="M 5.768671 0.0000277761 L -2.879333 5.002198 L -2.879333 -5.002143 Z M 5.768671 0.0000277761 " transform="matrix(0.000000000000000044,0.72,-0.72,0.000000000000000044,90.00002,88.362182)"/>
<path style="fill:none;stroke-width:1.8;stroke-linecap:butt;stroke-linejoin:miter;stroke:rgb(30.588235%,80.392157%,76.862745%);stroke-opacity:1;stroke-miterlimit:4;" d="M 558.74998 892.613259 L 558.74998 903.613259 " transform="matrix(1,0,0,1,-546.24998,-771.249978)"/>
<path style="fill-rule:evenodd;fill:rgb(30.588235%,80.392157%,76.862745%);fill-opacity:1;stroke-width:1.25;stroke-linecap:butt;stroke-linejoin:miter;stroke:rgb(30.588235%,80.392157%,76.862745%);stroke-opacity:1;stroke-miterlimit:4;" d="M 5.768671 0.0000277763 L -2.879333 5.002198 L -2.879333 -5.002143 Z M 5.768671 0.0000277763 " transform="matrix(0.000000000000000044,0.72,-0.72,0.000000000000000044,12.50002,132.362182)"/>
<path style="fill:none;stroke-width:1.8;stroke-linecap:butt;stroke-linejoin:miter;stroke:rgb(30.588235%,80.392157%,76.862745%);stroke-opacity:1;stroke-miterlimit:4;" d="M 584.99998 864.363259 L 572.99998 872.363259 " transform="matrix(1,0,0,1,-546.24998,-771.249978)"/>
<path style="fill-rule:evenodd;fill:rgb(30.588235%,80.392157%,76.862745%);fill-opacity:1;stroke-width:1.25;stroke-linecap:butt;stroke-linejoin:miter;stroke:rgb(30.588235%,80.392157%,76.862745%);stroke-opacity:1;stroke-miterlimit:4;" d="M 5.771443 -0.00120856 L -2.879196 5.003492 L -2.880701 -4.99989 Z M 5.771443 -0.00120856 " transform="matrix(-0.599076,0.399384,-0.399384,-0.599076,26.75002,101.112222)"/>
<path style="fill:none;stroke-width:1.8;stroke-linecap:butt;stroke-linejoin:miter;stroke:rgb(33.333333%,38.431373%,43.921569%);stroke-opacity:1;stroke-miterlimit:4;" d="M 625.99998 882.363259 L 609.99998 891.363259 " transform="matrix(1,0,0,1,-546.24998,-771.249978)"/>
<path style="fill-rule:evenodd;fill:rgb(33.333333%,38.431373%,43.921569%);fill-opacity:1;stroke-width:1.25;stroke-linecap:butt;stroke-linejoin:miter;stroke:rgb(33.333333%,38.431373%,43.921569%);stroke-opacity:1;stroke-miterlimit:4;" d="M 5.769933 0.00080027 L -2.881336 5.000704 L -2.876903 -4.99999 Z M 5.769933 0.00080027 " transform="matrix(-0.627534,0.352988,-0.352988,-0.627534,63.75002,120.112222)"/>
<path style="fill:none;stroke-width:1.8;stroke-linecap:butt;stroke-linejoin:round;stroke:rgb(33.333333%,38.431373%,43.921569%);stroke-opacity:1;stroke-miterlimit:4;" d="M 606.24998 821.527322 C 606.24998 827.742165 601.214824 832.777322 594.99998 832.777322 C 588.785136 832.777322 583.74998 827.742165 583.74998 821.527322 C 583.74998 815.316384 588.785136 810.277322 594.99998 810.277322 C 601.214824 810.277322 606.24998 815.316384 606.24998 821.527322 Z M 606.24998 821.527322 " transform="matrix(1,0,0,1,-546.24998,-771.249978)"/>
<path style="fill:none;stroke-width:1.8;stroke-linecap:butt;stroke-linejoin:round;stroke:rgb(33.333333%,38.431373%,43.921569%);stroke-opacity:1;stroke-miterlimit:4;" d="M 647.49998 837.363259 C 647.49998 843.574197 642.464824 848.613259 636.24998 848.613259 C 630.035136 848.613259 624.99998 843.574197 624.99998 837.363259 C 624.99998 831.148415 630.035136 826.113259 636.24998 826.113259 C 642.464824 826.113259 647.49998 831.148415 647.49998 837.363259 Z M 647.49998 837.363259 " transform="matrix(1,0,0,1,-546.24998,-771.249978)"/>
<path style="fill:none;stroke-width:1.8;stroke-linecap:butt;stroke-linejoin:round;stroke:rgb(33.333333%,38.431373%,43.921569%);stroke-opacity:1;stroke-miterlimit:4;" d="M 647.49998 876.300759 C 647.49998 882.515603 642.464824 887.550759 636.24998 887.550759 C 630.035136 887.550759 624.99998 882.515603 624.99998 876.300759 C 624.99998 870.089822 630.035136 865.050759 636.24998 865.050759 C 642.464824 865.050759 647.49998 870.089822 647.49998 876.300759 Z M 647.49998 876.300759 " transform="matrix(1,0,0,1,-546.24998,-771.249978)"/>
<path style="fill:none;stroke-width:1.8;stroke-linecap:butt;stroke-linejoin:round;stroke:rgb(33.333333%,38.431373%,43.921569%);stroke-opacity:1;stroke-miterlimit:4;" d="M 606.24998 898.613259 C 606.24998 904.824197 601.214824 909.863259 594.99998 909.863259 C 588.785136 909.863259 583.74998 904.824197 583.74998 898.613259 C 583.74998 892.398415 588.785136 887.363259 594.99998 887.363259 C 601.214824 887.363259 606.24998 892.398415 606.24998 898.613259 Z M 606.24998 898.613259 " transform="matrix(1,0,0,1,-546.24998,-771.249978)"/>
<path style="fill:none;stroke-width:1.8;stroke-linecap:butt;stroke-linejoin:round;stroke:rgb(30.588235%,80.392157%,76.862745%);stroke-opacity:1;stroke-miterlimit:4;" d="M 606.24998 859.832009 C 606.24998 866.046853 601.214824 871.082009 594.99998 871.082009 C 588.785136 871.082009 583.74998 866.046853 583.74998 859.832009 C 583.74998 853.617165 588.785136 848.582009 594.99998 848.582009 C 601.214824 848.582009 606.24998 853.617165 606.24998 859.832009 Z M 606.24998 859.832009 " transform="matrix(1,0,0,1,-546.24998,-771.249978)"/>
<path style="fill:none;stroke-width:1.8;stroke-linecap:butt;stroke-linejoin:round;stroke:rgb(30.588235%,80.392157%,76.862745%);stroke-opacity:1;stroke-miterlimit:4;" d="M 569.99998 881.363259 C 569.99998 887.574197 564.964824 892.613259 558.74998 892.613259 C 552.535136 892.613259 547.49998 887.574197 547.49998 881.363259 C 547.49998 875.148415 552.535136 870.113259 558.74998 870.113259 C 564.964824 870.113259 569.99998 875.148415 569.99998 881.363259 Z M 569.99998 881.363259 " transform="matrix(1,0,0,1,-546.24998,-771.249978)"/>
<path style="fill:none;stroke-width:1.8;stroke-linecap:butt;stroke-linejoin:round;stroke:rgb(30.588235%,80.392157%,76.862745%);stroke-opacity:1;stroke-miterlimit:4;" d="M 569.99998 920.238259 C 569.99998 926.449197 564.964824 931.488259 558.74998 931.488259 C 552.535136 931.488259 547.49998 926.449197 547.49998 920.238259 C 547.49998 914.023415 552.535136 908.988259 558.74998 908.988259 C 564.964824 908.988259 569.99998 914.023415 569.99998 920.238259 Z M 569.99998 920.238259 " transform="matrix(1,0,0,1,-546.24998,-771.249978)"/>
<path style="fill:none;stroke-width:1.8;stroke-linecap:butt;stroke-linejoin:round;stroke:rgb(33.333333%,38.431373%,43.921569%);stroke-opacity:1;stroke-miterlimit:4;" d="M 606.24998 783.613259 C 606.24998 789.824197 601.214824 794.863259 594.99998 794.863259 C 588.785136 794.863259 583.74998 789.824197 583.74998 783.613259 C 583.74998 777.398415 588.785136 772.363259 594.99998 772.363259 C 601.214824 772.363259 606.24998 777.398415 606.24998 783.613259 Z M 606.24998 783.613259 " transform="matrix(1,0,0,1,-546.24998,-771.249978)"/>
</g>
</svg>
