<?xml version="1.0" encoding="UTF-8"?>
<svg xmlns="http://www.w3.org/2000/svg" xmlns:xlink="http://www.w3.org/1999/xlink" width="223pt" height="166pt" viewBox="0 0 223 166" version="1.1">
<g id="surface2">
<path style="fill:none;stroke-width:1.796;stroke-linecap:butt;stroke-linejoin:round;stroke:rgb(33.333333%,38.431373%,43.921569%);stroke-opacity:1;stroke-miterlimit:4;" d="M 411.222656 303.957031 C 401.773438 303.957031 394.113281 311.617187 394.113281 321.066406 C 394.113281 327.507812 397.671875 333.105469 402.929688 336.027344 C 389.710938 341.621094 380 360.238281 380 382.363281 L 442.445313 382.363281 C 442.445313 360.238281 432.734375 341.621094 419.515625 336.027344 C 424.773438 333.105469 428.332031 327.507812 428.332031 321.066406 C 428.332031 311.617187 420.671875 303.957031 411.222656 303.957031 Z M 411.222656 303.957031 " transform="matrix(1,0,0,1,-379,-218)"/>
<path style="fill:none;stroke-width:1.796167;stroke-linecap:round;stroke-linejoin:round;stroke:rgb(33.333333%,38.431373%,43.921569%);stroke-opacity:1;stroke-miterlimit:4;" d="M 584.386719 332.457031 L 593.367188 341.441406 M 557.445313 337.457031 L 557.445313 332.457031 L 584.386719 332.457031 L 584.386719 341.441406 L 593.367188 341.441406 L 593.367188 377.410156 L 588.445313 377.410156 " transform="matrix(1,0,0,1,-379,-218)"/>
<path style="fill:none;stroke-width:1.796167;stroke-linecap:butt;stroke-linejoin:miter;stroke:rgb(33.333333%,38.431373%,43.921569%);stroke-opacity:1;stroke-miterlimit:4;" d="M 561.429688 352.457031 L 579.390625 352.457031 " transform="matrix(1,0,0,1,-379,-218)"/>
<path style="fill:none;stroke-width:1.796167;stroke-linecap:butt;stroke-linejoin:miter;stroke:rgb(33.333333%,38.431373%,43.921569%);stroke-opacity:1;stroke-miterlimit:4;" d="M 561.429688 362.457031 L 579.390625 362.457031 " transform="matrix(1,0,0,1,-379,-218)"/>
<path style="fill:none;stroke-width:1.796167;stroke-linecap:butt;stroke-linejoin:miter;stroke:rgb(33.333333%,38.431373%,43.921569%);stroke-opacity:1;stroke-miterlimit:4;" d="M 561.429688 372.457031 L 579.390625 372.457031 " transform="matrix(1,0,0,1,-379,-218)"/>
<path style="fill:none;stroke-width:1.796167;stroke-linecap:round;stroke-linejoin:round;stroke:rgb(33.333333%,38.431373%,43.921569%);stroke-opacity:1;stroke-miterlimit:4;" d="M 579.386719 337.457031 L 588.367188 346.441406 M 552.445313 337.457031 L 579.386719 337.457031 L 579.386719 346.441406 L 588.367188 346.441406 L 588.367188 382.363281 L 552.445313 382.363281 Z M 552.445313 337.457031 " transform="matrix(1,0,0,1,-379,-218)"/>
<path style="fill:none;stroke-width:1.796167;stroke-linecap:round;stroke-linejoin:round;stroke:rgb(33.333333%,38.431373%,43.921569%);stroke-opacity:1;stroke-miterlimit:4;" d="M 589.386719 327.457031 L 598.367188 336.441406 M 562.445313 332.457031 L 562.445313 327.457031 L 589.386719 327.457031 L 589.386719 336.441406 L 598.367188 336.441406 L 598.367188 372.410156 L 593.445313 372.410156 " transform="matrix(1,0,0,1,-379,-218)"/>
<path style="fill:none;stroke-width:1.796;stroke-linecap:butt;stroke-linejoin:round;stroke:rgb(33.333333%,38.431373%,43.921569%);stroke-opacity:1;stroke-miterlimit:4;" d="M 541.152344 237.3125 L 537.128906 243.195312 C 535.207031 241.890625 533.042969 240.988281 530.765625 240.546875 L 532.144531 233.5625 C 529.117188 232.96875 526.007813 232.960937 522.976563 233.53125 L 524.285156 240.507812 C 522.003906 240.933594 519.835938 241.824219 517.90625 243.113281 L 513.945313 237.207031 C 511.375 238.917969 509.15625 241.101562 507.40625 243.644531 L 513.289063 247.667969 C 511.984375 249.585937 511.082031 251.753906 510.640625 254.03125 L 503.640625 252.648437 C 503.042969 255.675781 503.027344 258.792969 503.597656 261.824219 L 510.601563 260.511719 C 511.027344 262.792969 511.917969 264.960937 513.207031 266.890625 L 507.285156 270.859375 C 509 273.425781 511.191406 275.644531 513.738281 277.390625 L 517.761719 271.507812 C 519.679688 272.8125 521.847656 273.714844 524.125 274.15625 L 522.742188 281.15625 C 525.769531 281.753906 528.882813 281.769531 531.917969 281.199219 L 530.605469 274.195312 C 532.886719 273.765625 535.054688 272.878906 536.984375 271.585937 L 540.953125 277.511719 C 543.519531 275.796875 545.738281 273.605469 547.484375 271.058594 L 541.601563 267.035156 C 542.90625 265.113281 543.808594 262.949219 544.25 260.671875 L 551.25 262.054687 C 551.847656 259.027344 551.863281 255.910156 551.292969 252.878906 L 544.289063 254.191406 C 543.859375 251.910156 542.972656 249.742187 541.679688 247.8125 L 547.605469 243.84375 C 545.890625 241.277344 543.699219 239.058594 541.152344 237.3125 Z M 531.519531 251.394531 C 534.808594 253.644531 535.648438 258.136719 533.398438 261.425781 C 531.148438 264.714844 526.660156 265.554687 523.371094 263.304687 C 520.082031 261.054687 519.242188 256.566406 521.488281 253.277344 C 523.738281 249.988281 528.230469 249.148437 531.519531 251.394531 Z M 531.519531 251.394531 " transform="matrix(1,0,0,1,-379,-218)"/>
<path style="fill:none;stroke-width:1.796;stroke-linecap:butt;stroke-linejoin:round;stroke:rgb(33.333333%,38.431373%,43.921569%);stroke-opacity:1;stroke-miterlimit:4;" d="M 589.136719 223.605469 L 585.113281 229.488281 C 583.191406 228.179687 581.027344 227.28125 578.75 226.835937 L 580.128906 219.851562 C 577.101563 219.261719 573.992188 219.25 570.960938 219.820312 L 572.269531 226.796875 C 569.988281 227.226562 567.816406 228.113281 565.890625 229.40625 L 561.929688 223.496094 C 559.359375 225.207031 557.140625 227.390625 555.390625 229.933594 L 561.273438 233.957031 C 559.96875 235.878906 559.066406 238.042969 558.621094 240.320312 L 551.625 238.941406 C 551.027344 241.96875 551.011719 245.082031 551.582031 248.117187 L 558.582031 246.800781 C 559.011719 249.082031 559.898438 251.253906 561.191406 253.179687 L 555.269531 257.148437 C 556.984375 259.71875 559.175781 261.933594 561.71875 263.679687 L 565.746094 257.796875 C 567.664063 259.101562 569.828125 260.003906 572.109375 260.449219 L 570.726563 267.445312 C 573.753906 268.042969 576.867188 268.058594 579.902344 267.488281 L 578.589844 260.488281 C 580.871094 260.058594 583.039063 259.171875 584.96875 257.878906 L 588.9375 263.800781 C 591.503906 262.085937 593.71875 259.894531 595.464844 257.347656 L 589.582031 253.324219 C 590.886719 251.40625 591.789063 249.242187 592.234375 246.960937 L 599.230469 248.34375 C 599.828125 245.316406 599.84375 242.203125 599.277344 239.167969 L 592.273438 240.480469 C 591.84375 238.199219 590.957031 236.03125 589.664063 234.101562 L 595.589844 230.132812 C 593.871094 227.566406 591.683594 225.351562 589.136719 223.605469 Z M 579.503906 237.6875 C 582.789063 239.9375 583.632813 244.425781 581.382813 247.714844 C 579.132813 251.003906 574.644531 251.847656 571.355469 249.597656 C 568.066406 247.347656 567.222656 242.855469 569.472656 239.566406 C 571.722656 236.28125 576.214844 235.4375 579.503906 237.6875 Z M 579.503906 237.6875 " transform="matrix(1,0,0,1,-379,-218)"/>
<path style="fill:none;stroke-width:1.796;stroke-linecap:round;stroke-linejoin:round;stroke:rgb(33.333333%,38.431373%,43.921569%);stroke-opacity:1;stroke-miterlimit:4;" d="M 572.445313 317.363281 L 562.445313 282.363281 " transform="matrix(1,0,0,1,-379,-218)"/>
<path style="fill-rule:evenodd;fill:rgb(33.333333%,38.431373%,43.921569%);fill-opacity:1;stroke-width:1.25;stroke-linecap:butt;stroke-linejoin:miter;stroke:rgb(33.333333%,38.431373%,43.921569%);stroke-opacity:1;stroke-miterlimit:4;" d="M 5.772575 -0.00130161 L -2.878635 5.002851 L -2.881622 -5.00172 Z M 5.772575 -0.00130161 " transform="matrix(-0.19736,-0.690759,0.690759,-0.19736,183.44486,64.3622)"/>
<path style="fill:none;stroke-width:1.796;stroke-linecap:round;stroke-linejoin:round;stroke:rgb(33.333333%,38.431373%,43.921569%);stroke-opacity:1;stroke-miterlimit:4;" d="M 462.445313 347.363281 L 527.445313 347.363281 " transform="matrix(1,0,0,1,-379,-218)"/>
<path style="fill-rule:evenodd;fill:rgb(33.333333%,38.431373%,43.921569%);fill-opacity:1;stroke-width:1.25;stroke-linecap:butt;stroke-linejoin:miter;stroke:rgb(33.333333%,38.431373%,43.921569%);stroke-opacity:1;stroke-miterlimit:4;" d="M 5.769744 0.00150506 L -2.881208 4.998504 L -2.881208 -5.000931 Z M 5.769744 0.00150506 " transform="matrix(0.7184,0,0,0.7184,148.44486,129.3622)"/>
<path style="fill:none;stroke-width:1.796;stroke-linecap:round;stroke-linejoin:miter;stroke:rgb(30.588235%,80.392157%,76.862745%);stroke-opacity:1;stroke-miterlimit:4;" d="M 532.445313 362.363281 L 467.445313 362.363281 " transform="matrix(1,0,0,1,-379,-218)"/>
<path style="fill-rule:evenodd;fill:rgb(30.588235%,80.392157%,76.862745%);fill-opacity:1;stroke-width:1.25;stroke-linecap:butt;stroke-linejoin:miter;stroke:rgb(30.588235%,80.392157%,76.862745%);stroke-opacity:1;stroke-miterlimit:4;" d="M 5.768484 -0.00150506 L -2.882468 5.000931 L -2.882468 -4.998504 Z M 5.768484 -0.00150506 " transform="matrix(-0.7184,0.000000000000000088,-0.000000000000000088,-0.7184,88.44486,144.3622)"/>
<path style="fill:none;stroke-width:1.796;stroke-linecap:round;stroke-linejoin:round;stroke:rgb(30.588235%,80.392157%,76.862745%);stroke-opacity:1;stroke-miterlimit:4;" d="M 492.445313 272.363281 L 442.445313 297.363281 " transform="matrix(1,0,0,1,-379,-218)"/>
<path style="fill-rule:evenodd;fill:rgb(30.588235%,80.392157%,76.862745%);fill-opacity:1;stroke-width:1.25;stroke-linecap:butt;stroke-linejoin:miter;stroke:rgb(30.588235%,80.392157%,76.862745%);stroke-opacity:1;stroke-miterlimit:4;" d="M 5.768085 0.000803836 L -2.879015 5.002796 L -2.881446 -4.998757 Z M 5.768085 0.000803836 " transform="matrix(-0.642556,0.321278,-0.321278,-0.642556,63.44486,79.3622)"/>
</g>
</svg>
