<?xml version="1.0" encoding="UTF-8"?>
<svg xmlns="http://www.w3.org/2000/svg" xmlns:xlink="http://www.w3.org/1999/xlink" width="223pt" height="166pt" viewBox="0 0 223 166" version="1.1">
<g id="surface2">
<path style="fill:none;stroke-width:1.796;stroke-linecap:butt;stroke-linejoin:round;stroke:rgb(33.333333%,38.431373%,43.921569%);stroke-opacity:1;stroke-miterlimit:4;" d="M 411.222663 303.958013 C 401.773444 303.958013 394.113288 311.618169 394.113288 321.067388 C 394.113288 327.504888 397.671881 333.106451 402.929694 336.028326 C 389.710944 341.622076 380.000006 360.239263 380.000006 382.360358 L 442.44532 382.360358 C 442.44532 360.239263 432.734382 341.622076 419.515632 336.028326 C 424.773444 333.106451 428.332038 327.504888 428.332038 321.067388 C 428.332038 311.618169 420.671882 303.958013 411.222663 303.958013 Z M 411.222663 303.958013 " transform="matrix(1,0,0,1,-379,-218.637695)"/>
<path style="fill:none;stroke-width:1.796167;stroke-linecap:round;stroke-linejoin:round;stroke:rgb(33.333333%,38.431373%,43.921569%);stroke-opacity:1;stroke-miterlimit:4;" d="M 584.386728 332.458013 L 593.367197 341.438482 M 557.445321 337.458013 L 557.445321 332.458013 L 584.386728 332.458013 L 584.386728 341.438482 L 593.367197 341.438482 L 593.367197 377.411139 L 588.445322 377.411139 " transform="matrix(1,0,0,1,-379,-218.637695)"/>
<path style="fill:none;stroke-width:1.796167;stroke-linecap:butt;stroke-linejoin:miter;stroke:rgb(33.333333%,38.431373%,43.921569%);stroke-opacity:1;stroke-miterlimit:4;" d="M 561.429696 352.458013 L 579.390634 352.458013 " transform="matrix(1,0,0,1,-379,-218.637695)"/>
<path style="fill:none;stroke-width:1.796167;stroke-linecap:butt;stroke-linejoin:miter;stroke:rgb(33.333333%,38.431373%,43.921569%);stroke-opacity:1;stroke-miterlimit:4;" d="M 561.429696 362.458014 L 579.390634 362.458014 " transform="matrix(1,0,0,1,-379,-218.637695)"/>
<path style="fill:none;stroke-width:1.796167;stroke-linecap:butt;stroke-linejoin:miter;stroke:rgb(33.333333%,38.431373%,43.921569%);stroke-opacity:1;stroke-miterlimit:4;" d="M 561.429696 372.458014 L 579.390634 372.458014 " transform="matrix(1,0,0,1,-379,-218.637695)"/>
<path style="fill:none;stroke-width:1.796167;stroke-linecap:round;stroke-linejoin:round;stroke:rgb(33.333333%,38.431373%,43.921569%);stroke-opacity:1;stroke-miterlimit:4;" d="M 579.386728 337.458013 L 588.367197 346.438482 M 552.445321 337.458013 L 579.386728 337.458013 L 579.386728 346.438482 L 588.367197 346.438482 L 588.367197 382.360358 L 552.445321 382.360358 Z M 552.445321 337.458013 " transform="matrix(1,0,0,1,-379,-218.637695)"/>
<path style="fill:none;stroke-width:1.796167;stroke-linecap:round;stroke-linejoin:round;stroke:rgb(33.333333%,38.431373%,43.921569%);stroke-opacity:1;stroke-miterlimit:4;" d="M 589.386728 327.458013 L 598.367197 336.438482 M 562.445321 332.458013 L 562.445321 327.458013 L 589.386728 327.458013 L 589.386728 336.438482 L 598.367197 336.438482 L 598.367197 372.411139 L 593.445322 372.411139 " transform="matrix(1,0,0,1,-379,-218.637695)"/>
<path style="fill:none;stroke-width:1.796;stroke-linecap:butt;stroke-linejoin:round;stroke:rgb(33.333333%,38.431373%,43.921569%);stroke-opacity:1;stroke-miterlimit:4;" d="M 541.152352 237.31348 L 537.128915 243.196293 C 535.20704 241.891605 533.042977 240.989262 530.765633 240.543949 L 532.14454 233.559574 C 529.117196 232.96973 526.007821 232.958011 522.976571 233.53223 L 524.285165 240.504887 C 522.003915 240.934574 519.835946 241.821293 517.906258 243.114262 L 513.945321 237.204105 C 511.375008 238.915043 509.156258 241.102543 507.406258 243.641605 L 513.289071 247.668949 C 511.984383 249.586918 511.082039 251.750981 510.640633 254.032231 L 503.640633 252.649418 C 503.042977 255.676762 503.027352 258.790043 503.597664 261.825199 L 510.601571 260.512699 C 511.027352 262.793949 511.917977 264.961918 513.207039 266.891606 L 507.285164 270.860356 C 509.000008 273.426762 511.191414 275.641606 513.738289 277.3877 L 517.761727 271.504887 C 519.679696 272.809575 521.847665 273.711918 524.125008 274.157231 L 522.742196 281.153325 C 525.76954 281.750981 528.882821 281.766606 531.917977 281.2002 L 530.605477 274.196293 C 532.886727 273.766606 535.054696 272.879887 536.984384 271.586918 L 540.953134 277.5127 C 543.51954 275.79395 545.73829 273.60645 547.484384 271.059575 L 541.601571 267.036137 C 542.906259 265.114262 543.808602 262.950199 544.250009 260.672856 L 551.250009 262.055668 C 551.847665 259.028324 551.86329 255.911137 551.292978 252.875981 L 544.289071 254.192387 C 543.859384 251.911137 542.972665 249.739262 541.679696 247.81348 L 547.605477 243.84473 C 545.890634 241.274418 543.699227 239.059574 541.152352 237.31348 Z M 531.51954 251.395512 C 534.808602 253.645512 535.648446 258.137699 533.398446 261.426762 C 531.148446 264.711918 526.660165 265.555668 523.371102 263.305668 C 520.08204 261.055668 519.242196 256.567387 521.48829 253.278324 C 523.73829 249.989262 528.230477 249.145512 531.51954 251.395512 Z M 531.51954 251.395512 " transform="matrix(1,0,0,1,-379,-218.637695)"/>
<path style="fill:none;stroke-width:1.796;stroke-linecap:butt;stroke-linejoin:round;stroke:rgb(33.333333%,38.431373%,43.921569%);stroke-opacity:1;stroke-miterlimit:4;" d="M 589.136728 223.602543 L 585.113291 229.485355 C 583.191416 228.180668 581.027353 227.278324 578.750009 226.836918 L 580.128915 219.852543 C 577.101572 219.258793 573.992197 219.25098 570.960947 219.821293 L 572.26954 226.797855 C 569.98829 227.227543 567.816415 228.114261 565.890634 229.40723 L 561.929696 223.497074 C 559.359384 225.208011 557.140634 227.391605 555.390634 229.934574 L 561.273446 233.958011 C 559.968759 235.879887 559.066415 238.043949 558.621103 240.321293 L 551.625009 238.93848 C 551.027352 241.96973 551.011727 245.083012 551.58204 248.114262 L 558.58204 246.801762 C 559.011728 249.083012 559.898446 251.250981 561.191415 253.180668 L 555.26954 257.149418 C 556.984384 259.715824 559.17579 261.934574 561.718759 263.680668 L 565.746103 257.797856 C 567.664072 259.102543 569.828134 260.004887 572.109384 260.446293 L 570.726572 267.446293 C 573.753915 268.04395 576.867197 268.059575 579.902353 267.489262 L 578.589853 260.485356 C 580.871103 260.059574 583.039072 259.168949 584.968759 257.879887 L 588.937509 263.801762 C 591.503916 262.086918 593.718759 259.895512 595.464853 257.348637 L 589.582041 253.325199 C 590.886728 251.403324 591.789072 249.239262 592.234384 246.961918 L 599.230478 248.34473 C 599.828135 245.317387 599.84376 242.204105 599.277353 239.168949 L 592.273447 240.481449 C 591.843759 238.200199 590.957041 236.03223 589.664072 234.102543 L 595.589853 230.133793 C 593.871103 227.567386 591.683603 225.348636 589.136728 223.602543 Z M 579.503915 237.68848 C 582.789072 239.93848 583.632822 244.426762 581.382822 247.715824 C 579.132822 251.004887 574.64454 251.844731 571.355478 249.598637 C 568.066415 247.348637 567.222665 242.856449 569.472665 239.567387 C 571.722665 236.278324 576.214853 235.43848 579.503915 237.68848 Z M 579.503915 237.68848 " transform="matrix(1,0,0,1,-379,-218.637695)"/>
<path style="fill:none;stroke-width:1.796;stroke-linecap:round;stroke-linejoin:round;stroke:rgb(33.333333%,38.431373%,43.921569%);stroke-opacity:1;stroke-miterlimit:4;" d="M 572.445322 317.360357 L 562.445321 282.360356 " transform="matrix(1,0,0,1,-379,-218.637695)"/>
<path style="fill-rule:evenodd;fill:rgb(33.333333%,38.431373%,43.921569%);fill-opacity:1;stroke-width:1.25;stroke-linecap:butt;stroke-linejoin:miter;stroke:rgb(33.333333%,38.431373%,43.921569%);stroke-opacity:1;stroke-miterlimit:4;" d="M 5.771259 -0.00166481 L -2.879951 5.002488 L -2.877711 -5.00059 Z M 5.771259 -0.00166481 " transform="matrix(-0.19736,-0.690759,0.690759,-0.19736,183.444851,63.7245)"/>
<path style="fill:none;stroke-width:1.796;stroke-linecap:round;stroke-linejoin:round;stroke:rgb(33.333333%,38.431373%,43.921569%);stroke-opacity:1;stroke-miterlimit:4;" d="M 462.44532 347.360357 L 527.445321 347.360357 " transform="matrix(1,0,0,1,-379,-218.637695)"/>
<path style="fill-rule:evenodd;fill:rgb(33.333333%,38.431373%,43.921569%);fill-opacity:1;stroke-width:1.25;stroke-linecap:butt;stroke-linejoin:miter;stroke:rgb(33.333333%,38.431373%,43.921569%);stroke-opacity:1;stroke-miterlimit:4;" d="M 5.769755 -0.00256537 L -2.881197 4.999871 L -2.881197 -4.999564 Z M 5.769755 -0.00256537 " transform="matrix(0.7184,0,0,0.7184,148.444852,128.724499)"/>
<path style="fill:none;stroke-width:1.796;stroke-linecap:round;stroke-linejoin:miter;stroke:rgb(30.588235%,80.392157%,76.862745%);stroke-opacity:1;stroke-miterlimit:4;" d="M 532.445321 362.360357 L 467.44532 362.360357 " transform="matrix(1,0,0,1,-379,-218.637695)"/>
<path style="fill-rule:evenodd;fill:rgb(30.588235%,80.392157%,76.862745%);fill-opacity:1;stroke-width:1.25;stroke-linecap:butt;stroke-linejoin:miter;stroke:rgb(30.588235%,80.392157%,76.862745%);stroke-opacity:1;stroke-miterlimit:4;" d="M 5.768474 0.00256504 L -2.882478 4.999564 L -2.882478 -4.999871 Z M 5.768474 0.00256504 " transform="matrix(-0.7184,0.000000000000000088,-0.000000000000000088,-0.7184,88.444853,143.724499)"/>
<path style="fill:none;stroke-width:1.796;stroke-linecap:round;stroke-linejoin:round;stroke:rgb(30.588235%,80.392157%,76.862745%);stroke-opacity:1;stroke-miterlimit:4;" d="M 492.44532 272.360356 L 442.44532 297.360356 " transform="matrix(1,0,0,1,-379,-218.637695)"/>
<path style="fill-rule:evenodd;fill:rgb(30.588235%,80.392157%,76.862745%);fill-opacity:1;stroke-width:1.25;stroke-linecap:butt;stroke-linejoin:miter;stroke:rgb(30.588235%,80.392157%,76.862745%);stroke-opacity:1;stroke-miterlimit:4;" d="M 5.768687 -0.000422229 L -2.878413 5.00157 L -2.880844 -4.999983 Z M 5.768687 -0.000422229 " transform="matrix(-0.642556,0.321278,-0.321278,-0.642556,63.444853,78.7245)"/>
</g>
</svg>
