<?xml version="1.0" encoding="UTF-8"?>
<svg xmlns="http://www.w3.org/2000/svg" xmlns:xlink="http://www.w3.org/1999/xlink" width="223pt" height="166pt" viewBox="0 0 223 166" version="1.1">
<g id="surface2">
<path style="fill:none;stroke-width:1.796;stroke-linecap:butt;stroke-linejoin:round;stroke:rgb(33.333333%,38.431373%,43.921569%);stroke-opacity:1;stroke-miterlimit:4;" d="M 411.222654 303.958268 C 401.773436 303.958268 394.113279 311.618424 394.113279 321.067643 C 394.113279 327.505143 397.671873 333.106705 402.929686 336.02858 C 389.710936 341.62233 379.999998 360.239518 379.999998 382.360611 L 442.445311 382.360611 C 442.445311 360.239518 432.734373 341.62233 419.515623 336.02858 C 424.773436 333.106705 428.332029 327.505143 428.332029 321.067643 C 428.332029 311.618424 420.671873 303.958268 411.222654 303.958268 Z M 411.222654 303.958268 " transform="matrix(1,0,0,1,-379,-218.173113)"/>
<path style="fill:none;stroke-width:1.796167;stroke-linecap:round;stroke-linejoin:round;stroke:rgb(33.333333%,38.431373%,43.921569%);stroke-opacity:1;stroke-miterlimit:4;" d="M 584.386716 332.458268 L 593.367185 341.438737 M 557.44531 337.458268 L 557.44531 332.458268 L 584.386716 332.458268 L 584.386716 341.438737 L 593.367185 341.438737 L 593.367185 377.411393 L 588.44531 377.411393 " transform="matrix(1,0,0,1,-379,-218.173113)"/>
<path style="fill:none;stroke-width:1.796167;stroke-linecap:butt;stroke-linejoin:miter;stroke:rgb(33.333333%,38.431373%,43.921569%);stroke-opacity:1;stroke-miterlimit:4;" d="M 561.429685 352.458268 L 579.390622 352.458268 " transform="matrix(1,0,0,1,-379,-218.173113)"/>
<path style="fill:none;stroke-width:1.796167;stroke-linecap:butt;stroke-linejoin:miter;stroke:rgb(33.333333%,38.431373%,43.921569%);stroke-opacity:1;stroke-miterlimit:4;" d="M 561.429685 362.458268 L 579.390622 362.458268 " transform="matrix(1,0,0,1,-379,-218.173113)"/>
<path style="fill:none;stroke-width:1.796167;stroke-linecap:butt;stroke-linejoin:miter;stroke:rgb(33.333333%,38.431373%,43.921569%);stroke-opacity:1;stroke-miterlimit:4;" d="M 561.429685 372.458268 L 579.390622 372.458268 " transform="matrix(1,0,0,1,-379,-218.173113)"/>
<path style="fill:none;stroke-width:1.796167;stroke-linecap:round;stroke-linejoin:round;stroke:rgb(33.333333%,38.431373%,43.921569%);stroke-opacity:1;stroke-miterlimit:4;" d="M 579.386716 337.458268 L 588.367185 346.438737 M 552.44531 337.458268 L 579.386716 337.458268 L 579.386716 346.438737 L 588.367185 346.438737 L 588.367185 382.360611 L 552.44531 382.360611 Z M 552.44531 337.458268 " transform="matrix(1,0,0,1,-379,-218.173113)"/>
<path style="fill:none;stroke-width:1.796167;stroke-linecap:round;stroke-linejoin:round;stroke:rgb(33.333333%,38.431373%,43.921569%);stroke-opacity:1;stroke-miterlimit:4;" d="M 589.386716 327.458268 L 598.367185 336.438737 M 562.44531 332.458268 L 562.44531 327.458268 L 589.386716 327.458268 L 589.386716 336.438737 L 598.367185 336.438737 L 598.367185 372.411393 L 593.44531 372.411393 " transform="matrix(1,0,0,1,-379,-218.173113)"/>
<path style="fill:none;stroke-width:1.796;stroke-linecap:butt;stroke-linejoin:round;stroke:rgb(33.333333%,38.431373%,43.921569%);stroke-opacity:1;stroke-miterlimit:4;" d="M 541.152341 237.313737 L 537.128904 243.19655 C 535.207029 241.891862 533.042966 240.989518 530.765623 240.544206 L 532.144529 233.559831 C 529.117185 232.969987 526.00781 232.958268 522.97656 233.532487 L 524.285154 240.505143 C 522.003904 240.934831 519.835935 241.82155 517.906248 243.114518 L 513.94531 237.204362 C 511.374998 238.9153 509.156248 241.1028 507.406248 243.641862 L 513.28906 247.669206 C 511.984373 249.587175 511.082029 251.751237 510.640623 254.032487 L 503.640623 252.649675 C 503.042966 255.677018 503.027341 258.7903 503.597654 261.825456 L 510.60156 260.512956 C 511.027341 262.7903 511.917966 264.962175 513.207029 266.891862 L 507.285154 270.860612 C 508.999998 273.427018 511.191404 275.641862 513.738279 277.387956 L 517.761716 271.505143 C 519.679685 272.809831 521.847654 273.712174 524.124998 274.157487 L 522.742185 281.153581 C 525.769529 281.751237 528.88281 281.766862 531.917966 281.200456 L 530.605466 274.196549 C 532.886716 273.766862 535.054685 272.880143 536.984373 271.587174 L 540.953123 277.512956 C 543.519529 275.794206 545.738279 273.606706 547.484373 271.059831 L 541.60156 267.036393 C 542.906248 265.114518 543.808591 262.950456 544.249998 260.673112 L 551.249998 262.055925 C 551.847654 259.024675 551.863279 255.911393 551.292966 252.876237 L 544.28906 254.192643 C 543.859373 251.911393 542.972654 249.739518 541.679685 247.813737 L 547.605466 243.844987 C 545.890623 241.274675 543.699216 239.059831 541.152341 237.313737 Z M 531.519529 251.395768 C 534.808591 253.645768 535.648435 258.137956 533.398435 261.423112 C 531.148435 264.712175 526.660154 265.555925 523.371091 263.305925 C 520.082029 261.055925 519.242185 256.567643 521.488279 253.278581 C 523.738279 249.989518 528.230466 249.145768 531.519529 251.395768 Z M 531.519529 251.395768 " transform="matrix(1,0,0,1,-379,-218.173113)"/>
<path style="fill:none;stroke-width:1.796;stroke-linecap:butt;stroke-linejoin:round;stroke:rgb(33.333333%,38.431373%,43.921569%);stroke-opacity:1;stroke-miterlimit:4;" d="M 589.136716 223.6028 L 585.113279 229.485612 C 583.191404 228.180925 581.027341 227.278581 578.749997 226.837175 L 580.128904 219.8528 C 577.10156 219.25905 573.992185 219.251237 570.960935 219.82155 L 572.269529 226.798112 C 569.988279 227.223893 567.816404 228.114518 565.890622 229.403581 L 561.929685 223.497331 C 559.359372 225.208268 557.140622 227.391862 555.390623 229.934831 L 561.273435 233.958268 C 559.968747 235.880143 559.066404 238.044206 558.621091 240.32155 L 551.624998 238.938737 C 551.027341 241.966081 551.011716 245.083268 551.582029 248.114518 L 558.582029 246.802018 C 559.011716 249.083268 559.898435 251.251237 561.191404 253.180925 L 555.269529 257.149675 C 556.984372 259.716081 559.175779 261.934831 561.718747 263.680925 L 565.746091 257.798112 C 567.66406 259.1028 569.828122 260.005143 572.109372 260.44655 L 570.72656 267.446549 C 573.753904 268.044206 576.867185 268.059831 579.902341 267.489518 L 578.589841 260.485612 C 580.871091 260.055925 583.03906 259.169206 584.968747 257.876237 L 588.937497 263.802018 C 591.503904 262.087175 593.718747 259.895768 595.464841 257.348893 L 589.582029 253.325456 C 590.886716 251.403581 591.78906 249.239518 592.234372 246.962175 L 599.230466 248.344987 C 599.828122 245.317643 599.843747 242.200456 599.277341 239.169206 L 592.273435 240.481706 C 591.843747 238.200456 590.957029 236.032487 589.66406 234.1028 L 595.589841 230.13405 C 593.871091 227.567643 591.683591 225.348893 589.136716 223.6028 Z M 579.503904 237.684831 C 582.78906 239.934831 583.63281 244.427018 581.38281 247.716081 C 579.13281 251.005143 574.644529 251.844987 571.355466 249.594987 C 568.066404 247.344987 567.222654 242.856706 569.472654 239.567643 C 571.722654 236.278581 576.214841 235.438737 579.503904 237.684831 Z M 579.503904 237.684831 " transform="matrix(1,0,0,1,-379,-218.173113)"/>
<path style="fill:none;stroke-width:1.796;stroke-linecap:round;stroke-linejoin:round;stroke:rgb(33.333333%,38.431373%,43.921569%);stroke-opacity:1;stroke-miterlimit:4;" d="M 572.44531 317.360612 L 562.44531 282.360612 " transform="matrix(1,0,0,1,-379,-218.173113)"/>
<path style="fill-rule:evenodd;fill:rgb(33.333333%,38.431373%,43.921569%);fill-opacity:1;stroke-width:1.25;stroke-linecap:butt;stroke-linejoin:miter;stroke:rgb(33.333333%,38.431373%,43.921569%);stroke-opacity:1;stroke-miterlimit:4;" d="M 5.77092 -0.00177801 L -2.880289 5.002375 L -2.878049 -5.000703 Z M 5.77092 -0.00177801 " transform="matrix(-0.19736,-0.690759,0.690759,-0.19736,183.444863,64.189088)"/>
<path style="fill:none;stroke-width:1.796;stroke-linecap:round;stroke-linejoin:round;stroke:rgb(33.333333%,38.431373%,43.921569%);stroke-opacity:1;stroke-miterlimit:4;" d="M 462.44531 347.360612 L 527.44531 347.360612 " transform="matrix(1,0,0,1,-379,-218.173113)"/>
<path style="fill-rule:evenodd;fill:rgb(33.333333%,38.431373%,43.921569%);fill-opacity:1;stroke-width:1.25;stroke-linecap:butt;stroke-linejoin:miter;stroke:rgb(33.333333%,38.431373%,43.921569%);stroke-opacity:1;stroke-miterlimit:4;" d="M 5.76974 -0.00221098 L -2.881212 5.000225 L -2.881212 -4.999209 Z M 5.76974 -0.00221098 " transform="matrix(0.7184,0,0,0.7184,148.444862,129.189088)"/>
<path style="fill:none;stroke-width:1.796;stroke-linecap:round;stroke-linejoin:miter;stroke:rgb(30.588235%,80.392157%,76.862745%);stroke-opacity:1;stroke-miterlimit:4;" d="M 532.44531 362.360612 L 467.44531 362.360612 " transform="matrix(1,0,0,1,-379,-218.173113)"/>
<path style="fill-rule:evenodd;fill:rgb(30.588235%,80.392157%,76.862745%);fill-opacity:1;stroke-width:1.25;stroke-linecap:butt;stroke-linejoin:miter;stroke:rgb(30.588235%,80.392157%,76.862745%);stroke-opacity:1;stroke-miterlimit:4;" d="M 5.768487 0.00221107 L -2.882465 4.99921 L -2.882465 -5.000225 Z M 5.768487 0.00221107 " transform="matrix(-0.7184,0.000000000000000088,-0.000000000000000088,-0.7184,88.444862,144.189088)"/>
<path style="fill:none;stroke-width:1.796;stroke-linecap:round;stroke-linejoin:round;stroke:rgb(30.588235%,80.392157%,76.862745%);stroke-opacity:1;stroke-miterlimit:4;" d="M 492.44531 272.360612 L 442.445311 297.360612 " transform="matrix(1,0,0,1,-379,-218.173113)"/>
<path style="fill-rule:evenodd;fill:rgb(30.588235%,80.392157%,76.862745%);fill-opacity:1;stroke-width:1.25;stroke-linecap:butt;stroke-linejoin:miter;stroke:rgb(30.588235%,80.392157%,76.862745%);stroke-opacity:1;stroke-miterlimit:4;" d="M 5.768857 -0.000734867 L -2.878242 5.001257 L -2.880674 -5.000295 Z M 5.768857 -0.000734867 " transform="matrix(-0.642556,0.321278,-0.321278,-0.642556,63.444862,79.189088)"/>
</g>
</svg>
