<?xml version="1.0" encoding="UTF-8" standalone="no"?>
<!-- Created with Inkscape (http://www.inkscape.org/) -->

<svg
   xmlns:dc="http://purl.org/dc/elements/1.1/"
   xmlns:cc="http://creativecommons.org/ns#"
   xmlns:rdf="http://www.w3.org/1999/02/22-rdf-syntax-ns#"
   xmlns:svg="http://www.w3.org/2000/svg"
   xmlns="http://www.w3.org/2000/svg"
   xmlns:sodipodi="http://sodipodi.sourceforge.net/DTD/sodipodi-0.dtd"
   xmlns:inkscape="http://www.inkscape.org/namespaces/inkscape"
   width="62.508785mm"
   height="46.498383mm"
   viewBox="0 0 221.48783 164.75804"
   id="svg6595"
   version="1.1"
   inkscape:version="0.91 r"
   sodipodi:docname="dijkstra-process-program.svg">
  <defs
     id="defs6597">
    <marker
       inkscape:stockid="TriangleOutM"
       orient="auto"
       refY="0"
       refX="0"
       id="TriangleOutM"
       style="overflow:visible"
       inkscape:isstock="true">
      <path
         id="path7509"
         d="m 5.77,0 -8.65,5 0,-10 8.65,5 z"
         style="fill:#556270;fill-opacity:1;fill-rule:evenodd;stroke:#556270;stroke-width:1pt;stroke-opacity:1"
         transform="scale(0.4,0.4)"
         inkscape:connector-curvature="0" />
    </marker>
    <marker
       inkscape:stockid="TriangleOutM"
       orient="auto"
       refY="0"
       refX="0"
       id="TriangleOutM-9"
       style="overflow:visible"
       inkscape:isstock="true">
      <path
         id="path7509-4"
         d="m 5.77,0 -8.65,5 0,-10 8.65,5 z"
         style="fill:#556270;fill-opacity:1;fill-rule:evenodd;stroke:#556270;stroke-width:1pt;stroke-opacity:1"
         transform="scale(0.4,0.4)"
         inkscape:connector-curvature="0" />
    </marker>
    <marker
       inkscape:stockid="TriangleOutM"
       orient="auto"
       refY="0"
       refX="0"
       id="TriangleOutM-9-1"
       style="overflow:visible"
       inkscape:isstock="true">
      <path
         id="path7509-4-6"
         d="m 5.77,0 -8.65,5 0,-10 8.65,5 z"
         style="fill:#4ecdc4;fill-opacity:1;fill-rule:evenodd;stroke:#4ecdc4;stroke-width:1pt;stroke-opacity:1"
         transform="scale(0.4,0.4)"
         inkscape:connector-curvature="0" />
    </marker>
    <marker
       inkscape:stockid="TriangleOutM"
       orient="auto"
       refY="0"
       refX="0"
       id="TriangleOutM-9-1-0"
       style="overflow:visible"
       inkscape:isstock="true">
      <path
         id="path7509-4-6-4"
         d="m 5.77,0 -8.65,5 0,-10 8.65,5 z"
         style="fill:#4ecdc4;fill-opacity:1;fill-rule:evenodd;stroke:#4ecdc4;stroke-width:1pt;stroke-opacity:1"
         transform="scale(0.4,0.4)"
         inkscape:connector-curvature="0" />
    </marker>
  </defs>
  <sodipodi:namedview
     id="base"
     pagecolor="#ffffff"
     bordercolor="#666666"
     borderopacity="1.0"
     inkscape:pageopacity="0.0"
     inkscape:pageshadow="2"
     inkscape:zoom="5.6"
     inkscape:cx="96.753822"
     inkscape:cy="85.390829"
     inkscape:document-units="px"
     inkscape:current-layer="layer1"
     showgrid="true"
     fit-margin-top="0"
     fit-margin-left="0"
     fit-margin-right="0"
     fit-margin-bottom="0"
     inkscape:window-width="1918"
     inkscape:window-height="1198"
     inkscape:window-x="1366"
     inkscape:window-y="0"
     inkscape:window-maximized="0"
     inkscape:snap-object-midpoints="true"
     inkscape:object-paths="false"
     inkscape:object-nodes="true"
     inkscape:snap-global="true">
    <inkscape:grid
       type="xygrid"
       id="grid7143"
       originx="-151.65706"
       originy="-649.10191" />
  </sodipodi:namedview>
  <metadata
     id="metadata6600">
    <rdf:RDF>
      <cc:Work
         rdf:about="">
        <dc:format>image/svg+xml</dc:format>
        <dc:type
           rdf:resource="http://purl.org/dc/dcmitype/StillImage" />
        <dc:title></dc:title>
      </cc:Work>
    </rdf:RDF>
  </metadata>
  <g
     inkscape:label="Layer 1"
     inkscape:groupmode="layer"
     id="layer1"
     transform="translate(-151.65707,-238.50223)">
    <path
       style="opacity:1;fill:none;fill-opacity:1;stroke:#556270;stroke-width:1.79616702;stroke-linejoin:round;stroke-miterlimit:4;stroke-dasharray:none;stroke-dashoffset:0;stroke-opacity:1"
       d="m 183.77758,323.95879 c -9.44915,0 -17.1092,7.66012 -17.1092,17.1092 0,6.43871 3.56001,12.03898 8.81594,14.95866 -13.21726,5.59398 -22.9292,24.21323 -22.92917,46.33554 l 62.44485,0 c 3e-5,-22.12231 -9.71191,-40.74156 -22.92918,-46.33554 5.25594,-2.91968 8.81595,-8.51995 8.81595,-14.95866 0,-9.44908 -7.66005,-17.1092 -17.10919,-17.1092 z"
       id="path10615"
       inkscape:connector-curvature="0" />
    <path
       id="path10627-3"
       style="fill:none;fill-rule:evenodd;stroke:#556270;stroke-width:1.79616702px;stroke-linecap:round;stroke-linejoin:round;stroke-opacity:1"
       d="m 356.94248,352.45872 8.98083,8.98083 m -35.92335,-3.98082 0,-5.00001 26.94252,0 0,8.98083 8.98083,0 3e-5,35.97091 -4.92338,0"
       inkscape:connector-curvature="0"
       sodipodi:nodetypes="ccccccccc" />
    <path
       style="fill:none;fill-rule:evenodd;stroke:#556270;stroke-width:1.79616702px;stroke-linecap:butt;stroke-linejoin:miter;stroke-opacity:1"
       d="m 333.98533,372.45873 17.96167,0"
       id="path10642"
       inkscape:connector-curvature="0" />
    <path
       style="fill:none;fill-rule:evenodd;stroke:#556270;stroke-width:1.79616702px;stroke-linecap:butt;stroke-linejoin:miter;stroke-opacity:1"
       d="m 333.98533,382.45873 17.96167,0"
       id="path10642-2"
       inkscape:connector-curvature="0" />
    <path
       style="fill:none;fill-rule:evenodd;stroke:#556270;stroke-width:1.79616702px;stroke-linecap:butt;stroke-linejoin:miter;stroke-opacity:1"
       d="m 333.98533,392.45873 17.96167,0"
       id="path10642-6"
       inkscape:connector-curvature="0" />
    <path
       id="path10627"
       style="fill:none;fill-rule:evenodd;stroke:#556270;stroke-width:1.79616702px;stroke-linecap:round;stroke-linejoin:round;stroke-opacity:1"
       d="m 351.94247,357.45873 8.98083,8.98083 m -35.92334,-8.98083 26.94251,0 0,8.98083 8.98083,0 3e-5,35.92263 -35.92333,0 z"
       inkscape:connector-curvature="0" />
    <path
       id="path10627-3-6"
       style="fill:none;fill-rule:evenodd;stroke:#556270;stroke-width:1.79616702px;stroke-linecap:round;stroke-linejoin:round;stroke-opacity:1"
       d="m 361.94249,347.45872 8.98083,8.98083 m -35.92336,-3.98082 0,-5.00001 26.94253,0 0,8.98083 8.98083,0 3e-5,35.97091 -4.92338,0"
       inkscape:connector-curvature="0"
       sodipodi:nodetypes="ccccccccc" />
    <path
       style="opacity:1;fill:none;fill-opacity:1;stroke:#556270;stroke-width:1.796;stroke-linejoin:round;stroke-miterlimit:4;stroke-dasharray:none;stroke-dashoffset:0;stroke-opacity:1"
       d="m 313.70803,257.31305 -4.02458,5.88317 a 17.150166,17.150166 0 0 0 -6.36291,-2.65093 l 1.37931,-6.98388 a 24.277704,24.277704 0 0 0 -9.1679,-0.0297 l 1.30835,6.97454 a 17.150166,17.150166 0 0 0 -6.37874,2.60878 l -3.96032,-5.90993 a 24.277704,24.277704 0 0 0 -6.53916,6.43841 l 5.88317,4.02459 a 17.150166,17.150166 0 0 0 -2.65092,6.3629 l -6.99872,-1.38134 a 24.277704,24.277704 0 0 0 -0.0429,9.17518 l 7.00247,-1.3136 a 17.150166,17.150166 0 0 0 2.60878,6.37874 l -5.92429,3.96945 a 24.277704,24.277704 0 0 0 6.45278,6.53003 l 4.02457,-5.88318 a 17.150166,17.150166 0 0 0 6.3629,2.65093 l -1.38318,6.99746 a 24.277704,24.277704 0 0 0 9.17702,0.0442 l -1.31359,-7.00247 a 17.150166,17.150166 0 0 0 6.37875,-2.60877 l 3.96943,5.92427 a 24.277704,24.277704 0 0 0 6.53003,-6.45277 l -5.88318,-4.02457 a 17.150166,17.150166 0 0 0 2.65093,-6.3629 l 6.99748,1.38318 a 24.277704,24.277704 0 0 0 0.0441,-9.17702 l -7.00246,1.31359 a 17.150166,17.150166 0 0 0 -2.60878,-6.37875 l 5.92429,-3.96944 a 24.277704,24.277704 0 0 0 -6.45277,-6.53003 z m -9.63402,14.08311 a 7.2157066,7.2157066 0 0 1 1.8813,10.02882 7.2157066,7.2157066 0 0 1 -10.0288,1.88128 7.2157066,7.2157066 0 0 1 -1.88131,-10.0288 7.2157066,7.2157066 0 0 1 10.02881,-1.8813 z"
       id="path7198"
       inkscape:connector-curvature="0" />
    <path
       style="opacity:1;fill:none;fill-opacity:1;stroke:#556270;stroke-width:1.796;stroke-linejoin:round;stroke-miterlimit:4;stroke-dasharray:none;stroke-dashoffset:0;stroke-opacity:1"
       d="m 361.69137,243.60352 -4.02458,5.88316 a 17.150166,17.150166 0 0 0 -6.3629,-2.65093 l 1.3793,-6.98387 a 24.277704,24.277704 0 0 0 -9.1679,-0.0297 l 1.30835,6.97454 a 17.150166,17.150166 0 0 0 -6.37874,2.60877 l -3.96032,-5.90993 a 24.277704,24.277704 0 0 0 -6.53916,6.43842 l 5.88317,4.02458 a 17.150166,17.150166 0 0 0 -2.65091,6.3629 l -6.99873,-1.38134 a 24.277704,24.277704 0 0 0 -0.0429,9.17518 l 7.00247,-1.31359 a 17.150166,17.150166 0 0 0 2.60878,6.37874 l -5.92429,3.96944 a 24.277704,24.277704 0 0 0 6.45278,6.53004 l 4.02457,-5.88318 a 17.150166,17.150166 0 0 0 6.3629,2.65092 l -1.38318,6.99747 a 24.277704,24.277704 0 0 0 9.17702,0.0441 l -1.31359,-7.00247 a 17.150166,17.150166 0 0 0 6.37875,-2.60877 l 3.96943,5.92427 a 24.277704,24.277704 0 0 0 6.53004,-6.45277 l -5.88318,-4.02457 a 17.150166,17.150166 0 0 0 2.65092,-6.3629 l 6.99748,1.38318 a 24.277704,24.277704 0 0 0 0.0442,-9.17702 l -7.00247,1.31359 a 17.150166,17.150166 0 0 0 -2.60877,-6.37875 l 5.92428,-3.96944 a 24.277704,24.277704 0 0 0 -6.45277,-6.53002 z m -9.63402,14.0831 a 7.2157066,7.2157066 0 0 1 1.8813,10.02882 7.2157066,7.2157066 0 0 1 -10.0288,1.88129 7.2157066,7.2157066 0 0 1 -1.88131,-10.0288 7.2157066,7.2157066 0 0 1 10.02881,-1.88131 z"
       id="path7198-4"
       inkscape:connector-curvature="0" />
    <path
       style="fill:none;fill-rule:evenodd;stroke:#556270;stroke-width:1.796;stroke-linecap:round;stroke-linejoin:round;stroke-miterlimit:4;stroke-dasharray:none;stroke-opacity:1;marker-end:url(#TriangleOutM)"
       d="m 345.00001,337.36219 -10,-35"
       id="path7358"
       inkscape:connector-curvature="0"
       sodipodi:nodetypes="cc" />
    <path
       style="fill:none;fill-rule:evenodd;stroke:#556270;stroke-width:1.796;stroke-linecap:round;stroke-linejoin:round;stroke-miterlimit:4;stroke-dasharray:none;stroke-opacity:1;marker-end:url(#TriangleOutM-9)"
       d="m 235.00001,367.36219 65,0"
       id="path7358-7"
       inkscape:connector-curvature="0"
       sodipodi:nodetypes="cc" />
    <path
       style="fill:none;fill-rule:evenodd;stroke:#4ecdc4;stroke-width:1.796;stroke-linecap:round;stroke-linejoin:miter;stroke-miterlimit:4;stroke-dasharray:none;stroke-opacity:1;marker-end:url(#TriangleOutM-9-1)"
       d="m 305.00001,382.36219 -65,0"
       id="path7358-7-5"
       inkscape:connector-curvature="0"
       sodipodi:nodetypes="cc" />
    <path
       style="fill:none;fill-rule:evenodd;stroke:#4ecdc4;stroke-width:1.796;stroke-linecap:round;stroke-linejoin:round;stroke-miterlimit:4;stroke-dasharray:none;stroke-opacity:1;marker-end:url(#TriangleOutM-9-1-0)"
       d="m 265.00001,292.36219 -50,25"
       id="path7358-7-5-6"
       inkscape:connector-curvature="0"
       sodipodi:nodetypes="cc" />
  </g>
</svg>
