<?xml version="1.0" encoding="UTF-8"?>
<svg xmlns="http://www.w3.org/2000/svg" xmlns:xlink="http://www.w3.org/1999/xlink" width="109pt" height="113pt" viewBox="0 0 109 113" version="1.1">
<g id="surface2">
<path style="fill:none;stroke-width:1.796167;stroke-linecap:butt;stroke-linejoin:miter;stroke:rgb(33.333333%,38.431373%,43.921569%);stroke-opacity:1;stroke-miterlimit:4;" d="M 834.019531 1281.363281 L 851.980469 1281.363281 " transform="matrix(1,0,0,1,-824,-1246)"/>
<path style="fill:none;stroke-width:1.796167;stroke-linecap:butt;stroke-linejoin:miter;stroke:rgb(33.333333%,38.431373%,43.921569%);stroke-opacity:1;stroke-miterlimit:4;" d="M 834.019531 1293.363281 L 851.980469 1293.363281 " transform="matrix(1,0,0,1,-824,-1246)"/>
<path style="fill:none;stroke-width:1.796167;stroke-linecap:butt;stroke-linejoin:miter;stroke:rgb(33.333333%,38.431373%,43.921569%);stroke-opacity:1;stroke-miterlimit:4;" d="M 834.019531 1303.363281 L 851.980469 1303.363281 " transform="matrix(1,0,0,1,-824,-1246)"/>
<path style="fill:none;stroke-width:1.796167;stroke-linecap:round;stroke-linejoin:round;stroke:rgb(33.333333%,38.431373%,43.921569%);stroke-opacity:1;stroke-miterlimit:4;" d="M 851.941406 1267.457031 L 860.921875 1276.441406 M 825 1267.457031 L 851.941406 1267.457031 L 851.941406 1276.441406 L 860.921875 1276.441406 L 860.921875 1332.363281 L 825 1332.363281 Z M 825 1267.457031 " transform="matrix(1,0,0,1,-824,-1246)"/>
<path style="fill:none;stroke-width:1.796167;stroke-linecap:butt;stroke-linejoin:miter;stroke:rgb(33.333333%,38.431373%,43.921569%);stroke-opacity:1;stroke-miterlimit:4;" d="M 834.019531 1311.363281 L 851.980469 1311.363281 " transform="matrix(1,0,0,1,-824,-1246)"/>
<path style="fill:none;stroke-width:1.796167;stroke-linecap:butt;stroke-linejoin:miter;stroke:rgb(33.333333%,38.431373%,43.921569%);stroke-opacity:1;stroke-miterlimit:4;" d="M 833.019531 1328.363281 L 850.980469 1328.363281 " transform="matrix(1,0,0,1,-824,-1246)"/>
<path style="fill:none;stroke-width:1.796;stroke-linecap:butt;stroke-linejoin:miter;stroke:rgb(30.588235%,80.392157%,76.862745%);stroke-opacity:1;stroke-miterlimit:4;" d="M 855 1284.363281 C 852.070313 1284.363281 845.488281 1283.890625 845.460938 1287.699219 C 845.441406 1290.757812 850.4375 1290.800781 850.4375 1287.800781 " transform="matrix(1,0,0,1,-824,-1246)"/>
<path style="fill:none;stroke-width:1.796;stroke-linecap:butt;stroke-linejoin:miter;stroke:rgb(30.588235%,80.392157%,76.862745%);stroke-opacity:1;stroke-miterlimit:4;" d="M 855 1319.363281 C 852.070313 1319.363281 845.039063 1318.886719 845.011719 1322.699219 C 844.992188 1325.753906 849.988281 1325.800781 849.988281 1322.800781 " transform="matrix(1,0,0,1,-824,-1246)"/>
<path style="fill:none;stroke-width:1.796167;stroke-linecap:butt;stroke-linejoin:miter;stroke:rgb(33.333333%,38.431373%,43.921569%);stroke-opacity:1;stroke-miterlimit:4;" d="M 838.019531 1298.363281 L 855.980469 1298.363281 " transform="matrix(1,0,0,1,-824,-1246)"/>
<path style="fill:none;stroke-width:1.796167;stroke-linecap:butt;stroke-linejoin:miter;stroke:rgb(33.333333%,38.431373%,43.921569%);stroke-opacity:1;stroke-miterlimit:4;" d="M 838.019531 1316.363281 L 855.980469 1316.363281 " transform="matrix(1,0,0,1,-824,-1246)"/>
<path style="fill:none;stroke-width:1.796167;stroke-linecap:butt;stroke-linejoin:miter;stroke:rgb(33.333333%,38.431373%,43.921569%);stroke-opacity:1;stroke-miterlimit:4;" d="M 903.984375 1262.363281 L 921.945313 1262.363281 " transform="matrix(1,0,0,1,-824,-1246)"/>
<path style="fill:none;stroke-width:1.796167;stroke-linecap:butt;stroke-linejoin:miter;stroke:rgb(33.333333%,38.431373%,43.921569%);stroke-opacity:1;stroke-miterlimit:4;" d="M 903.984375 1272.363281 L 921.945313 1272.363281 " transform="matrix(1,0,0,1,-824,-1246)"/>
<path style="fill:none;stroke-width:1.796167;stroke-linecap:butt;stroke-linejoin:miter;stroke:rgb(33.333333%,38.431373%,43.921569%);stroke-opacity:1;stroke-miterlimit:4;" d="M 903.984375 1282.363281 L 921.945313 1282.363281 " transform="matrix(1,0,0,1,-824,-1246)"/>
<path style="fill:none;stroke-width:1.796167;stroke-linecap:round;stroke-linejoin:round;stroke:rgb(33.333333%,38.431373%,43.921569%);stroke-opacity:1;stroke-miterlimit:4;" d="M 921.941406 1247.363281 L 930.921875 1256.34375 M 895 1247.363281 L 921.941406 1247.363281 L 921.941406 1256.34375 L 930.921875 1256.34375 L 930.921875 1292.363281 L 895 1292.363281 Z M 895 1247.363281 " transform="matrix(1,0,0,1,-824,-1246)"/>
<path style="fill:none;stroke-width:1.796167;stroke-linecap:butt;stroke-linejoin:miter;stroke:rgb(33.333333%,38.431373%,43.921569%);stroke-opacity:1;stroke-miterlimit:4;" d="M 903.984375 1327.363281 L 921.945313 1327.363281 " transform="matrix(1,0,0,1,-824,-1246)"/>
<path style="fill:none;stroke-width:1.796167;stroke-linecap:butt;stroke-linejoin:miter;stroke:rgb(33.333333%,38.431373%,43.921569%);stroke-opacity:1;stroke-miterlimit:4;" d="M 908.019531 1332.363281 L 925.980469 1332.363281 " transform="matrix(1,0,0,1,-824,-1246)"/>
<path style="fill:none;stroke-width:1.796167;stroke-linecap:butt;stroke-linejoin:miter;stroke:rgb(33.333333%,38.431373%,43.921569%);stroke-opacity:1;stroke-miterlimit:4;" d="M 903.984375 1347.363281 L 921.945313 1347.363281 " transform="matrix(1,0,0,1,-824,-1246)"/>
<path style="fill:none;stroke-width:1.796167;stroke-linecap:round;stroke-linejoin:round;stroke:rgb(33.333333%,38.431373%,43.921569%);stroke-opacity:1;stroke-miterlimit:4;" d="M 921.941406 1312.363281 L 930.921875 1321.34375 M 895 1312.363281 L 921.941406 1312.363281 L 921.941406 1321.34375 L 930.921875 1321.34375 L 930.921875 1357.363281 L 895 1357.363281 Z M 895 1312.363281 " transform="matrix(1,0,0,1,-824,-1246)"/>
<path style="fill:none;stroke-width:1.771654;stroke-linecap:round;stroke-linejoin:round;stroke:rgb(30.588235%,80.392157%,76.862745%);stroke-opacity:1;stroke-miterlimit:4;" d="M 859 1284.363281 L 885 1284.363281 L 885 1272.363281 L 900 1272.363281 " transform="matrix(1,0,0,1,-824,-1246)"/>
<path style="fill:none;stroke-width:1.771654;stroke-linecap:round;stroke-linejoin:round;stroke:rgb(30.588235%,80.392157%,76.862745%);stroke-opacity:1;stroke-miterlimit:4;" d="M 859 1284.363281 L 885 1287.363281 L 885 1327.363281 L 900 1327.363281 " transform="matrix(1,0,0,1,-824,-1246)"/>
<path style="fill:none;stroke-width:1.796167;stroke-linecap:butt;stroke-linejoin:miter;stroke:rgb(33.333333%,38.431373%,43.921569%);stroke-opacity:1;stroke-miterlimit:4;" d="M 908.019531 1337.363281 L 925.980469 1337.363281 " transform="matrix(1,0,0,1,-824,-1246)"/>
<path style="fill:none;stroke-width:1.796167;stroke-linecap:butt;stroke-linejoin:miter;stroke:rgb(33.333333%,38.431373%,43.921569%);stroke-opacity:1;stroke-miterlimit:4;" d="M 908 1277.363281 L 925.960938 1277.363281 " transform="matrix(1,0,0,1,-824,-1246)"/>
</g>
</svg>
