<?xml version="1.0" encoding="UTF-8"?>
<svg xmlns="http://www.w3.org/2000/svg" xmlns:xlink="http://www.w3.org/1999/xlink" width="109pt" height="113pt" viewBox="0 0 109 113" version="1.1">
<g id="surface2">
<path style="fill:none;stroke-width:1.796167;stroke-linecap:butt;stroke-linejoin:miter;stroke:rgb(33.333333%,38.431373%,43.921569%);stroke-opacity:1;stroke-miterlimit:4;" d="M 834.019544 1281.360456 L 851.980482 1281.360456 " transform="matrix(1,0,0,1,-824,-1245.63778)"/>
<path style="fill:none;stroke-width:1.796167;stroke-linecap:butt;stroke-linejoin:miter;stroke:rgb(33.333333%,38.431373%,43.921569%);stroke-opacity:1;stroke-miterlimit:4;" d="M 834.019544 1293.360456 L 851.980482 1293.360456 " transform="matrix(1,0,0,1,-824,-1245.63778)"/>
<path style="fill:none;stroke-width:1.796167;stroke-linecap:butt;stroke-linejoin:miter;stroke:rgb(33.333333%,38.431373%,43.921569%);stroke-opacity:1;stroke-miterlimit:4;" d="M 834.019544 1303.360457 L 851.980482 1303.360457 " transform="matrix(1,0,0,1,-824,-1245.63778)"/>
<path style="fill:none;stroke-width:1.796167;stroke-linecap:round;stroke-linejoin:round;stroke:rgb(33.333333%,38.431373%,43.921569%);stroke-opacity:1;stroke-miterlimit:4;" d="M 851.94142 1267.458112 L 860.921889 1276.438581 M 825.000013 1267.458112 L 851.94142 1267.458112 L 851.94142 1276.438581 L 860.921889 1276.438581 L 860.921889 1332.360457 L 825.000013 1332.360457 Z M 825.000013 1267.458112 " transform="matrix(1,0,0,1,-824,-1245.63778)"/>
<path style="fill:none;stroke-width:1.796167;stroke-linecap:butt;stroke-linejoin:miter;stroke:rgb(33.333333%,38.431373%,43.921569%);stroke-opacity:1;stroke-miterlimit:4;" d="M 834.019544 1311.360457 L 851.980482 1311.360457 " transform="matrix(1,0,0,1,-824,-1245.63778)"/>
<path style="fill:none;stroke-width:1.796167;stroke-linecap:butt;stroke-linejoin:miter;stroke:rgb(33.333333%,38.431373%,43.921569%);stroke-opacity:1;stroke-miterlimit:4;" d="M 833.019544 1328.360457 L 850.980482 1328.360457 " transform="matrix(1,0,0,1,-824,-1245.63778)"/>
<path style="fill:none;stroke-width:1.796;stroke-linecap:butt;stroke-linejoin:miter;stroke:rgb(30.588235%,80.392157%,76.862745%);stroke-opacity:1;stroke-miterlimit:4;" d="M 855.000014 1284.360456 C 852.070326 1284.360456 845.488295 1283.8878 845.460951 1287.7003 C 845.44142 1290.754988 850.437513 1290.801863 850.437513 1287.801863 " transform="matrix(1,0,0,1,-824,-1245.63778)"/>
<path style="fill:none;stroke-width:1.796;stroke-linecap:butt;stroke-linejoin:miter;stroke:rgb(30.588235%,80.392157%,76.862745%);stroke-opacity:1;stroke-miterlimit:4;" d="M 855.000014 1319.360457 C 852.070326 1319.360457 845.039076 1318.887801 845.011732 1322.700301 C 844.992201 1325.754988 849.988295 1325.797957 849.988295 1322.797957 " transform="matrix(1,0,0,1,-824,-1245.63778)"/>
<path style="fill:none;stroke-width:1.796167;stroke-linecap:butt;stroke-linejoin:miter;stroke:rgb(33.333333%,38.431373%,43.921569%);stroke-opacity:1;stroke-miterlimit:4;" d="M 838.019545 1298.360457 L 855.980482 1298.360457 " transform="matrix(1,0,0,1,-824,-1245.63778)"/>
<path style="fill:none;stroke-width:1.796167;stroke-linecap:butt;stroke-linejoin:miter;stroke:rgb(33.333333%,38.431373%,43.921569%);stroke-opacity:1;stroke-miterlimit:4;" d="M 838.019545 1316.360457 L 855.980482 1316.360457 " transform="matrix(1,0,0,1,-824,-1245.63778)"/>
<path style="fill:none;stroke-width:1.796167;stroke-linecap:butt;stroke-linejoin:miter;stroke:rgb(33.333333%,38.431373%,43.921569%);stroke-opacity:1;stroke-miterlimit:4;" d="M 903.984389 1262.360456 L 921.945327 1262.360456 " transform="matrix(1,0,0,1,-824,-1245.63778)"/>
<path style="fill:none;stroke-width:1.796167;stroke-linecap:butt;stroke-linejoin:miter;stroke:rgb(33.333333%,38.431373%,43.921569%);stroke-opacity:1;stroke-miterlimit:4;" d="M 903.984389 1272.360456 L 921.945327 1272.360456 " transform="matrix(1,0,0,1,-824,-1245.63778)"/>
<path style="fill:none;stroke-width:1.796167;stroke-linecap:butt;stroke-linejoin:miter;stroke:rgb(33.333333%,38.431373%,43.921569%);stroke-opacity:1;stroke-miterlimit:4;" d="M 903.984389 1282.360456 L 921.945327 1282.360456 " transform="matrix(1,0,0,1,-824,-1245.63778)"/>
<path style="fill:none;stroke-width:1.796167;stroke-linecap:round;stroke-linejoin:round;stroke:rgb(33.333333%,38.431373%,43.921569%);stroke-opacity:1;stroke-miterlimit:4;" d="M 921.941421 1247.360456 L 930.92189 1256.344831 M 895.000014 1247.360456 L 921.941421 1247.360456 L 921.941421 1256.344831 L 930.92189 1256.344831 L 930.92189 1292.360456 L 895.000014 1292.360456 Z M 895.000014 1247.360456 " transform="matrix(1,0,0,1,-824,-1245.63778)"/>
<path style="fill:none;stroke-width:1.796167;stroke-linecap:butt;stroke-linejoin:miter;stroke:rgb(33.333333%,38.431373%,43.921569%);stroke-opacity:1;stroke-miterlimit:4;" d="M 903.984389 1327.360457 L 921.945327 1327.360457 " transform="matrix(1,0,0,1,-824,-1245.63778)"/>
<path style="fill:none;stroke-width:1.796167;stroke-linecap:butt;stroke-linejoin:miter;stroke:rgb(33.333333%,38.431373%,43.921569%);stroke-opacity:1;stroke-miterlimit:4;" d="M 908.019546 1332.360457 L 925.980483 1332.360457 " transform="matrix(1,0,0,1,-824,-1245.63778)"/>
<path style="fill:none;stroke-width:1.796167;stroke-linecap:butt;stroke-linejoin:miter;stroke:rgb(33.333333%,38.431373%,43.921569%);stroke-opacity:1;stroke-miterlimit:4;" d="M 903.984389 1347.360457 L 921.945327 1347.360457 " transform="matrix(1,0,0,1,-824,-1245.63778)"/>
<path style="fill:none;stroke-width:1.796167;stroke-linecap:round;stroke-linejoin:round;stroke:rgb(33.333333%,38.431373%,43.921569%);stroke-opacity:1;stroke-miterlimit:4;" d="M 921.941421 1312.360457 L 930.92189 1321.344832 M 895.000014 1312.360457 L 921.941421 1312.360457 L 921.941421 1321.344832 L 930.92189 1321.344832 L 930.92189 1357.360458 L 895.000014 1357.360458 Z M 895.000014 1312.360457 " transform="matrix(1,0,0,1,-824,-1245.63778)"/>
<path style="fill:none;stroke-width:1.771654;stroke-linecap:round;stroke-linejoin:round;stroke:rgb(30.588235%,80.392157%,76.862745%);stroke-opacity:1;stroke-miterlimit:4;" d="M 859.000014 1284.360456 L 885.000014 1284.360456 L 885.000014 1272.360456 L 900.000014 1272.360456 " transform="matrix(1,0,0,1,-824,-1245.63778)"/>
<path style="fill:none;stroke-width:1.771654;stroke-linecap:round;stroke-linejoin:round;stroke:rgb(30.588235%,80.392157%,76.862745%);stroke-opacity:1;stroke-miterlimit:4;" d="M 859.000014 1284.360456 L 885.000014 1287.360456 L 885.000014 1327.360457 L 900.000014 1327.360457 " transform="matrix(1,0,0,1,-824,-1245.63778)"/>
<path style="fill:none;stroke-width:1.796167;stroke-linecap:butt;stroke-linejoin:miter;stroke:rgb(33.333333%,38.431373%,43.921569%);stroke-opacity:1;stroke-miterlimit:4;" d="M 908.019546 1337.360457 L 925.980483 1337.360457 " transform="matrix(1,0,0,1,-824,-1245.63778)"/>
<path style="fill:none;stroke-width:1.796167;stroke-linecap:butt;stroke-linejoin:miter;stroke:rgb(33.333333%,38.431373%,43.921569%);stroke-opacity:1;stroke-miterlimit:4;" d="M 908.000014 1277.360456 L 925.960952 1277.360456 " transform="matrix(1,0,0,1,-824,-1245.63778)"/>
</g>
</svg>
