<?xml version="1.0" encoding="UTF-8"?>
<svg xmlns="http://www.w3.org/2000/svg" xmlns:xlink="http://www.w3.org/1999/xlink" width="258pt" height="108pt" viewBox="0 0 258 108" version="1.1">
<g id="surface2">
<path style="fill:none;stroke-width:1.772;stroke-linecap:round;stroke-linejoin:round;stroke:rgb(33.333333%,38.431373%,43.921569%);stroke-opacity:1;stroke-miterlimit:4;" d="M 825 1092.363281 L 935 1092.363281 L 935 1197.363281 L 825 1197.363281 Z M 825 1092.363281 " transform="matrix(1,0,0,1,-824,-1091)"/>
<path style="fill-rule:nonzero;fill:rgb(30.588235%,80.392157%,76.862745%);fill-opacity:1;stroke-width:1.772;stroke-linecap:round;stroke-linejoin:round;stroke:rgb(33.333333%,38.431373%,43.921569%);stroke-opacity:1;stroke-miterlimit:4;" d="M 915.179688 1144.863281 C 915.179688 1164.289062 899.429688 1180.039062 880 1180.039062 C 860.570313 1180.039062 844.820313 1164.289062 844.820313 1144.863281 C 844.820313 1125.433594 860.570313 1109.683594 880 1109.683594 C 899.429688 1109.683594 915.179688 1125.433594 915.179688 1144.863281 Z M 915.179688 1144.863281 " transform="matrix(1,0,0,1,-824,-1091)"/>
<path style="fill-rule:nonzero;fill:rgb(30.588235%,80.392157%,76.862745%);fill-opacity:1;stroke-width:1.772;stroke-linecap:round;stroke-linejoin:round;stroke:rgb(33.333333%,38.431373%,43.921569%);stroke-opacity:1;stroke-miterlimit:4;" d="M 970 1092.363281 L 1080 1092.363281 L 1080 1197.363281 L 970 1197.363281 Z M 970 1092.363281 " transform="matrix(1,0,0,1,-824,-1091)"/>
<path style="fill-rule:nonzero;fill:rgb(100%,100%,100%);fill-opacity:1;stroke-width:1.772;stroke-linecap:round;stroke-linejoin:round;stroke:rgb(33.333333%,38.431373%,43.921569%);stroke-opacity:1;stroke-miterlimit:4;" d="M 1060.179688 1144.863281 C 1060.179688 1164.289062 1044.429688 1180.039062 1025 1180.039062 C 1005.570313 1180.039062 989.820313 1164.289062 989.820313 1144.863281 C 989.820313 1125.433594 1005.570313 1109.683594 1025 1109.683594 C 1044.429688 1109.683594 1060.179688 1125.433594 1060.179688 1144.863281 Z M 1060.179688 1144.863281 " transform="matrix(1,0,0,1,-824,-1091)"/>
</g>
</svg>
