<?xml version="1.0" encoding="UTF-8"?>
<svg xmlns="http://www.w3.org/2000/svg" xmlns:xlink="http://www.w3.org/1999/xlink" width="193pt" height="73pt" viewBox="0 0 193 73" version="1.1">
<g id="surface2">
<path style="fill:none;stroke-width:1.8;stroke-linecap:butt;stroke-linejoin:round;stroke:rgb(33.333333%,38.431373%,43.921569%);stroke-opacity:1;stroke-miterlimit:4;" d="M 440 642.363281 L 420 662.363281 L 440 682.363281 L 460 662.363281 Z M 440 642.363281 " transform="matrix(1,0,0,1,-349,-626)"/>
<path style="fill:none;stroke-width:1.8;stroke-linecap:butt;stroke-linejoin:round;stroke:rgb(33.333333%,38.431373%,43.921569%);stroke-opacity:1;stroke-miterlimit:4;" d="M 490 652.363281 L 530 652.363281 L 530 672.363281 L 490 672.363281 Z M 490 652.363281 " transform="matrix(1,0,0,1,-349,-626)"/>
<path style="fill:none;stroke-width:1.8;stroke-linecap:butt;stroke-linejoin:round;stroke:rgb(33.333333%,38.431373%,43.921569%);stroke-opacity:1;stroke-miterlimit:4;" d="M 350 652.363281 L 390 652.363281 L 390 672.363281 L 350 672.363281 Z M 350 652.363281 " transform="matrix(1,0,0,1,-349,-626)"/>
<path style="fill:none;stroke-width:1.8;stroke-linecap:butt;stroke-linejoin:miter;stroke:rgb(33.333333%,38.431373%,43.921569%);stroke-opacity:1;stroke-miterlimit:4;" d="M 460 662.363281 L 485 662.363281 " transform="matrix(1,0,0,1,-349,-626)"/>
<path style="fill-rule:evenodd;fill:rgb(33.333333%,38.431373%,43.921569%);fill-opacity:1;stroke-width:1.25;stroke-linecap:butt;stroke-linejoin:miter;stroke:rgb(33.333333%,38.431373%,43.921569%);stroke-opacity:1;stroke-miterlimit:4;" d="M 5.772556 0.00150172 L -2.880873 4.998247 L -2.880873 -5.000669 Z M 5.772556 0.00150172 " transform="matrix(0.72,0,0,0.72,136.00001,36.3622)"/>
<path style="fill:none;stroke-width:1.8;stroke-linecap:butt;stroke-linejoin:miter;stroke:rgb(33.333333%,38.431373%,43.921569%);stroke-opacity:1;stroke-miterlimit:4;" d="M 390 662.363281 L 415 662.363281 " transform="matrix(1,0,0,1,-349,-626)"/>
<path style="fill-rule:evenodd;fill:rgb(33.333333%,38.431373%,43.921569%);fill-opacity:1;stroke-width:1.25;stroke-linecap:butt;stroke-linejoin:miter;stroke:rgb(33.333333%,38.431373%,43.921569%);stroke-opacity:1;stroke-miterlimit:4;" d="M 5.772556 0.00150172 L -2.880873 4.998247 L -2.880873 -5.000669 Z M 5.772556 0.00150172 " transform="matrix(0.72,0,0,0.72,66.00001,36.3622)"/>
<path style="fill:none;stroke-width:1.8;stroke-linecap:butt;stroke-linejoin:miter;stroke:rgb(33.333333%,38.431373%,43.921569%);stroke-opacity:1;stroke-miterlimit:4;" d="M 530 662.363281 L 540 662.363281 L 540 627.363281 L 440 627.363281 L 440 637.363281 " transform="matrix(1,0,0,1,-349,-626)"/>
<path style="fill-rule:evenodd;fill:rgb(33.333333%,38.431373%,43.921569%);fill-opacity:1;stroke-width:1.25;stroke-linecap:butt;stroke-linejoin:miter;stroke:rgb(33.333333%,38.431373%,43.921569%);stroke-opacity:1;stroke-miterlimit:4;" d="M 5.768646 -0.000000000840657 L -2.879358 5.00217 L -2.879358 -5.00217 Z M 5.768646 -0.000000000840657 " transform="matrix(0.000000000000000044,0.72,-0.72,0.000000000000000044,91,11.3622)"/>
<path style="fill:none;stroke-width:1.8;stroke-linecap:butt;stroke-linejoin:round;stroke:rgb(33.333333%,38.431373%,43.921569%);stroke-opacity:1;stroke-miterlimit:4;" d="M 490 677.363281 L 530 677.363281 L 530 697.363281 L 490 697.363281 Z M 490 677.363281 " transform="matrix(1,0,0,1,-349,-626)"/>
<path style="fill:none;stroke-width:1.8;stroke-linecap:butt;stroke-linejoin:miter;stroke:rgb(33.333333%,38.431373%,43.921569%);stroke-opacity:1;stroke-miterlimit:4;" d="M 440 682.363281 L 440 687.363281 L 485 687.363281 " transform="matrix(1,0,0,1,-349,-626)"/>
<path style="fill-rule:evenodd;fill:rgb(33.333333%,38.431373%,43.921569%);fill-opacity:1;stroke-width:1.25;stroke-linecap:butt;stroke-linejoin:miter;stroke:rgb(33.333333%,38.431373%,43.921569%);stroke-opacity:1;stroke-miterlimit:4;" d="M 5.77257 0.00150172 L -2.880859 4.998247 L -2.880859 -5.000669 Z M 5.77257 0.00150172 " transform="matrix(0.72,0,0,0.72,136,61.3622)"/>
</g>
</svg>
