<?xml version="1.0" encoding="UTF-8"?>
<svg xmlns="http://www.w3.org/2000/svg" xmlns:xlink="http://www.w3.org/1999/xlink" width="193pt" height="73pt" viewBox="0 0 193 73" version="1.1">
<g id="surface2">
<path style="fill:none;stroke-width:1.8;stroke-linecap:butt;stroke-linejoin:round;stroke:rgb(33.333333%,38.431373%,43.921569%);stroke-opacity:1;stroke-miterlimit:4;" d="M 439.999998 642.36061 L 419.999998 662.36061 L 439.999998 682.36061 L 459.999998 662.36061 Z M 439.999998 642.36061 " transform="matrix(1,0,0,1,-349,-626.173113)"/>
<path style="fill:none;stroke-width:1.8;stroke-linecap:butt;stroke-linejoin:round;stroke:rgb(33.333333%,38.431373%,43.921569%);stroke-opacity:1;stroke-miterlimit:4;" d="M 489.999998 652.36061 L 529.999998 652.36061 L 529.999998 672.36061 L 489.999998 672.36061 Z M 489.999998 652.36061 " transform="matrix(1,0,0,1,-349,-626.173113)"/>
<path style="fill:none;stroke-width:1.8;stroke-linecap:butt;stroke-linejoin:round;stroke:rgb(33.333333%,38.431373%,43.921569%);stroke-opacity:1;stroke-miterlimit:4;" d="M 349.999998 652.36061 L 389.999998 652.36061 L 389.999998 672.36061 L 349.999998 672.36061 Z M 349.999998 652.36061 " transform="matrix(1,0,0,1,-349,-626.173113)"/>
<path style="fill:none;stroke-width:1.8;stroke-linecap:butt;stroke-linejoin:miter;stroke:rgb(33.333333%,38.431373%,43.921569%);stroke-opacity:1;stroke-miterlimit:4;" d="M 459.999998 662.36061 L 484.999998 662.36061 " transform="matrix(1,0,0,1,-349,-626.173113)"/>
<path style="fill-rule:evenodd;fill:rgb(33.333333%,38.431373%,43.921569%);fill-opacity:1;stroke-width:1.25;stroke-linecap:butt;stroke-linejoin:miter;stroke:rgb(33.333333%,38.431373%,43.921569%);stroke-opacity:1;stroke-miterlimit:4;" d="M 5.772553 -0.00220803 L -2.880876 4.999962 L -2.880876 -4.998953 Z M 5.772553 -0.00220803 " transform="matrix(0.72,0,0,0.72,136.000012,36.18909)"/>
<path style="fill:none;stroke-width:1.8;stroke-linecap:butt;stroke-linejoin:miter;stroke:rgb(33.333333%,38.431373%,43.921569%);stroke-opacity:1;stroke-miterlimit:4;" d="M 389.999998 662.36061 L 414.999998 662.36061 " transform="matrix(1,0,0,1,-349,-626.173113)"/>
<path style="fill-rule:evenodd;fill:rgb(33.333333%,38.431373%,43.921569%);fill-opacity:1;stroke-width:1.25;stroke-linecap:butt;stroke-linejoin:miter;stroke:rgb(33.333333%,38.431373%,43.921569%);stroke-opacity:1;stroke-miterlimit:4;" d="M 5.772553 -0.00220803 L -2.880876 4.999962 L -2.880876 -4.998953 Z M 5.772553 -0.00220803 " transform="matrix(0.72,0,0,0.72,66.000012,36.18909)"/>
<path style="fill:none;stroke-width:1.8;stroke-linecap:butt;stroke-linejoin:miter;stroke:rgb(33.333333%,38.431373%,43.921569%);stroke-opacity:1;stroke-miterlimit:4;" d="M 529.999998 662.36061 L 539.999998 662.36061 L 539.999998 627.36061 L 439.999998 627.36061 L 439.999998 637.36061 " transform="matrix(1,0,0,1,-349,-626.173113)"/>
<path style="fill-rule:evenodd;fill:rgb(33.333333%,38.431373%,43.921569%);fill-opacity:1;stroke-width:1.25;stroke-linecap:butt;stroke-linejoin:miter;stroke:rgb(33.333333%,38.431373%,43.921569%);stroke-opacity:1;stroke-miterlimit:4;" d="M 5.770362 0.00000274348 L -2.877642 5.002173 L -2.877642 -5.002168 Z M 5.770362 0.00000274348 " transform="matrix(0.000000000000000044,0.72,-0.72,0.000000000000000044,91.000002,11.18909)"/>
<path style="fill:none;stroke-width:1.8;stroke-linecap:butt;stroke-linejoin:round;stroke:rgb(33.333333%,38.431373%,43.921569%);stroke-opacity:1;stroke-miterlimit:4;" d="M 489.999998 677.36061 L 529.999998 677.36061 L 529.999998 697.36061 L 489.999998 697.36061 Z M 489.999998 677.36061 " transform="matrix(1,0,0,1,-349,-626.173113)"/>
<path style="fill:none;stroke-width:1.8;stroke-linecap:butt;stroke-linejoin:miter;stroke:rgb(33.333333%,38.431373%,43.921569%);stroke-opacity:1;stroke-miterlimit:4;" d="M 439.999998 682.36061 L 439.999998 687.36061 L 484.999998 687.36061 " transform="matrix(1,0,0,1,-349,-626.173113)"/>
<path style="fill-rule:evenodd;fill:rgb(33.333333%,38.431373%,43.921569%);fill-opacity:1;stroke-width:1.25;stroke-linecap:butt;stroke-linejoin:miter;stroke:rgb(33.333333%,38.431373%,43.921569%);stroke-opacity:1;stroke-miterlimit:4;" d="M 5.772567 -0.00220818 L -2.880862 4.999962 L -2.880862 -4.998953 Z M 5.772567 -0.00220818 " transform="matrix(0.72,0,0,0.72,136.000002,61.18909)"/>
</g>
</svg>
