<?xml version="1.0" encoding="UTF-8"?>
<svg xmlns="http://www.w3.org/2000/svg" xmlns:xlink="http://www.w3.org/1999/xlink" width="193pt" height="73pt" viewBox="0 0 193 73" version="1.1">
<g id="surface2">
<path style="fill:none;stroke-width:1.8;stroke-linecap:butt;stroke-linejoin:round;stroke:rgb(33.333333%,38.431373%,43.921569%);stroke-opacity:1;stroke-miterlimit:4;" d="M 440.000007 642.360362 L 420.000007 662.360362 L 440.000007 682.360362 L 460.000007 662.360362 Z M 440.000007 642.360362 " transform="matrix(1,0,0,1,-349,-625.637695)"/>
<path style="fill:none;stroke-width:1.8;stroke-linecap:butt;stroke-linejoin:round;stroke:rgb(33.333333%,38.431373%,43.921569%);stroke-opacity:1;stroke-miterlimit:4;" d="M 490.000008 652.360362 L 530.000008 652.360362 L 530.000008 672.360362 L 490.000008 672.360362 Z M 490.000008 652.360362 " transform="matrix(1,0,0,1,-349,-625.637695)"/>
<path style="fill:none;stroke-width:1.8;stroke-linecap:butt;stroke-linejoin:round;stroke:rgb(33.333333%,38.431373%,43.921569%);stroke-opacity:1;stroke-miterlimit:4;" d="M 350.000006 652.360362 L 390.000006 652.360362 L 390.000006 672.360362 L 350.000006 672.360362 Z M 350.000006 652.360362 " transform="matrix(1,0,0,1,-349,-625.637695)"/>
<path style="fill:none;stroke-width:1.8;stroke-linecap:butt;stroke-linejoin:miter;stroke:rgb(33.333333%,38.431373%,43.921569%);stroke-opacity:1;stroke-miterlimit:4;" d="M 460.000007 662.360362 L 485.000008 662.360362 " transform="matrix(1,0,0,1,-349,-625.637695)"/>
<path style="fill-rule:evenodd;fill:rgb(33.333333%,38.431373%,43.921569%);fill-opacity:1;stroke-width:1.25;stroke-linecap:butt;stroke-linejoin:miter;stroke:rgb(33.333333%,38.431373%,43.921569%);stroke-opacity:1;stroke-miterlimit:4;" d="M 5.772566 -0.00255272 L -2.880863 4.999618 L -2.880863 -4.999298 Z M 5.772566 -0.00255272 " transform="matrix(0.72,0,0,0.72,136.000002,36.724494)"/>
<path style="fill:none;stroke-width:1.8;stroke-linecap:butt;stroke-linejoin:miter;stroke:rgb(33.333333%,38.431373%,43.921569%);stroke-opacity:1;stroke-miterlimit:4;" d="M 390.000006 662.360362 L 415.000007 662.360362 " transform="matrix(1,0,0,1,-349,-625.637695)"/>
<path style="fill-rule:evenodd;fill:rgb(33.333333%,38.431373%,43.921569%);fill-opacity:1;stroke-width:1.25;stroke-linecap:butt;stroke-linejoin:miter;stroke:rgb(33.333333%,38.431373%,43.921569%);stroke-opacity:1;stroke-miterlimit:4;" d="M 5.772565 -0.00255272 L -2.880864 4.999618 L -2.880864 -4.999298 Z M 5.772565 -0.00255272 " transform="matrix(0.72,0,0,0.72,66.000003,36.724494)"/>
<path style="fill:none;stroke-width:1.8;stroke-linecap:butt;stroke-linejoin:miter;stroke:rgb(33.333333%,38.431373%,43.921569%);stroke-opacity:1;stroke-miterlimit:4;" d="M 530.000008 662.360362 L 540.000009 662.360362 L 540.000009 627.360361 L 440.000007 627.360361 L 440.000007 637.360362 " transform="matrix(1,0,0,1,-349,-625.637695)"/>
<path style="fill-rule:evenodd;fill:rgb(33.333333%,38.431373%,43.921569%);fill-opacity:1;stroke-width:1.25;stroke-linecap:butt;stroke-linejoin:miter;stroke:rgb(33.333333%,38.431373%,43.921569%);stroke-opacity:1;stroke-miterlimit:4;" d="M 5.770016 -0.00000970018 L -2.877987 5.002161 L -2.877987 -5.00218 Z M 5.770016 -0.00000970018 " transform="matrix(0.000000000000000044,0.72,-0.72,0.000000000000000044,90.999993,11.724495)"/>
<path style="fill:none;stroke-width:1.8;stroke-linecap:butt;stroke-linejoin:round;stroke:rgb(33.333333%,38.431373%,43.921569%);stroke-opacity:1;stroke-miterlimit:4;" d="M 490.000008 677.360362 L 530.000008 677.360362 L 530.000008 697.360363 L 490.000008 697.360363 Z M 490.000008 677.360362 " transform="matrix(1,0,0,1,-349,-625.637695)"/>
<path style="fill:none;stroke-width:1.8;stroke-linecap:butt;stroke-linejoin:miter;stroke:rgb(33.333333%,38.431373%,43.921569%);stroke-opacity:1;stroke-miterlimit:4;" d="M 440.000007 682.360362 L 440.000007 687.360362 L 485.000008 687.360362 " transform="matrix(1,0,0,1,-349,-625.637695)"/>
<path style="fill-rule:evenodd;fill:rgb(33.333333%,38.431373%,43.921569%);fill-opacity:1;stroke-width:1.25;stroke-linecap:butt;stroke-linejoin:miter;stroke:rgb(33.333333%,38.431373%,43.921569%);stroke-opacity:1;stroke-miterlimit:4;" d="M 5.77258 -0.00255217 L -2.880849 4.999618 L -2.880849 -4.999297 Z M 5.77258 -0.00255217 " transform="matrix(0.72,0,0,0.72,135.999992,61.724494)"/>
</g>
</svg>
