<?xml version="1.0" encoding="UTF-8"?>
<svg xmlns="http://www.w3.org/2000/svg" xmlns:xlink="http://www.w3.org/1999/xlink" width="127pt" height="86pt" viewBox="0 0 127 86" version="1.1">
<g id="surface2">
<path style="fill:none;stroke-width:1.8;stroke-linecap:butt;stroke-linejoin:miter;stroke:rgb(33.333333%,38.431373%,43.921569%);stroke-opacity:1;stroke-miterlimit:4;" d="M 1220.000018 862.360339 L 1275.000019 902.360339 " transform="matrix(1,0,0,1,-1169.999998,-856.637669)"/>
<path style=" stroke:none;fill-rule:nonzero;fill:rgb(33.333333%,38.431373%,43.921569%);fill-opacity:1;" d="M 55 5.722656 C 55 8.484375 52.761719 10.722656 50 10.722656 C 47.238281 10.722656 45 8.484375 45 5.722656 C 45 2.964844 47.238281 0.722656 50 0.722656 C 52.761719 0.722656 55 2.964844 55 5.722656 Z M 55 5.722656 "/>
<path style=" stroke:none;fill-rule:nonzero;fill:rgb(33.333333%,38.431373%,43.921569%);fill-opacity:1;" d="M 30 45.722656 C 30 48.484375 27.761719 50.722656 25 50.722656 C 22.238281 50.722656 20 48.484375 20 45.722656 C 20 42.964844 22.238281 40.722656 25 40.722656 C 27.761719 40.722656 30 42.964844 30 45.722656 Z M 30 45.722656 "/>
<path style=" stroke:none;fill-rule:nonzero;fill:rgb(33.333333%,38.431373%,43.921569%);fill-opacity:1;" d="M 75 75.722656 C 75 78.484375 72.761719 80.722656 70 80.722656 C 67.238281 80.722656 65 78.484375 65 75.722656 C 65 72.964844 67.238281 70.722656 70 70.722656 C 72.761719 70.722656 75 72.964844 75 75.722656 Z M 75 75.722656 "/>
<path style=" stroke:none;fill-rule:nonzero;fill:rgb(33.333333%,38.431373%,43.921569%);fill-opacity:1;" d="M 110 45.722656 C 110 48.484375 107.761719 50.722656 105 50.722656 C 102.238281 50.722656 100 48.484375 100 45.722656 C 100 42.964844 102.238281 40.722656 105 40.722656 C 107.761719 40.722656 110 42.964844 110 45.722656 Z M 110 45.722656 "/>
<path style=" stroke:none;fill-rule:nonzero;fill:rgb(33.333333%,38.431373%,43.921569%);fill-opacity:1;" d="M 85 45.722656 C 85 48.484375 82.761719 50.722656 80 50.722656 C 77.238281 50.722656 75 48.484375 75 45.722656 C 75 42.964844 77.238281 40.722656 80 40.722656 C 82.761719 40.722656 85 42.964844 85 45.722656 Z M 85 45.722656 "/>
<path style=" stroke:none;fill-rule:nonzero;fill:rgb(33.333333%,38.431373%,43.921569%);fill-opacity:1;" d="M 95 10.722656 C 95 13.484375 92.761719 15.722656 90 15.722656 C 87.238281 15.722656 85 13.484375 85 10.722656 C 85 7.964844 87.238281 5.722656 90 5.722656 C 92.761719 5.722656 95 7.964844 95 10.722656 Z M 95 10.722656 "/>
<path style=" stroke:none;fill-rule:nonzero;fill:rgb(33.333333%,38.431373%,43.921569%);fill-opacity:1;" d="M 125 5.722656 C 125 8.484375 122.761719 10.722656 120 10.722656 C 117.238281 10.722656 115 8.484375 115 5.722656 C 115 2.964844 117.238281 0.722656 120 0.722656 C 122.761719 0.722656 125 2.964844 125 5.722656 Z M 125 5.722656 "/>
<path style=" stroke:none;fill-rule:nonzero;fill:rgb(33.333333%,38.431373%,43.921569%);fill-opacity:1;" d="M 10 10.722656 C 10 13.484375 7.761719 15.722656 5 15.722656 C 2.238281 15.722656 0 13.484375 0 10.722656 C 0 7.964844 2.238281 5.722656 5 5.722656 C 7.761719 5.722656 10 7.964844 10 10.722656 Z M 10 10.722656 "/>
<path style=" stroke:none;fill-rule:nonzero;fill:rgb(33.333333%,38.431373%,43.921569%);fill-opacity:1;" d="M 45 70.722656 C 45 73.484375 42.761719 75.722656 40 75.722656 C 37.238281 75.722656 35 73.484375 35 70.722656 C 35 67.964844 37.238281 65.722656 40 65.722656 C 42.761719 65.722656 45 67.964844 45 70.722656 Z M 45 70.722656 "/>
<path style=" stroke:none;fill-rule:nonzero;fill:rgb(33.333333%,38.431373%,43.921569%);fill-opacity:1;" d="M 45 25.722656 C 45 28.484375 42.761719 30.722656 40 30.722656 C 37.238281 30.722656 35 28.484375 35 25.722656 C 35 22.964844 37.238281 20.722656 40 20.722656 C 42.761719 20.722656 45 22.964844 45 25.722656 Z M 45 25.722656 "/>
<path style="fill:none;stroke-width:1.8;stroke-linecap:butt;stroke-linejoin:miter;stroke:rgb(33.333333%,38.431373%,43.921569%);stroke-opacity:1;stroke-miterlimit:4;" d="M 1175.000017 867.360339 L 1210.000018 882.360339 " transform="matrix(1,0,0,1,-1169.999998,-856.637669)"/>
<path style="fill:none;stroke-width:1.8;stroke-linecap:butt;stroke-linejoin:miter;stroke:rgb(33.333333%,38.431373%,43.921569%);stroke-opacity:1;stroke-miterlimit:4;" d="M 1195.000017 902.360339 L 1220.000018 862.360339 " transform="matrix(1,0,0,1,-1169.999998,-856.637669)"/>
<path style="fill:none;stroke-width:1.8;stroke-linecap:butt;stroke-linejoin:miter;stroke:rgb(33.333333%,38.431373%,43.921569%);stroke-opacity:1;stroke-miterlimit:4;" d="M 1210.000018 927.36034 L 1240.000018 932.36034 " transform="matrix(1,0,0,1,-1169.999998,-856.637669)"/>
<path style="fill:none;stroke-width:1.8;stroke-linecap:butt;stroke-linejoin:miter;stroke:rgb(33.333333%,38.431373%,43.921569%);stroke-opacity:1;stroke-miterlimit:4;" d="M 1250.000018 902.360339 L 1275.000019 902.360339 " transform="matrix(1,0,0,1,-1169.999998,-856.637669)"/>
<path style="fill:none;stroke-width:1.8;stroke-linecap:butt;stroke-linejoin:miter;stroke:rgb(33.333333%,38.431373%,43.921569%);stroke-opacity:1;stroke-miterlimit:4;" d="M 1250.000018 902.360339 L 1240.000018 932.36034 " transform="matrix(1,0,0,1,-1169.999998,-856.637669)"/>
<path style="fill:none;stroke-width:1.8;stroke-linecap:butt;stroke-linejoin:miter;stroke:rgb(33.333333%,38.431373%,43.921569%);stroke-opacity:1;stroke-miterlimit:4;" d="M 1220.000018 862.360339 L 1240.000018 932.36034 " transform="matrix(1,0,0,1,-1169.999998,-856.637669)"/>
<path style="fill:none;stroke-width:1.8;stroke-linecap:butt;stroke-linejoin:miter;stroke:rgb(33.333333%,38.431373%,43.921569%);stroke-opacity:1;stroke-miterlimit:4;" d="M 1260.000018 867.360339 L 1290.000019 862.360339 " transform="matrix(1,0,0,1,-1169.999998,-856.637669)"/>
<path style="fill:none;stroke-width:1.8;stroke-linecap:butt;stroke-linejoin:miter;stroke:rgb(33.333333%,38.431373%,43.921569%);stroke-opacity:1;stroke-miterlimit:4;" d="M 1290.000019 862.360339 L 1275.000019 902.360339 " transform="matrix(1,0,0,1,-1169.999998,-856.637669)"/>
<path style="fill:none;stroke-width:1.8;stroke-linecap:butt;stroke-linejoin:miter;stroke:rgb(33.333333%,38.431373%,43.921569%);stroke-opacity:1;stroke-miterlimit:4;" d="M 1220.000018 862.360339 L 1260.000018 867.360339 " transform="matrix(1,0,0,1,-1169.999998,-856.637669)"/>
<path style="fill:none;stroke-width:1.8;stroke-linecap:butt;stroke-linejoin:miter;stroke:rgb(33.333333%,38.431373%,43.921569%);stroke-opacity:1;stroke-miterlimit:4;" d="M 1210.000018 882.360339 L 1250.000018 902.360339 " transform="matrix(1,0,0,1,-1169.999998,-856.637669)"/>
<path style="fill:none;stroke-width:1.8;stroke-linecap:butt;stroke-linejoin:miter;stroke:rgb(33.333333%,38.431373%,43.921569%);stroke-opacity:1;stroke-miterlimit:4;" d="M 1210.000018 927.36034 L 1275.000019 902.360339 " transform="matrix(1,0,0,1,-1169.999998,-856.637669)"/>
<path style="fill:none;stroke-width:1.8;stroke-linecap:butt;stroke-linejoin:miter;stroke:rgb(33.333333%,38.431373%,43.921569%);stroke-opacity:1;stroke-miterlimit:4;" d="M 1195.000017 902.360339 L 1260.000018 867.360339 " transform="matrix(1,0,0,1,-1169.999998,-856.637669)"/>
<path style="fill:none;stroke-width:1.8;stroke-linecap:butt;stroke-linejoin:miter;stroke:rgb(33.333333%,38.431373%,43.921569%);stroke-opacity:1;stroke-miterlimit:4;" d="M 1195.000017 902.360339 L 1175.000017 867.360339 " transform="matrix(1,0,0,1,-1169.999998,-856.637669)"/>
<path style="fill:none;stroke-width:1.8;stroke-linecap:butt;stroke-linejoin:miter;stroke:rgb(33.333333%,38.431373%,43.921569%);stroke-opacity:1;stroke-miterlimit:4;" d="M 1210.000018 927.36034 L 1210.000018 882.360339 " transform="matrix(1,0,0,1,-1169.999998,-856.637669)"/>
<path style="fill:none;stroke-width:1.8;stroke-linecap:butt;stroke-linejoin:miter;stroke:rgb(33.333333%,38.431373%,43.921569%);stroke-opacity:1;stroke-miterlimit:4;" d="M 1195.000017 902.360339 L 1240.000018 932.36034 " transform="matrix(1,0,0,1,-1169.999998,-856.637669)"/>
<path style="fill:none;stroke-width:1.8;stroke-linecap:butt;stroke-linejoin:miter;stroke:rgb(33.333333%,38.431373%,43.921569%);stroke-opacity:1;stroke-miterlimit:4;" d="M 1250.000018 902.360339 L 1290.000019 862.360339 " transform="matrix(1,0,0,1,-1169.999998,-856.637669)"/>
<path style=" stroke:none;fill-rule:nonzero;fill:rgb(33.333333%,38.431373%,43.921569%);fill-opacity:1;" d="M 105 80.722656 C 105 83.484375 102.761719 85.722656 100 85.722656 C 97.238281 85.722656 95 83.484375 95 80.722656 C 95 77.964844 97.238281 75.722656 100 75.722656 C 102.761719 75.722656 105 77.964844 105 80.722656 Z M 105 80.722656 "/>
<path style=" stroke:none;fill-rule:nonzero;fill:rgb(33.333333%,38.431373%,43.921569%);fill-opacity:1;" d="M 15 65.722656 C 15 68.484375 12.761719 70.722656 10 70.722656 C 7.238281 70.722656 5 68.484375 5 65.722656 C 5 62.964844 7.238281 60.722656 10 60.722656 C 12.761719 60.722656 15 62.964844 15 65.722656 Z M 15 65.722656 "/>
<path style="fill:none;stroke-width:1.8;stroke-linecap:butt;stroke-linejoin:miter;stroke:rgb(33.333333%,38.431373%,43.921569%);stroke-opacity:1;stroke-miterlimit:4;" d="M 1175.000017 867.360339 L 1180.000017 922.36034 " transform="matrix(1,0,0,1,-1169.999998,-856.637669)"/>
<path style="fill:none;stroke-width:1.8;stroke-linecap:butt;stroke-linejoin:miter;stroke:rgb(33.333333%,38.431373%,43.921569%);stroke-opacity:1;stroke-miterlimit:4;" d="M 1270.000019 937.36034 L 1250.000018 902.360339 " transform="matrix(1,0,0,1,-1169.999998,-856.637669)"/>
<path style="fill:none;stroke-width:1.8;stroke-linecap:butt;stroke-linejoin:miter;stroke:rgb(33.333333%,38.431373%,43.921569%);stroke-opacity:1;stroke-miterlimit:4;" d="M 1270.000019 937.36034 L 1210.000018 882.360339 " transform="matrix(1,0,0,1,-1169.999998,-856.637669)"/>
<path style="fill:none;stroke-width:1.8;stroke-linecap:butt;stroke-linejoin:miter;stroke:rgb(33.333333%,38.431373%,43.921569%);stroke-opacity:1;stroke-miterlimit:4;" d="M 1270.000019 937.36034 L 1260.000018 867.360339 " transform="matrix(1,0,0,1,-1169.999998,-856.637669)"/>
<path style="fill:none;stroke-width:1.8;stroke-linecap:butt;stroke-linejoin:miter;stroke:rgb(33.333333%,38.431373%,43.921569%);stroke-opacity:1;stroke-miterlimit:4;" d="M 1210.000018 927.36034 L 1180.000017 922.36034 " transform="matrix(1,0,0,1,-1169.999998,-856.637669)"/>
</g>
</svg>
