<?xml version="1.0" encoding="UTF-8"?>
<svg xmlns="http://www.w3.org/2000/svg" xmlns:xlink="http://www.w3.org/1999/xlink" width="159pt" height="158pt" viewBox="0 0 159 158" version="1.1">
<g id="surface2">
<path style="fill:none;stroke-width:1.8;stroke-linecap:butt;stroke-linejoin:round;stroke:rgb(33.333333%,38.431373%,43.921569%);stroke-opacity:1;stroke-miterlimit:4;" d="M 142.863281 617.378906 C 141.03125 617.382812 139.292969 618.097656 138.109375 619.339844 C 137.136719 618.820312 136.027344 618.542969 134.890625 618.539062 C 132.578125 618.539062 130.457031 619.679687 129.378906 621.496094 C 128.488281 621.078125 127.492188 620.859375 126.484375 620.859375 C 123.363281 620.859375 120.722656 622.917969 120.3125 625.667969 C 119.820313 625.554687 119.3125 625.496094 118.804688 625.492187 C 115.453125 625.496094 112.703125 627.851562 112.582031 630.828125 C 109.84375 631.46875 107.933594 633.667969 107.933594 636.183594 C 107.9375 636.792969 108.050781 637.394531 108.277344 637.972656 C 106.363281 638.960937 105.183594 640.78125 105.179688 642.75 C 105.179688 643.878906 105.570313 644.984375 106.300781 645.910156 C 105.210938 646.9375 104.601563 648.292969 104.601563 649.703125 C 104.601563 651.769531 105.898438 653.660156 107.960938 654.613281 C 107.847656 655.03125 107.789063 655.457031 107.785156 655.886719 C 107.789063 658.160156 109.355469 660.199219 111.734375 661.03125 C 111.617188 661.453125 111.558594 661.890625 111.554688 662.324219 C 111.558594 665.316406 114.234375 667.765625 117.601563 667.855469 C 118.503906 670.027344 120.835938 671.46875 123.441406 671.46875 C 123.839844 671.46875 124.238281 671.433594 124.628906 671.363281 C 125.800781 672.800781 127.675781 673.65625 129.675781 673.65625 C 130.136719 673.65625 130.59375 673.605469 131.042969 673.515625 C 132.226563 674.828125 134.015625 675.589844 135.90625 675.589844 C 136.523438 675.585937 137.136719 675.503906 137.722656 675.34375 C 138.84375 676.167969 140.25 676.621094 141.703125 676.621094 C 142.816406 676.617187 143.90625 676.351562 144.863281 675.847656 C 145.949219 676.597656 147.285156 677.003906 148.660156 677.007812 C 149.863281 677.007812 151.039063 676.695312 152.046875 676.117187 C 153 676.613281 154.082031 676.875 155.1875 676.878906 C 157.164063 676.875 159.027344 676.035156 160.199219 674.621094 C 160.867188 674.832031 161.574219 674.945312 162.285156 674.945312 C 164.488281 674.945312 166.523438 673.910156 167.644531 672.226562 C 168.382813 672.492187 169.171875 672.625 169.96875 672.628906 C 172.527344 672.625 174.824219 671.234375 175.761719 669.121094 C 176.238281 669.226562 176.726563 669.277344 177.214844 669.28125 C 180.65625 669.28125 183.449219 666.800781 183.449219 663.742187 C 183.445313 663.539062 183.429688 663.335937 183.402344 663.132812 C 186.367188 662.65625 188.519531 660.367187 188.523438 657.691406 C 188.519531 656.550781 188.121094 655.4375 187.378906 654.503906 C 189.175781 653.488281 190.261719 651.726562 190.261719 649.832031 C 190.257813 648.179687 189.425781 646.613281 187.988281 645.5625 C 188.804688 644.605469 189.246094 643.4375 189.25 642.234375 C 189.246094 640.132812 187.898438 638.210937 185.777344 637.277344 C 186.054688 636.640625 186.199219 635.964844 186.203125 635.28125 C 186.199219 632.617187 184.066406 630.335937 181.121094 629.84375 C 181.125 629.808594 181.128906 629.777344 181.132813 629.742187 C 181.132813 626.683594 178.339844 624.207031 174.898438 624.207031 C 174.34375 624.207031 173.792969 624.273437 173.257813 624.402344 C 172.292969 622.335937 170.023438 620.988281 167.503906 620.988281 C 166.671875 620.988281 165.851563 621.140625 165.085938 621.429687 C 164.019531 619.578125 161.875 618.410156 159.535156 618.410156 C 158.261719 618.414062 157.019531 618.761719 155.980469 619.410156 C 154.800781 618.28125 153.148438 617.640625 151.417969 617.636719 C 149.898438 617.640625 148.433594 618.136719 147.300781 619.027344 C 146.128906 617.976562 144.53125 617.382812 142.867188 617.382812 Z M 142.863281 617.378906 " transform="matrix(1,0,0,1,-59,-616)"/>
<path style="fill:none;stroke-width:1.8;stroke-linecap:butt;stroke-linejoin:round;stroke:rgb(33.333333%,38.431373%,43.921569%);stroke-opacity:1;stroke-miterlimit:4;" d="M 91.222656 693.957031 C 81.773438 693.957031 74.113281 701.617187 74.113281 711.066406 C 74.113281 717.507812 77.671875 723.105469 82.929688 726.027344 C 69.710938 731.621094 60 750.238281 60 772.363281 L 122.445313 772.363281 C 122.445313 750.238281 112.734375 731.621094 99.515625 726.027344 C 104.773438 723.105469 108.332031 717.507812 108.332031 711.066406 C 108.332031 701.617187 100.671875 693.957031 91.222656 693.957031 Z M 91.222656 693.957031 " transform="matrix(1,0,0,1,-59,-616)"/>
<path style="fill:none;stroke-width:1.8;stroke-linecap:round;stroke-linejoin:round;stroke:rgb(33.333333%,38.431373%,43.921569%);stroke-opacity:1;stroke-miterlimit:4;" d="M 201.941406 722.363281 L 210.921875 731.34375 M 175 727.363281 L 175 722.363281 L 201.941406 722.363281 L 201.941406 731.34375 L 210.921875 731.34375 L 210.921875 767.3125 L 206 767.3125 " transform="matrix(1,0,0,1,-59,-616)"/>
<path style="fill:none;stroke-width:1.8;stroke-linecap:butt;stroke-linejoin:miter;stroke:rgb(33.333333%,38.431373%,43.921569%);stroke-opacity:1;stroke-miterlimit:4;" d="M 178.984375 742.363281 L 196.945313 742.363281 " transform="matrix(1,0,0,1,-59,-616)"/>
<path style="fill:none;stroke-width:1.8;stroke-linecap:butt;stroke-linejoin:miter;stroke:rgb(33.333333%,38.431373%,43.921569%);stroke-opacity:1;stroke-miterlimit:4;" d="M 178.984375 752.363281 L 196.945313 752.363281 " transform="matrix(1,0,0,1,-59,-616)"/>
<path style="fill:none;stroke-width:1.8;stroke-linecap:butt;stroke-linejoin:miter;stroke:rgb(33.333333%,38.431373%,43.921569%);stroke-opacity:1;stroke-miterlimit:4;" d="M 178.984375 762.363281 L 196.945313 762.363281 " transform="matrix(1,0,0,1,-59,-616)"/>
<path style="fill-rule:nonzero;fill:rgb(30.588235%,80.392157%,76.862745%);fill-opacity:1;stroke-width:1.4;stroke-linecap:round;stroke-linejoin:round;stroke:rgb(33.333333%,38.431373%,43.921569%);stroke-opacity:1;stroke-miterlimit:4;" d="M 140.40625 646.628906 L 140.40625 655.613281 L 131.425781 655.613281 L 131.425781 664.59375 L 158.367188 664.59375 L 158.367188 655.613281 L 149.386719 655.613281 L 149.386719 646.628906 Z M 140.40625 646.628906 " transform="matrix(1,0,0,1,-59,-616)"/>
<path style="fill-rule:nonzero;fill:rgb(100%,41.960784%,41.960784%);fill-opacity:1;stroke-width:1.4;stroke-linecap:round;stroke-linejoin:round;stroke:rgb(33.333333%,38.431373%,43.921569%);stroke-opacity:1;stroke-miterlimit:4;" d="M 122.445313 628.667969 L 131.425781 628.667969 L 131.425781 664.59375 L 122.445313 664.59375 Z M 122.445313 628.667969 " transform="matrix(1,0,0,1,-59,-616)"/>
<path style="fill-rule:nonzero;fill:rgb(65.098039%,91.372549%,6.666667%);fill-opacity:1;stroke-width:1.4;stroke-linecap:round;stroke-linejoin:round;stroke:rgb(33.333333%,38.431373%,43.921569%);stroke-opacity:1;stroke-miterlimit:4;" d="M 140.40625 628.667969 L 140.40625 637.648437 L 131.425781 637.648437 L 131.425781 655.613281 L 140.40625 655.613281 L 140.40625 646.628906 L 149.386719 646.628906 L 149.386719 628.667969 Z M 140.40625 628.667969 " transform="matrix(1,0,0,1,-59,-616)"/>
<path style="fill-rule:nonzero;fill:rgb(65.098039%,91.372549%,6.666667%);fill-opacity:1;stroke-width:1.4;stroke-linecap:round;stroke-linejoin:round;stroke:rgb(33.333333%,38.431373%,43.921569%);stroke-opacity:1;stroke-miterlimit:4;" d="M 149.386719 646.628906 L 149.386719 655.613281 L 158.367188 655.613281 L 158.367188 664.59375 L 176.328125 664.59375 L 176.328125 655.613281 L 167.347656 655.613281 L 167.347656 646.628906 Z M 149.386719 646.628906 " transform="matrix(1,0,0,1,-59,-616)"/>
<path style="fill:none;stroke-width:1.8;stroke-linecap:butt;stroke-linejoin:round;stroke:rgb(33.333333%,38.431373%,43.921569%);stroke-opacity:1;stroke-miterlimit:4;" d="M 109.695313 693.609375 C 109.695313 695.101562 108.484375 696.3125 106.988281 696.3125 C 105.496094 696.3125 104.285156 695.101562 104.285156 693.609375 C 104.285156 692.113281 105.496094 690.902344 106.988281 690.902344 C 108.484375 690.902344 109.695313 692.113281 109.695313 693.609375 Z M 109.695313 693.609375 " transform="matrix(1,0,0,1,-59,-616)"/>
<path style="fill:none;stroke-width:1.8;stroke-linecap:butt;stroke-linejoin:round;stroke:rgb(33.333333%,38.431373%,43.921569%);stroke-opacity:1;stroke-miterlimit:4;" d="M 117.722656 687.527344 C 117.722656 689.363281 116.238281 690.847656 114.402344 690.847656 C 112.570313 690.847656 111.085938 689.363281 111.085938 687.527344 C 111.085938 685.695312 112.570313 684.210937 114.402344 684.210937 C 116.238281 684.210937 117.722656 685.695312 117.722656 687.527344 Z M 117.722656 687.527344 " transform="matrix(1,0,0,1,-59,-616)"/>
<path style="fill:none;stroke-width:1.8;stroke-linecap:butt;stroke-linejoin:round;stroke:rgb(33.333333%,38.431373%,43.921569%);stroke-opacity:1;stroke-miterlimit:4;" d="M 126.875 679.617187 C 126.875 682.035156 124.917969 683.992187 122.503906 683.992187 C 120.089844 683.992187 118.132813 682.035156 118.132813 679.617187 C 118.132813 677.203125 120.089844 675.246094 122.503906 675.246094 C 124.917969 675.246094 126.875 677.203125 126.875 679.617187 Z M 126.875 679.617187 " transform="matrix(1,0,0,1,-59,-616)"/>
<path style="fill:none;stroke-width:1.8;stroke-linecap:round;stroke-linejoin:round;stroke:rgb(33.333333%,38.431373%,43.921569%);stroke-opacity:1;stroke-miterlimit:4;" d="M 196.941406 727.363281 L 205.921875 736.34375 M 170 727.363281 L 196.941406 727.363281 L 196.941406 736.34375 L 205.921875 736.34375 L 205.921875 772.265625 L 170 772.265625 Z M 170 727.363281 " transform="matrix(1,0,0,1,-59,-616)"/>
<path style="fill:none;stroke-width:1.8;stroke-linecap:round;stroke-linejoin:round;stroke:rgb(33.333333%,38.431373%,43.921569%);stroke-opacity:1;stroke-miterlimit:4;" d="M 206.941406 717.363281 L 215.921875 726.34375 M 180 722.363281 L 180 717.363281 L 206.941406 717.363281 L 206.941406 726.34375 L 215.921875 726.34375 L 215.921875 762.3125 L 211 762.3125 " transform="matrix(1,0,0,1,-59,-616)"/>
</g>
</svg>
