<?xml version="1.0" encoding="UTF-8"?>
<svg xmlns="http://www.w3.org/2000/svg" xmlns:xlink="http://www.w3.org/1999/xlink" width="159pt" height="158pt" viewBox="0 0 159 158" version="1.1">
<g id="surface2">
<path style="fill:none;stroke-width:1.8;stroke-linecap:butt;stroke-linejoin:round;stroke:rgb(33.333333%,38.431373%,43.921569%);stroke-opacity:1;stroke-miterlimit:4;" d="M 142.863281 617.380142 C 141.031249 617.380142 139.292968 618.098892 138.109374 619.341079 C 137.136718 618.817642 136.027343 618.540298 134.890624 618.540298 C 132.578124 618.540298 130.457031 619.677017 129.378906 621.497329 C 128.488281 621.07936 127.492187 620.86061 126.484374 620.856704 C 123.363281 620.86061 120.722656 622.915298 120.312499 625.669204 C 119.820312 625.555923 119.312499 625.497329 118.804687 625.493423 C 115.453124 625.497329 112.703124 627.852798 112.582031 630.82936 C 109.84375 631.469985 107.933593 633.665298 107.933593 636.180923 C 107.9375 636.790298 108.050781 637.395767 108.277343 637.973892 C 106.363281 638.962173 105.183593 640.782485 105.179687 642.751235 C 105.179687 643.880142 105.570312 644.98561 106.300781 645.911392 C 105.210937 646.938735 104.601562 648.294204 104.601562 649.70436 C 104.601562 651.770767 105.898437 653.661392 107.960937 654.614517 C 107.847656 655.028579 107.789062 655.458267 107.785156 655.884048 C 107.789062 658.157485 109.355468 660.196548 111.734374 661.032485 C 111.617187 661.45436 111.558593 661.887954 111.554687 662.325454 C 111.558593 665.317641 114.234374 667.762954 117.601562 667.856704 C 118.503906 670.024673 120.835937 671.469985 123.441406 671.469985 C 123.839843 671.466079 124.238281 671.430923 124.628906 671.364516 C 125.800781 672.802016 127.675781 673.653579 129.675781 673.657485 C 130.136718 673.653579 130.593749 673.606704 131.042968 673.51686 C 132.226562 674.825454 134.015624 675.591079 135.906249 675.591079 C 136.523437 675.587173 137.136718 675.505141 137.722656 675.341079 C 138.843749 676.169204 140.249999 676.618423 141.703124 676.618423 C 142.816406 676.618423 143.906249 676.352798 144.863281 675.848891 C 145.949218 676.594985 147.285156 677.005141 148.660156 677.005141 C 149.863281 677.005141 151.039062 676.696548 152.046874 676.114516 C 152.999999 676.614516 154.082031 676.876235 155.187499 676.880141 C 157.164062 676.876235 159.027343 676.036391 160.199218 674.618423 C 160.867187 674.833266 161.574218 674.942641 162.285156 674.946548 C 164.488281 674.942641 166.523437 673.911391 167.64453 672.227798 C 168.382812 672.489516 169.171874 672.626235 169.968749 672.626235 C 172.527343 672.626235 174.824218 671.23561 175.761718 669.122329 C 176.23828 669.223891 176.726562 669.278579 177.214843 669.282485 C 180.656249 669.282485 183.449218 666.802016 183.449218 663.743423 C 183.445312 663.540298 183.429687 663.337173 183.402343 663.134048 C 186.367187 662.657485 188.51953 660.364516 188.523437 657.688735 C 188.51953 656.54811 188.121093 655.434829 187.378905 654.505142 C 189.17578 653.48561 190.261718 651.723892 190.261718 649.833267 C 190.257812 648.180923 189.42578 646.614517 187.98828 645.563735 C 188.804687 644.602798 189.246093 643.434829 189.249999 642.23561 C 189.246093 640.130142 187.898437 638.208267 185.777343 637.278579 C 186.054687 636.64186 186.199218 635.962173 186.203124 635.278579 C 186.199218 632.618423 184.066405 630.333267 181.121093 629.841079 C 181.124999 629.809829 181.128905 629.774673 181.132812 629.743423 C 181.132812 626.684829 178.339843 624.20436 174.898437 624.20436 C 174.343749 624.20436 173.792968 624.270767 173.257812 624.403579 C 172.292968 622.337173 170.023437 620.989517 167.503905 620.98561 C 166.671874 620.989517 165.851562 621.137954 165.085937 621.427017 C 164.019531 619.575454 161.874999 618.411392 159.535156 618.411392 C 158.261718 618.415298 157.019531 618.762954 155.980468 619.411392 C 154.800781 618.282485 153.148437 617.64186 151.417968 617.637954 C 149.898437 617.64186 148.433593 618.134048 147.300781 619.028579 C 146.128906 617.973892 144.531249 617.384048 142.867187 617.380142 Z M 142.863281 617.380142 " transform="matrix(1,0,0,1,-59,-616.173113)"/>
<path style="fill:none;stroke-width:1.8;stroke-linecap:butt;stroke-linejoin:round;stroke:rgb(33.333333%,38.431373%,43.921569%);stroke-opacity:1;stroke-miterlimit:4;" d="M 91.222656 693.958266 C 81.773437 693.958266 74.113281 701.618423 74.113281 711.067641 C 74.113281 717.505141 77.671875 723.106704 82.929687 726.028579 C 69.710937 731.622329 60 750.239516 60 772.36061 L 122.445312 772.36061 C 122.445312 750.239516 112.734374 731.622329 99.515625 726.028579 C 104.773437 723.106704 108.332031 717.505141 108.332031 711.067641 C 108.332031 701.618423 100.671875 693.958266 91.222656 693.958266 Z M 91.222656 693.958266 " transform="matrix(1,0,0,1,-59,-616.173113)"/>
<path style="fill:none;stroke-width:1.8;stroke-linecap:round;stroke-linejoin:round;stroke:rgb(33.333333%,38.431373%,43.921569%);stroke-opacity:1;stroke-miterlimit:4;" d="M 201.941405 722.36061 L 210.921874 731.341079 M 174.999999 727.36061 L 174.999999 722.36061 L 201.941405 722.36061 L 201.941405 731.341079 L 210.921874 731.341079 L 210.921874 767.313735 L 205.999999 767.313735 " transform="matrix(1,0,0,1,-59,-616.173113)"/>
<path style="fill:none;stroke-width:1.8;stroke-linecap:butt;stroke-linejoin:miter;stroke:rgb(33.333333%,38.431373%,43.921569%);stroke-opacity:1;stroke-miterlimit:4;" d="M 178.984374 742.36061 L 196.945312 742.36061 " transform="matrix(1,0,0,1,-59,-616.173113)"/>
<path style="fill:none;stroke-width:1.8;stroke-linecap:butt;stroke-linejoin:miter;stroke:rgb(33.333333%,38.431373%,43.921569%);stroke-opacity:1;stroke-miterlimit:4;" d="M 178.984374 752.36061 L 196.945312 752.36061 " transform="matrix(1,0,0,1,-59,-616.173113)"/>
<path style="fill:none;stroke-width:1.8;stroke-linecap:butt;stroke-linejoin:miter;stroke:rgb(33.333333%,38.431373%,43.921569%);stroke-opacity:1;stroke-miterlimit:4;" d="M 178.984374 762.36061 L 196.945312 762.36061 " transform="matrix(1,0,0,1,-59,-616.173113)"/>
<path style="fill-rule:nonzero;fill:rgb(30.588235%,80.392157%,76.862745%);fill-opacity:1;stroke-width:1.4;stroke-linecap:round;stroke-linejoin:round;stroke:rgb(33.333333%,38.431373%,43.921569%);stroke-opacity:1;stroke-miterlimit:4;" d="M 140.406249 646.630142 L 140.406249 655.61061 L 131.425781 655.61061 L 131.425781 664.591079 L 158.367187 664.591079 L 158.367187 655.61061 L 149.386718 655.61061 L 149.386718 646.630142 Z M 140.406249 646.630142 " transform="matrix(1,0,0,1,-59,-616.173113)"/>
<path style="fill-rule:nonzero;fill:rgb(100%,41.960784%,41.960784%);fill-opacity:1;stroke-width:1.4;stroke-linecap:round;stroke-linejoin:round;stroke:rgb(33.333333%,38.431373%,43.921569%);stroke-opacity:1;stroke-miterlimit:4;" d="M 122.445312 628.669204 L 131.425781 628.669204 L 131.425781 664.591079 L 122.445312 664.591079 Z M 122.445312 628.669204 " transform="matrix(1,0,0,1,-59,-616.173113)"/>
<path style="fill-rule:nonzero;fill:rgb(65.098039%,91.372549%,6.666667%);fill-opacity:1;stroke-width:1.4;stroke-linecap:round;stroke-linejoin:round;stroke:rgb(33.333333%,38.431373%,43.921569%);stroke-opacity:1;stroke-miterlimit:4;" d="M 140.406249 628.669204 L 140.406249 637.649673 L 131.425781 637.649673 L 131.425781 655.61061 L 140.406249 655.61061 L 140.406249 646.630142 L 149.386718 646.630142 L 149.386718 628.669204 Z M 140.406249 628.669204 " transform="matrix(1,0,0,1,-59,-616.173113)"/>
<path style="fill-rule:nonzero;fill:rgb(65.098039%,91.372549%,6.666667%);fill-opacity:1;stroke-width:1.4;stroke-linecap:round;stroke-linejoin:round;stroke:rgb(33.333333%,38.431373%,43.921569%);stroke-opacity:1;stroke-miterlimit:4;" d="M 149.386718 646.630142 L 149.386718 655.61061 L 158.367187 655.61061 L 158.367187 664.591079 L 176.328124 664.591079 L 176.328124 655.61061 L 167.347655 655.61061 L 167.347655 646.630142 Z M 149.386718 646.630142 " transform="matrix(1,0,0,1,-59,-616.173113)"/>
<path style="fill:none;stroke-width:1.8;stroke-linecap:butt;stroke-linejoin:round;stroke:rgb(33.333333%,38.431373%,43.921569%);stroke-opacity:1;stroke-miterlimit:4;" d="M 109.695312 693.606704 C 109.695312 695.102798 108.484375 696.313735 106.988281 696.313735 C 105.496093 696.313735 104.285156 695.102798 104.285156 693.606704 C 104.285156 692.114516 105.496093 690.903579 106.988281 690.903579 C 108.484375 690.903579 109.695312 692.114516 109.695312 693.606704 Z M 109.695312 693.606704 " transform="matrix(1,0,0,1,-59,-616.173113)"/>
<path style="fill:none;stroke-width:1.8;stroke-linecap:butt;stroke-linejoin:round;stroke:rgb(33.333333%,38.431373%,43.921569%);stroke-opacity:1;stroke-miterlimit:4;" d="M 117.722656 687.528579 C 117.722656 689.36061 116.238281 690.848891 114.402343 690.848891 C 112.570312 690.848891 111.085937 689.36061 111.085937 687.528579 C 111.085937 685.696548 112.570312 684.208266 114.402343 684.208266 C 116.238281 684.208266 117.722656 685.696548 117.722656 687.528579 Z M 117.722656 687.528579 " transform="matrix(1,0,0,1,-59,-616.173113)"/>
<path style="fill:none;stroke-width:1.8;stroke-linecap:butt;stroke-linejoin:round;stroke:rgb(33.333333%,38.431373%,43.921569%);stroke-opacity:1;stroke-miterlimit:4;" d="M 126.874999 679.618423 C 126.874999 682.032485 124.917968 683.989516 122.503906 683.989516 C 120.089843 683.989516 118.132812 682.032485 118.132812 679.618423 C 118.132812 677.20436 120.089843 675.247329 122.503906 675.247329 C 124.917968 675.247329 126.874999 677.20436 126.874999 679.618423 Z M 126.874999 679.618423 " transform="matrix(1,0,0,1,-59,-616.173113)"/>
<path style="fill:none;stroke-width:1.8;stroke-linecap:round;stroke-linejoin:round;stroke:rgb(33.333333%,38.431373%,43.921569%);stroke-opacity:1;stroke-miterlimit:4;" d="M 196.941405 727.36061 L 205.921874 736.341079 M 169.999999 727.36061 L 196.941405 727.36061 L 196.941405 736.341079 L 205.921874 736.341079 L 205.921874 772.26686 L 169.999999 772.26686 Z M 169.999999 727.36061 " transform="matrix(1,0,0,1,-59,-616.173113)"/>
<path style="fill:none;stroke-width:1.8;stroke-linecap:round;stroke-linejoin:round;stroke:rgb(33.333333%,38.431373%,43.921569%);stroke-opacity:1;stroke-miterlimit:4;" d="M 206.941405 717.36061 L 215.921874 726.341079 M 179.999999 722.36061 L 179.999999 717.36061 L 206.941405 717.36061 L 206.941405 726.341079 L 215.921874 726.341079 L 215.921874 762.313735 L 210.999999 762.313735 " transform="matrix(1,0,0,1,-59,-616.173113)"/>
</g>
</svg>
