<?xml version="1.0" encoding="UTF-8"?>
<svg xmlns="http://www.w3.org/2000/svg" xmlns:xlink="http://www.w3.org/1999/xlink" width="159pt" height="158pt" viewBox="0 0 159 158" version="1.1">
<g id="surface2">
<path style="fill:none;stroke-width:1.8;stroke-linecap:butt;stroke-linejoin:round;stroke:rgb(33.333333%,38.431373%,43.921569%);stroke-opacity:1;stroke-miterlimit:4;" d="M 142.863284 617.379893 C 141.031252 617.379893 139.292971 618.098643 138.109377 619.34083 C 137.136721 618.817393 136.027346 618.540049 134.890627 618.540049 C 132.578127 618.540049 130.457033 619.676768 129.378908 621.49708 C 128.488283 621.079111 127.49219 620.860361 126.484377 620.856455 C 123.363283 620.860361 120.722658 622.915049 120.312502 625.668955 C 119.820314 625.555674 119.312502 625.49708 118.804689 625.493174 C 115.453127 625.49708 112.703127 627.852549 112.582033 630.829112 C 109.843752 631.469737 107.933595 633.668955 107.933595 636.180674 C 107.937502 636.790049 108.050783 637.395518 108.277345 637.973643 C 106.363283 638.961924 105.183595 640.782237 105.179689 642.750987 C 105.179689 643.879893 105.570314 644.985362 106.300783 645.911143 C 105.210939 646.938487 104.601564 648.293956 104.601564 649.704112 C 104.601564 651.770518 105.898439 653.661143 107.960939 654.614268 C 107.847658 655.032237 107.789064 655.458018 107.785158 655.887706 C 107.789064 658.157237 109.35547 660.200206 111.734377 661.032237 C 111.617189 661.454112 111.558596 661.887706 111.554689 662.325206 C 111.558596 665.317393 114.234377 667.762706 117.601564 667.856456 C 118.503908 670.028331 120.835939 671.469737 123.441408 671.469737 C 123.839846 671.465831 124.238283 671.430675 124.628908 671.364268 C 125.800783 672.801768 127.675783 673.653331 129.675783 673.657237 C 130.136721 673.653331 130.593752 673.606456 131.042971 673.516612 C 132.226565 674.825206 134.015627 675.590831 135.906252 675.590831 C 136.52344 675.586925 137.136721 675.504893 137.722658 675.340831 C 138.843752 676.168956 140.250002 676.618175 141.703127 676.618175 C 142.816409 676.618175 143.906252 676.35255 144.863284 675.848644 C 145.949221 676.594737 147.285159 677.004894 148.660159 677.004894 C 149.863284 677.004894 151.039065 676.6963 152.046877 676.114269 C 153.000002 676.614269 154.082034 676.875987 155.187502 676.879894 C 157.164065 676.875987 159.027346 676.036144 160.199221 674.618175 C 160.86719 674.833018 161.574221 674.942393 162.285159 674.9463 C 164.488284 674.942393 166.52344 673.911143 167.644534 672.22755 C 168.382815 672.489268 169.171878 672.625987 169.968753 672.625987 C 172.527346 672.625987 174.824222 671.235362 175.761722 669.122081 C 176.238284 669.223643 176.726565 669.278331 177.214847 669.282237 C 180.656253 669.282237 183.449222 666.801768 183.449222 663.743175 C 183.445315 663.54005 183.42969 663.336925 183.402347 663.1338 C 186.36719 662.657237 188.519534 660.364268 188.52344 657.692393 C 188.519534 656.547862 188.121097 655.434581 187.378909 654.504893 C 189.175784 653.485362 190.261722 651.723643 190.261722 649.833018 C 190.257816 648.180674 189.425784 646.614268 187.988284 645.563487 C 188.80469 644.602549 189.246097 643.43458 189.250003 642.235362 C 189.246097 640.129893 187.89844 638.211924 185.777347 637.27833 C 186.05469 636.641612 186.199222 635.961924 186.203128 635.282237 C 186.199222 632.618174 184.066409 630.333018 181.121097 629.84083 C 181.125003 629.80958 181.128909 629.774424 181.132815 629.743174 C 181.132815 626.68458 178.339847 624.204111 174.89844 624.204111 C 174.343753 624.204111 173.792972 624.270518 173.257815 624.40333 C 172.292971 622.336924 170.02344 620.989268 167.503909 620.985361 C 166.671878 620.989268 165.851565 621.137705 165.08594 621.426768 C 164.019534 619.575205 161.875003 618.411143 159.535159 618.411143 C 158.261721 618.415049 157.019534 618.762705 155.980471 619.411143 C 154.800784 618.282236 153.14844 617.641611 151.417971 617.637705 C 149.89844 617.641611 148.433596 618.133799 147.296877 619.02833 C 146.128909 617.973643 144.531252 617.383799 142.86719 617.379893 Z M 142.863284 617.379893 " transform="matrix(1,0,0,1,-59,-615.637695)"/>
<path style="fill:none;stroke-width:1.8;stroke-linecap:butt;stroke-linejoin:round;stroke:rgb(33.333333%,38.431373%,43.921569%);stroke-opacity:1;stroke-miterlimit:4;" d="M 91.222658 693.958019 C 81.773439 693.958019 74.113282 701.618175 74.113282 711.067394 C 74.113282 717.504894 77.671876 723.106457 82.929689 726.028332 C 69.710939 731.622082 60.000001 750.23927 60.000001 772.360364 L 122.445314 772.360364 C 122.445314 750.23927 112.734377 731.622082 99.515627 726.028332 C 104.773439 723.106457 108.332033 717.504894 108.332033 711.067394 C 108.332033 701.618175 100.671877 693.958019 91.222658 693.958019 Z M 91.222658 693.958019 " transform="matrix(1,0,0,1,-59,-615.637695)"/>
<path style="fill:none;stroke-width:1.8;stroke-linecap:round;stroke-linejoin:round;stroke:rgb(33.333333%,38.431373%,43.921569%);stroke-opacity:1;stroke-miterlimit:4;" d="M 201.941409 722.360363 L 210.921878 731.344738 M 175.000003 727.360363 L 175.000003 722.360363 L 201.941409 722.360363 L 201.941409 731.344738 L 210.921878 731.344738 L 210.921878 767.313489 L 206.000003 767.313489 " transform="matrix(1,0,0,1,-59,-615.637695)"/>
<path style="fill:none;stroke-width:1.8;stroke-linecap:butt;stroke-linejoin:miter;stroke:rgb(33.333333%,38.431373%,43.921569%);stroke-opacity:1;stroke-miterlimit:4;" d="M 178.984378 742.360363 L 196.945316 742.360363 " transform="matrix(1,0,0,1,-59,-615.637695)"/>
<path style="fill:none;stroke-width:1.8;stroke-linecap:butt;stroke-linejoin:miter;stroke:rgb(33.333333%,38.431373%,43.921569%);stroke-opacity:1;stroke-miterlimit:4;" d="M 178.984378 752.360363 L 196.945316 752.360363 " transform="matrix(1,0,0,1,-59,-615.637695)"/>
<path style="fill:none;stroke-width:1.8;stroke-linecap:butt;stroke-linejoin:miter;stroke:rgb(33.333333%,38.431373%,43.921569%);stroke-opacity:1;stroke-miterlimit:4;" d="M 178.984378 762.360364 L 196.945316 762.360364 " transform="matrix(1,0,0,1,-59,-615.637695)"/>
<path style="fill-rule:nonzero;fill:rgb(30.588235%,80.392157%,76.862745%);fill-opacity:1;stroke-width:1.4;stroke-linecap:round;stroke-linejoin:round;stroke:rgb(33.333333%,38.431373%,43.921569%);stroke-opacity:1;stroke-miterlimit:4;" d="M 140.406252 646.629893 L 140.406252 655.610362 L 131.425783 655.610362 L 131.425783 664.590831 L 158.36719 664.590831 L 158.36719 655.610362 L 149.386721 655.610362 L 149.386721 646.629893 Z M 140.406252 646.629893 " transform="matrix(1,0,0,1,-59,-615.637695)"/>
<path style="fill-rule:nonzero;fill:rgb(100%,41.960784%,41.960784%);fill-opacity:1;stroke-width:1.4;stroke-linecap:round;stroke-linejoin:round;stroke:rgb(33.333333%,38.431373%,43.921569%);stroke-opacity:1;stroke-miterlimit:4;" d="M 122.445314 628.668955 L 131.425783 628.668955 L 131.425783 664.590831 L 122.445314 664.590831 Z M 122.445314 628.668955 " transform="matrix(1,0,0,1,-59,-615.637695)"/>
<path style="fill-rule:nonzero;fill:rgb(65.098039%,91.372549%,6.666667%);fill-opacity:1;stroke-width:1.4;stroke-linecap:round;stroke-linejoin:round;stroke:rgb(33.333333%,38.431373%,43.921569%);stroke-opacity:1;stroke-miterlimit:4;" d="M 140.406252 628.668955 L 140.406252 637.649424 L 131.425783 637.649424 L 131.425783 655.610362 L 140.406252 655.610362 L 140.406252 646.629893 L 149.386721 646.629893 L 149.386721 628.668955 Z M 140.406252 628.668955 " transform="matrix(1,0,0,1,-59,-615.637695)"/>
<path style="fill-rule:nonzero;fill:rgb(65.098039%,91.372549%,6.666667%);fill-opacity:1;stroke-width:1.4;stroke-linecap:round;stroke-linejoin:round;stroke:rgb(33.333333%,38.431373%,43.921569%);stroke-opacity:1;stroke-miterlimit:4;" d="M 149.386721 646.629893 L 149.386721 655.610362 L 158.36719 655.610362 L 158.36719 664.590831 L 176.328128 664.590831 L 176.328128 655.610362 L 167.347659 655.610362 L 167.347659 646.629893 Z M 149.386721 646.629893 " transform="matrix(1,0,0,1,-59,-615.637695)"/>
<path style="fill:none;stroke-width:1.8;stroke-linecap:butt;stroke-linejoin:round;stroke:rgb(33.333333%,38.431373%,43.921569%);stroke-opacity:1;stroke-miterlimit:4;" d="M 109.695314 693.606456 C 109.695314 695.10255 108.484377 696.313488 106.988283 696.313488 C 105.496095 696.313488 104.285158 695.10255 104.285158 693.606456 C 104.285158 692.114269 105.496095 690.903331 106.988283 690.903331 C 108.484377 690.903331 109.695314 692.114269 109.695314 693.606456 Z M 109.695314 693.606456 " transform="matrix(1,0,0,1,-59,-615.637695)"/>
<path style="fill:none;stroke-width:1.8;stroke-linecap:butt;stroke-linejoin:round;stroke:rgb(33.333333%,38.431373%,43.921569%);stroke-opacity:1;stroke-miterlimit:4;" d="M 117.722658 687.528331 C 117.722658 689.360362 116.238283 690.848644 114.402346 690.848644 C 112.570314 690.848644 111.085939 689.360362 111.085939 687.528331 C 111.085939 685.6963 112.570314 684.208019 114.402346 684.208019 C 116.238283 684.208019 117.722658 685.6963 117.722658 687.528331 Z M 117.722658 687.528331 " transform="matrix(1,0,0,1,-59,-615.637695)"/>
<path style="fill:none;stroke-width:1.8;stroke-linecap:butt;stroke-linejoin:round;stroke:rgb(33.333333%,38.431373%,43.921569%);stroke-opacity:1;stroke-miterlimit:4;" d="M 126.875002 679.618175 C 126.875002 682.032237 124.917971 683.989269 122.503908 683.989269 C 120.089846 683.989269 118.132814 682.032237 118.132814 679.618175 C 118.132814 677.204112 120.089846 675.247081 122.503908 675.247081 C 124.917971 675.247081 126.875002 677.204112 126.875002 679.618175 Z M 126.875002 679.618175 " transform="matrix(1,0,0,1,-59,-615.637695)"/>
<path style="fill:none;stroke-width:1.8;stroke-linecap:round;stroke-linejoin:round;stroke:rgb(33.333333%,38.431373%,43.921569%);stroke-opacity:1;stroke-miterlimit:4;" d="M 196.941409 727.360363 L 205.921878 736.344738 M 170.000003 727.360363 L 196.941409 727.360363 L 196.941409 736.344738 L 205.921878 736.344738 L 205.921878 772.266614 L 170.000003 772.266614 Z M 170.000003 727.360363 " transform="matrix(1,0,0,1,-59,-615.637695)"/>
<path style="fill:none;stroke-width:1.8;stroke-linecap:round;stroke-linejoin:round;stroke:rgb(33.333333%,38.431373%,43.921569%);stroke-opacity:1;stroke-miterlimit:4;" d="M 206.94141 717.360363 L 215.921878 726.344738 M 180.000003 722.360363 L 180.000003 717.360363 L 206.94141 717.360363 L 206.94141 726.344738 L 215.921878 726.344738 L 215.921878 762.313489 L 211.000003 762.313489 " transform="matrix(1,0,0,1,-59,-615.637695)"/>
</g>
</svg>
