<?xml version="1.0" encoding="UTF-8"?>
<svg xmlns="http://www.w3.org/2000/svg" xmlns:xlink="http://www.w3.org/1999/xlink" width="111pt" height="65pt" viewBox="0 0 111 65" version="1.1">
<g id="surface2">
<path style="fill:none;stroke-width:1.8;stroke-linecap:butt;stroke-linejoin:round;stroke:rgb(33.333333%,38.431373%,43.921569%);stroke-opacity:1;stroke-miterlimit:4;" d="M 457.855467 482.356705 L 465.546873 478.512955 L 457.855467 474.665299 Z M 457.855467 482.356705 " transform="matrix(1,0,0,1,-456,-469.173113)"/>
<path style="fill:none;stroke-width:1.8;stroke-linecap:butt;stroke-linejoin:round;stroke:rgb(33.333333%,38.431373%,43.921569%);stroke-opacity:1;stroke-miterlimit:4;" d="M 469.394529 470.817642 L 546.32031 470.817642 L 546.32031 486.204361 L 469.394529 486.204361 Z M 469.394529 470.817642 " transform="matrix(1,0,0,1,-456,-469.173113)"/>
<path style="fill:none;stroke-width:1.8;stroke-linecap:butt;stroke-linejoin:round;stroke:rgb(33.333333%,38.431373%,43.921569%);stroke-opacity:1;stroke-miterlimit:4;" d="M 488.624998 486.204361 L 565.554685 486.204361 L 565.554685 501.59108 L 488.624998 501.59108 Z M 488.624998 486.204361 " transform="matrix(1,0,0,1,-456,-469.173113)"/>
<path style="fill:none;stroke-width:1.8;stroke-linecap:butt;stroke-linejoin:round;stroke:rgb(33.333333%,38.431373%,43.921569%);stroke-opacity:1;stroke-miterlimit:4;" d="M 488.624998 501.59108 L 565.554685 501.59108 L 565.554685 516.977798 L 488.624998 516.977798 Z M 488.624998 501.59108 " transform="matrix(1,0,0,1,-456,-469.173113)"/>
<path style="fill:none;stroke-width:1.8;stroke-linecap:butt;stroke-linejoin:round;stroke:rgb(33.333333%,38.431373%,43.921569%);stroke-opacity:1;stroke-miterlimit:4;" d="M 488.624998 516.977798 L 565.554685 516.977798 L 565.554685 532.360611 L 488.624998 532.360611 Z M 488.624998 516.977798 " transform="matrix(1,0,0,1,-456,-469.173113)"/>
</g>
</svg>
