<?xml version="1.0" encoding="UTF-8"?>
<svg xmlns="http://www.w3.org/2000/svg" xmlns:xlink="http://www.w3.org/1999/xlink" width="111pt" height="65pt" viewBox="0 0 111 65" version="1.1">
<g id="surface2">
<path style="fill:none;stroke-width:1.8;stroke-linecap:butt;stroke-linejoin:round;stroke:rgb(33.333333%,38.431373%,43.921569%);stroke-opacity:1;stroke-miterlimit:4;" d="M 457.855476 482.360359 L 465.546882 478.512703 L 457.855476 474.665047 Z M 457.855476 482.360359 " transform="matrix(1,0,0,1,-456,-469.637695)"/>
<path style="fill:none;stroke-width:1.8;stroke-linecap:butt;stroke-linejoin:round;stroke:rgb(33.333333%,38.431373%,43.921569%);stroke-opacity:1;stroke-miterlimit:4;" d="M 469.394539 470.81739 L 546.320321 470.81739 L 546.320321 486.204109 L 469.394539 486.204109 Z M 469.394539 470.81739 " transform="matrix(1,0,0,1,-456,-469.637695)"/>
<path style="fill:none;stroke-width:1.8;stroke-linecap:butt;stroke-linejoin:round;stroke:rgb(33.333333%,38.431373%,43.921569%);stroke-opacity:1;stroke-miterlimit:4;" d="M 488.625008 486.204109 L 565.554696 486.204109 L 565.554696 501.590828 L 488.625008 501.590828 Z M 488.625008 486.204109 " transform="matrix(1,0,0,1,-456,-469.637695)"/>
<path style="fill:none;stroke-width:1.8;stroke-linecap:butt;stroke-linejoin:round;stroke:rgb(33.333333%,38.431373%,43.921569%);stroke-opacity:1;stroke-miterlimit:4;" d="M 488.625008 501.590828 L 565.554696 501.590828 L 565.554696 516.977547 L 488.625008 516.977547 Z M 488.625008 501.590828 " transform="matrix(1,0,0,1,-456,-469.637695)"/>
<path style="fill:none;stroke-width:1.8;stroke-linecap:butt;stroke-linejoin:round;stroke:rgb(33.333333%,38.431373%,43.921569%);stroke-opacity:1;stroke-miterlimit:4;" d="M 488.625008 516.977547 L 565.554696 516.977547 L 565.554696 532.36036 L 488.625008 532.36036 Z M 488.625008 516.977547 " transform="matrix(1,0,0,1,-456,-469.637695)"/>
</g>
</svg>
