<?xml version="1.0" encoding="UTF-8"?>
<svg xmlns="http://www.w3.org/2000/svg" xmlns:xlink="http://www.w3.org/1999/xlink" width="111pt" height="65pt" viewBox="0 0 111 65" version="1.1">
<g id="surface2">
<path style="fill:none;stroke-width:1.8;stroke-linecap:butt;stroke-linejoin:round;stroke:rgb(33.333333%,38.431373%,43.921569%);stroke-opacity:1;stroke-miterlimit:4;" d="M 457.855469 482.359375 L 465.546875 478.511719 L 457.855469 474.664062 Z M 457.855469 482.359375 " transform="matrix(1,0,0,1,-456,-469)"/>
<path style="fill:none;stroke-width:1.8;stroke-linecap:butt;stroke-linejoin:round;stroke:rgb(33.333333%,38.431373%,43.921569%);stroke-opacity:1;stroke-miterlimit:4;" d="M 469.394531 470.820312 L 546.320313 470.820312 L 546.320313 486.203125 L 469.394531 486.203125 Z M 469.394531 470.820312 " transform="matrix(1,0,0,1,-456,-469)"/>
<path style="fill:none;stroke-width:1.8;stroke-linecap:butt;stroke-linejoin:round;stroke:rgb(33.333333%,38.431373%,43.921569%);stroke-opacity:1;stroke-miterlimit:4;" d="M 488.625 486.203125 L 565.554688 486.203125 L 565.554688 501.589844 L 488.625 501.589844 Z M 488.625 486.203125 " transform="matrix(1,0,0,1,-456,-469)"/>
<path style="fill:none;stroke-width:1.8;stroke-linecap:butt;stroke-linejoin:round;stroke:rgb(33.333333%,38.431373%,43.921569%);stroke-opacity:1;stroke-miterlimit:4;" d="M 488.625 501.589844 L 565.554688 501.589844 L 565.554688 516.976562 L 488.625 516.976562 Z M 488.625 501.589844 " transform="matrix(1,0,0,1,-456,-469)"/>
<path style="fill:none;stroke-width:1.8;stroke-linecap:butt;stroke-linejoin:round;stroke:rgb(33.333333%,38.431373%,43.921569%);stroke-opacity:1;stroke-miterlimit:4;" d="M 488.625 516.976562 L 565.554688 516.976562 L 565.554688 532.363281 L 488.625 532.363281 Z M 488.625 516.976562 " transform="matrix(1,0,0,1,-456,-469)"/>
</g>
</svg>
