<?xml version="1.0" encoding="UTF-8"?>
<svg xmlns="http://www.w3.org/2000/svg" xmlns:xlink="http://www.w3.org/1999/xlink" width="163pt" height="118pt" viewBox="0 0 163 118" version="1.1">
<g id="surface2">
<path style="fill:none;stroke-width:1.8;stroke-linecap:butt;stroke-linejoin:miter;stroke:rgb(30.588235%,80.392157%,76.862745%);stroke-opacity:1;stroke-miterlimit:4;" d="M 438.000007 -337.639654 L 465.582039 -307.639653 " transform="matrix(1,0,0,1,-344,374.362305)"/>
<path style="fill-rule:evenodd;fill:rgb(30.588235%,80.392157%,76.862745%);fill-opacity:1;stroke-width:1.25;stroke-linecap:butt;stroke-linejoin:miter;stroke:rgb(30.588235%,80.392157%,76.862745%);stroke-opacity:1;stroke-miterlimit:4;" d="M 5.768805 -0.00231575 L -2.879283 5.002784 L -2.88052 -4.999522 Z M 5.768805 -0.00231575 " transform="matrix(-0.487322,-0.530016,0.530016,-0.487322,93.999993,36.7244)"/>
<path style="fill:none;stroke-width:1.8;stroke-linecap:butt;stroke-linejoin:miter;stroke:rgb(100%,41.960784%,41.960784%);stroke-opacity:1;stroke-miterlimit:4;" d="M 383.000006 -337.639654 L 405.000006 -307.639653 " transform="matrix(1,0,0,1,-344,374.362305)"/>
<path style="fill-rule:evenodd;fill:rgb(100%,41.960784%,41.960784%);fill-opacity:1;stroke-width:1.25;stroke-linecap:butt;stroke-linejoin:miter;stroke:rgb(100%,41.960784%,41.960784%);stroke-opacity:1;stroke-miterlimit:4;" d="M 5.769401 -0.000894261 L -2.881778 4.998012 L -2.882945 -5.000384 Z M 5.769401 -0.000894261 " transform="matrix(-0.425782,-0.580612,0.580612,-0.425782,38.999994,36.7244)"/>
<path style="fill:none;stroke-width:1.8;stroke-linecap:butt;stroke-linejoin:miter;stroke:rgb(100%,41.960784%,41.960784%);stroke-opacity:1;stroke-miterlimit:4;" d="M 365.000006 -336.639654 L 365.000006 -307.639653 " transform="matrix(1,0,0,1,-344,374.362305)"/>
<path style="fill-rule:evenodd;fill:rgb(100%,41.960784%,41.960784%);fill-opacity:1;stroke-width:1.25;stroke-linecap:butt;stroke-linejoin:miter;stroke:rgb(100%,41.960784%,41.960784%);stroke-opacity:1;stroke-miterlimit:4;" d="M 5.769566 0.00000804674 L -2.878438 5.002178 L -2.878438 -5.002162 Z M 5.769566 0.00000804674 " transform="matrix(-0.000000000000000044,-0.72,0.72,-0.000000000000000044,20.999994,37.7244)"/>
<path style="fill:none;stroke-width:1.8;stroke-linecap:butt;stroke-linejoin:miter;stroke:rgb(65.098039%,91.372549%,6.666667%);stroke-opacity:1;stroke-miterlimit:4;" d="M 467.000007 -337.639651 L 445.000007 -307.639651 " transform="matrix(1,0,0,1,-344,374.362302)"/>
<path style="fill-rule:evenodd;fill:rgb(65.098039%,91.372549%,6.666667%);fill-opacity:1;stroke-width:1.25;stroke-linecap:butt;stroke-linejoin:miter;stroke:rgb(65.098039%,91.372549%,6.666667%);stroke-opacity:1;stroke-miterlimit:4;" d="M 5.769409 0.000911526 L -2.882937 5.000401 L -2.88177 -4.997995 Z M 5.769409 0.000911526 " transform="matrix(0.425782,-0.580612,0.580612,0.425782,122.999993,36.724397)"/>
<path style="fill:none;stroke-width:1.8;stroke-linecap:butt;stroke-linejoin:miter;stroke:rgb(65.098039%,91.372549%,6.666667%);stroke-opacity:1;stroke-miterlimit:4;" d="M 485.000008 -336.639654 L 485.000008 -307.639653 " transform="matrix(1,0,0,1,-344,374.362305)"/>
<path style="fill-rule:evenodd;fill:rgb(65.098039%,91.372549%,6.666667%);fill-opacity:1;stroke-width:1.25;stroke-linecap:butt;stroke-linejoin:miter;stroke:rgb(65.098039%,91.372549%,6.666667%);stroke-opacity:1;stroke-miterlimit:4;" d="M 5.769566 0.0000106922 L -2.878438 5.002181 L -2.878438 -5.00216 Z M 5.769566 0.0000106922 " transform="matrix(-0.000000000000000044,-0.72,0.72,-0.000000000000000044,140.999992,37.7244)"/>
<path style="fill:none;stroke-width:1.8;stroke-linecap:butt;stroke-linejoin:miter;stroke:rgb(30.588235%,80.392157%,76.862745%);stroke-opacity:1;stroke-miterlimit:4;" d="M 412.000007 -337.639654 L 385.000006 -307.639653 " transform="matrix(1,0,0,1,-344,374.362305)"/>
<path style="fill-rule:evenodd;fill:rgb(30.588235%,80.392157%,76.862745%);fill-opacity:1;stroke-width:1.25;stroke-linecap:butt;stroke-linejoin:miter;stroke:rgb(30.588235%,80.392157%,76.862745%);stroke-opacity:1;stroke-miterlimit:4;" d="M 5.768063 -0.00161348 L -2.881523 5.002073 L -2.877491 -5.001267 Z M 5.768063 -0.00161348 " transform="matrix(0.481655,-0.535172,0.535172,0.481655,67.999993,36.7244)"/>
<path style="fill-rule:nonzero;fill:rgb(30.588235%,80.392157%,76.862745%);fill-opacity:1;stroke-width:1.8;stroke-linecap:butt;stroke-linejoin:round;stroke:rgb(30.588235%,80.392157%,76.862745%);stroke-opacity:1;stroke-miterlimit:4;" d="M 355.000006 -297.639653 L 375.000006 -297.639653 L 375.000006 -287.639653 L 355.000006 -287.639653 Z M 355.000006 -297.639653 " transform="matrix(1,0,0,1,-344,374.362305)"/>
<path style="fill:none;stroke-width:1.8;stroke-linecap:butt;stroke-linejoin:round;stroke:rgb(33.333333%,38.431373%,43.921569%);stroke-opacity:1;stroke-miterlimit:4;" d="M 345.000005 -307.639653 L 385.000006 -307.639653 L 385.000006 -257.639653 L 345.000005 -257.639653 Z M 345.000005 -307.639653 " transform="matrix(1,0,0,1,-344,374.362305)"/>
<path style="fill-rule:nonzero;fill:rgb(100%,41.960784%,41.960784%);fill-opacity:1;stroke-width:1.8;stroke-linecap:butt;stroke-linejoin:round;stroke:rgb(100%,41.960784%,41.960784%);stroke-opacity:1;stroke-miterlimit:4;" d="M 355.000006 -277.639653 L 375.000006 -277.639653 L 375.000006 -267.639653 L 355.000006 -267.639653 Z M 355.000006 -277.639653 " transform="matrix(1,0,0,1,-344,374.362305)"/>
<path style="fill-rule:nonzero;fill:rgb(65.098039%,91.372549%,6.666667%);fill-opacity:1;stroke-width:1.8;stroke-linecap:butt;stroke-linejoin:round;stroke:rgb(65.098039%,91.372549%,6.666667%);stroke-opacity:1;stroke-miterlimit:4;" d="M 415.000007 -297.639653 L 435.000007 -297.639653 L 435.000007 -287.639653 L 415.000007 -287.639653 Z M 415.000007 -297.639653 " transform="matrix(1,0,0,1,-344,374.362305)"/>
<path style="fill:none;stroke-width:1.8;stroke-linecap:butt;stroke-linejoin:round;stroke:rgb(33.333333%,38.431373%,43.921569%);stroke-opacity:1;stroke-miterlimit:4;" d="M 405.000006 -307.639653 L 445.000007 -307.639653 L 445.000007 -257.639653 L 405.000006 -257.639653 Z M 405.000006 -307.639653 " transform="matrix(1,0,0,1,-344,374.362305)"/>
<path style="fill-rule:nonzero;fill:rgb(100%,41.960784%,41.960784%);fill-opacity:1;stroke-width:1.8;stroke-linecap:butt;stroke-linejoin:round;stroke:rgb(100%,41.960784%,41.960784%);stroke-opacity:1;stroke-miterlimit:4;" d="M 415.000007 -277.639653 L 435.000007 -277.639653 L 435.000007 -267.639653 L 415.000007 -267.639653 Z M 415.000007 -277.639653 " transform="matrix(1,0,0,1,-344,374.362305)"/>
<path style="fill-rule:nonzero;fill:rgb(30.588235%,80.392157%,76.862745%);fill-opacity:1;stroke-width:1.8;stroke-linecap:butt;stroke-linejoin:round;stroke:rgb(30.588235%,80.392157%,76.862745%);stroke-opacity:1;stroke-miterlimit:4;" d="M 475.000008 -297.639653 L 495.000008 -297.639653 L 495.000008 -287.639653 L 475.000008 -287.639653 Z M 475.000008 -297.639653 " transform="matrix(1,0,0,1,-344,374.362305)"/>
<path style="fill:none;stroke-width:1.8;stroke-linecap:butt;stroke-linejoin:round;stroke:rgb(33.333333%,38.431373%,43.921569%);stroke-opacity:1;stroke-miterlimit:4;" d="M 465.000007 -307.639653 L 505.000008 -307.639653 L 505.000008 -257.639653 L 465.000007 -257.639653 Z M 465.000007 -307.639653 " transform="matrix(1,0,0,1,-344,374.362305)"/>
<path style="fill-rule:nonzero;fill:rgb(65.098039%,91.372549%,6.666667%);fill-opacity:1;stroke-width:1.8;stroke-linecap:butt;stroke-linejoin:round;stroke:rgb(65.098039%,91.372549%,6.666667%);stroke-opacity:1;stroke-miterlimit:4;" d="M 475.000008 -277.639653 L 495.000008 -277.639653 L 495.000008 -267.639653 L 475.000008 -267.639653 Z M 475.000008 -277.639653 " transform="matrix(1,0,0,1,-344,374.362305)"/>
<path style="fill-rule:nonzero;fill:rgb(100%,41.960784%,41.960784%);fill-opacity:1;stroke-width:1.8;stroke-linecap:butt;stroke-linejoin:round;stroke:rgb(100%,41.960784%,41.960784%);stroke-opacity:1;stroke-miterlimit:4;" d="M 355.000006 -362.639654 L 375.000006 -362.639654 L 375.000006 -352.639654 L 355.000006 -352.639654 Z M 355.000006 -362.639654 " transform="matrix(1,0,0,1,-344,374.362305)"/>
<path style="fill-rule:nonzero;fill:rgb(65.098039%,91.372549%,6.666667%);fill-opacity:1;stroke-width:1.8;stroke-linecap:butt;stroke-linejoin:round;stroke:rgb(65.098039%,91.372549%,6.666667%);stroke-opacity:1;stroke-miterlimit:4;" d="M 475.000008 -362.639654 L 495.000008 -362.639654 L 495.000008 -352.639654 L 475.000008 -352.639654 Z M 475.000008 -362.639654 " transform="matrix(1,0,0,1,-344,374.362305)"/>
<path style="fill-rule:nonzero;fill:rgb(30.588235%,80.392157%,76.862745%);fill-opacity:1;stroke-width:1.8;stroke-linecap:butt;stroke-linejoin:round;stroke:rgb(30.588235%,80.392157%,76.862745%);stroke-opacity:1;stroke-miterlimit:4;" d="M 415.000007 -362.639654 L 435.000007 -362.639654 L 435.000007 -352.639654 L 415.000007 -352.639654 Z M 415.000007 -362.639654 " transform="matrix(1,0,0,1,-344,374.362305)"/>
<path style="fill:none;stroke-width:1.8;stroke-linecap:butt;stroke-linejoin:round;stroke:rgb(33.333333%,38.431373%,43.921569%);stroke-opacity:1;stroke-miterlimit:4;" d="M 345.000005 -372.639654 L 385.000006 -372.639654 L 385.000006 -342.639654 L 345.000005 -342.639654 Z M 345.000005 -372.639654 " transform="matrix(1,0,0,1,-344,374.362305)"/>
<path style="fill:none;stroke-width:1.8;stroke-linecap:butt;stroke-linejoin:round;stroke:rgb(33.333333%,38.431373%,43.921569%);stroke-opacity:1;stroke-miterlimit:4;" d="M 405.000006 -372.639654 L 445.000007 -372.639654 L 445.000007 -342.639654 L 405.000006 -342.639654 Z M 405.000006 -372.639654 " transform="matrix(1,0,0,1,-344,374.362305)"/>
<path style="fill:none;stroke-width:1.8;stroke-linecap:butt;stroke-linejoin:round;stroke:rgb(33.333333%,38.431373%,43.921569%);stroke-opacity:1;stroke-miterlimit:4;" d="M 465.000007 -372.639654 L 505.000008 -372.639654 L 505.000008 -342.639654 L 465.000007 -342.639654 Z M 465.000007 -372.639654 " transform="matrix(1,0,0,1,-344,374.362305)"/>
</g>
</svg>
