<?xml version="1.0" encoding="UTF-8"?>
<svg xmlns="http://www.w3.org/2000/svg" xmlns:xlink="http://www.w3.org/1999/xlink" width="163pt" height="53pt" viewBox="0 0 163 53" version="1.1">
<g id="surface2">
<path style="fill-rule:nonzero;fill:rgb(30.588235%,80.392157%,76.862745%);fill-opacity:1;stroke-width:1.8;stroke-linecap:butt;stroke-linejoin:round;stroke:rgb(30.588235%,80.392157%,76.862745%);stroke-opacity:1;stroke-miterlimit:4;" d="M 120.000002 -467.639653 L 140.000002 -467.639653 L 140.000002 -457.639653 L 120.000002 -457.639653 Z M 120.000002 -467.639653 " transform="matrix(1,0,0,1,-109,479.362302)"/>
<path style="fill:none;stroke-width:1.8;stroke-linecap:butt;stroke-linejoin:round;stroke:rgb(33.333333%,38.431373%,43.921569%);stroke-opacity:1;stroke-miterlimit:4;" d="M 110.000002 -477.639653 L 150.000002 -477.639653 L 150.000002 -427.639653 L 110.000002 -427.639653 Z M 110.000002 -477.639653 " transform="matrix(1,0,0,1,-109,479.362302)"/>
<path style="fill-rule:nonzero;fill:rgb(100%,41.960784%,41.960784%);fill-opacity:1;stroke-width:1.8;stroke-linecap:butt;stroke-linejoin:round;stroke:rgb(100%,41.960784%,41.960784%);stroke-opacity:1;stroke-miterlimit:4;" d="M 120.000002 -447.639653 L 140.000002 -447.639653 L 140.000002 -437.639653 L 120.000002 -437.639653 Z M 120.000002 -447.639653 " transform="matrix(1,0,0,1,-109,479.362302)"/>
<path style="fill-rule:nonzero;fill:rgb(65.098039%,91.372549%,6.666667%);fill-opacity:1;stroke-width:1.8;stroke-linecap:butt;stroke-linejoin:round;stroke:rgb(65.098039%,91.372549%,6.666667%);stroke-opacity:1;stroke-miterlimit:4;" d="M 180.000003 -467.639653 L 200.000003 -467.639653 L 200.000003 -457.639653 L 180.000003 -457.639653 Z M 180.000003 -467.639653 " transform="matrix(1,0,0,1,-109,479.362302)"/>
<path style="fill:none;stroke-width:1.8;stroke-linecap:butt;stroke-linejoin:round;stroke:rgb(33.333333%,38.431373%,43.921569%);stroke-opacity:1;stroke-miterlimit:4;" d="M 170.000003 -477.639653 L 210.000003 -477.639653 L 210.000003 -427.639653 L 170.000003 -427.639653 Z M 170.000003 -477.639653 " transform="matrix(1,0,0,1,-109,479.362302)"/>
<path style="fill-rule:nonzero;fill:rgb(100%,41.960784%,41.960784%);fill-opacity:1;stroke-width:1.8;stroke-linecap:butt;stroke-linejoin:round;stroke:rgb(100%,41.960784%,41.960784%);stroke-opacity:1;stroke-miterlimit:4;" d="M 180.000003 -447.639653 L 200.000003 -447.639653 L 200.000003 -437.639653 L 180.000003 -437.639653 Z M 180.000003 -447.639653 " transform="matrix(1,0,0,1,-109,479.362302)"/>
<path style="fill-rule:nonzero;fill:rgb(30.588235%,80.392157%,76.862745%);fill-opacity:1;stroke-width:1.8;stroke-linecap:butt;stroke-linejoin:round;stroke:rgb(30.588235%,80.392157%,76.862745%);stroke-opacity:1;stroke-miterlimit:4;" d="M 240.000004 -467.639653 L 260.000004 -467.639653 L 260.000004 -457.639653 L 240.000004 -457.639653 Z M 240.000004 -467.639653 " transform="matrix(1,0,0,1,-109,479.362302)"/>
<path style="fill:none;stroke-width:1.8;stroke-linecap:butt;stroke-linejoin:round;stroke:rgb(33.333333%,38.431373%,43.921569%);stroke-opacity:1;stroke-miterlimit:4;" d="M 230.000003 -477.639653 L 270.000004 -477.639653 L 270.000004 -427.639653 L 230.000003 -427.639653 Z M 230.000003 -477.639653 " transform="matrix(1,0,0,1,-109,479.362302)"/>
<path style="fill-rule:nonzero;fill:rgb(65.098039%,91.372549%,6.666667%);fill-opacity:1;stroke-width:1.8;stroke-linecap:butt;stroke-linejoin:round;stroke:rgb(65.098039%,91.372549%,6.666667%);stroke-opacity:1;stroke-miterlimit:4;" d="M 240.000004 -447.639653 L 260.000004 -447.639653 L 260.000004 -437.639653 L 240.000004 -437.639653 Z M 240.000004 -447.639653 " transform="matrix(1,0,0,1,-109,479.362302)"/>
</g>
</svg>
